<?xml version="1.0" encoding="utf-8"?>
<!-- Generator: Adobe Illustrator 22.0.0, SVG Export Plug-In . SVG Version: 6.00 Build 0)  -->
<svg version="1.1" id="图层_1" xmlns="http://www.w3.org/2000/svg" xmlns:xlink="http://www.w3.org/1999/xlink" x="0px" y="0px"
	 viewBox="0 0 348.7 255.1" style="enable-background:new 0 0 348.7 255.1;" xml:space="preserve">
<style type="text/css">
	.st0{fill:#FFF2CC;}
	.st1{fill:none;stroke:#D6B656;stroke-width:0.7183;}
	.st2{font-family:'ArialMT';}
	.st3{font-size:7.8174px;}
	.st4{fill:#E6E6E6;}
	.st5{fill:none;stroke:#000000;stroke-width:0.7183;}
	.st6{font-size:9.6268px;}
	.st7{fill:#FF3333;}
	.st8{fill:#66B2FF;}
	.st9{fill:#0000FF;}
	.st10{fill:none;stroke:#000000;stroke-width:1.4367;stroke-miterlimit:10;}
	.st11{fill:#FF6666;}
	.st12{fill:#E51400;}
	.st13{fill:none;stroke:#B20000;stroke-width:0.7183;stroke-miterlimit:10;}
	.st14{fill:#B1DDF0;}
	.st15{fill:none;stroke:#10739E;stroke-width:0.7183;stroke-miterlimit:10;}
	.st16{fill:#CDEB8B;}
	.st17{fill:none;stroke:#36393D;stroke-width:0.7183;stroke-miterlimit:10;}
	.st18{fill:#6A00FF;}
	.st19{fill:none;stroke:#3700CC;stroke-width:0.7183;stroke-miterlimit:10;}
	.st20{fill:none;stroke:#67AB9F;stroke-width:0.7183;stroke-miterlimit:10;}
	.st21{fill:#67AB9F;}
	.st22{font-size:8.0224px;}
	.st23{fill:#FF9933;}
	.st24{fill:none;stroke:#000000;stroke-width:0.3592;}
	.st25{fill:#6666FF;}
	.st26{fill:#1BA1E2;}
	.st27{fill:#FFFFFF;}
	.st28{fill:none;stroke:#808080;stroke-width:0.7183;stroke-miterlimit:10;}
	.st29{fill:none;stroke:#000000;stroke-width:0.3592;stroke-miterlimit:10;}
	.st30{font-size:8.8246px;}
	.st31{fill:#FFFF00;}
	.st32{fill:none;stroke:#36393D;stroke-width:0.3592;}
	.st33{fill:none;stroke:#848484;stroke-width:0.7183;stroke-miterlimit:10;}
	.st34{fill:#0050EF;}
	.st35{font-size:7.2201px;}
	.st36{font-size:6.7007px;}
	.st37{fill:#D5E8D4;}
	.st38{fill:none;stroke:#82B366;stroke-width:0.7183;}
	.st39{opacity:2.350000e-02;fill:none;stroke:#000000;stroke-width:0;}
	.st40{opacity:1.570000e-02;fill:none;stroke:#000000;stroke-width:0;}
	.st41{fill:#21C0A5;}
	.st42{fill:none;stroke:#006658;stroke-width:0.7183;}
	.st43{fill:none;stroke:#006EAF;stroke-width:0.7183;}
	.st44{fill:#FFFF88;}
	.st45{fill:none;stroke:#36393D;stroke-width:0.7183;}
	.st46{fill:none;stroke:#000000;stroke-width:0.7183;stroke-miterlimit:10;}
	.st47{fill:none;stroke:#006658;stroke-width:0.7183;stroke-miterlimit:10;}
	.st48{fill:#006658;}
</style>
<rect x="9.4" y="3.7" class="st0" width="95.3" height="12"/>
<rect x="9.4" y="3.7" class="st1" width="95.3" height="12"/>
<text transform="matrix(1 0 0 1 10.6934 12.5503)" class="st2 st3">ImmuCycReg framework</text>
<rect x="9.4" y="15.7" class="st0" width="326.6" height="105"/>
<rect x="9.4" y="15.7" class="st1" width="326.6" height="105"/>
<rect x="11.9" y="23.4" class="st4" width="54.8" height="37"/>
<rect x="11.9" y="23.4" class="st5" width="54.8" height="37"/>
<text transform="matrix(1 0 0 1 16.1836 31.8042)" class="st2 st6">RNA-seq</text>
<polygon class="st7" points="32.4,46.1 34.7,48.4 32.4,50.6 32.4,49 32.1,49 32.1,50.6 31.5,50.6 30.8,50.6 30.8,47.7 32.4,47.7 "/>
<polygon class="st8" points="46,39.7 43.7,41.9 46,44.2 46,42.6 46.3,42.6 46.3,44.2 46.9,44.2 47.6,44.2 47.6,41.3 46,41.3 "/>
<polygon class="st9" points="39.5,52.6 37.2,54.8 39.5,57.1 39.5,55.5 39.8,55.5 39.8,57.1 40.5,57.1 41.1,57.1 41.1,54.2 
	39.5,54.2 "/>
<line class="st10" x1="15.4" y1="37.2" x2="55.6" y2="37.4"/>
<polygon class="st11" points="26.9,33.2 29.2,35.5 26.9,37.8 26.9,36.1 26.6,36.1 26.6,37.8 25.9,37.8 25.3,37.8 25.3,34.9 
	26.9,34.9 "/>
<line class="st10" x1="21.7" y1="43.6" x2="61.9" y2="43.8"/>
<line class="st10" x1="13.4" y1="50.1" x2="53.5" y2="50.1"/>
<line class="st10" x1="20.8" y1="56.5" x2="61" y2="56.7"/>
<rect x="11.9" y="74.9" class="st4" width="55.6" height="37.5"/>
<text transform="matrix(1 0 0 1 14.9561 84.7515)" class="st2 st6">A</text>
<text transform="matrix(1 0 0 1 20.8408 84.7515)" class="st2 st6">T</text>
<text transform="matrix(1 0 0 1 25.9502 84.7515)" class="st2 st6">AC-seq</text>
<rect x="11.9" y="74.9" class="st5" width="55.6" height="37.5"/>
<line class="st10" x1="24" y1="89.7" x2="61.7" y2="89.7"/>
<polygon class="st12" points="31.4,90.1 33.5,86.8 35.6,90.1 "/>
<polygon class="st13" points="31.4,90.1 33.5,86.8 35.6,90.1 "/>
<polygon class="st12" points="42,90.1 44.1,86.8 46.2,90.1 "/>
<polygon class="st13" points="42,90.1 44.1,86.8 46.2,90.1 "/>
<polygon class="st12" points="56.1,90.1 58.2,86.8 60.3,90.1 "/>
<polygon class="st13" points="56.1,90.1 58.2,86.8 60.3,90.1 "/>
<line class="st10" x1="16.9" y1="96.2" x2="56" y2="96.1"/>
<polygon class="st14" points="24.3,96.5 26.5,93.3 28.6,96.5 "/>
<polygon class="st15" points="24.3,96.5 26.5,93.3 28.6,96.5 "/>
<polygon class="st14" points="34.9,96.5 37,93.3 39.1,96.5 "/>
<polygon class="st15" points="34.9,96.5 37,93.3 39.1,96.5 "/>
<polygon class="st14" points="49,96.5 51.1,93.3 53.2,96.5 "/>
<polygon class="st15" points="49,96.5 51.1,93.3 53.2,96.5 "/>
<line class="st10" x1="24" y1="102.6" x2="61.3" y2="102.6"/>
<polygon class="st16" points="42,103 44.1,99.7 46.2,103 "/>
<polygon class="st17" points="42,103 44.1,99.7 46.2,103 "/>
<polygon class="st16" points="56.1,103 58.2,99.7 60.3,103 "/>
<polygon class="st17" points="56.1,103 58.2,99.7 60.3,103 "/>
<line class="st10" x1="20.8" y1="109" x2="55.7" y2="109"/>
<polygon class="st18" points="30,109.4 32.1,106.2 34.2,109.4 "/>
<polygon class="st19" points="30,109.4 32.1,106.2 34.2,109.4 "/>
<polygon class="st18" points="46.2,109.4 48.3,106.2 50.4,109.4 "/>
<polygon class="st19" points="46.2,109.4 48.3,106.2 50.4,109.4 "/>
<polygon points="35.1,66.7 39.1,66.7 39.1,62.8 41.1,62.8 41.1,66.7 45,66.7 45,68.7 41.1,68.7 41.1,72.6 39.1,72.6 39.1,68.7 
	35.1,68.7 "/>
<path class="st20" d="M88.2,58.7c15.2-22.3,25.5-27.9,30.9-16.7c5.4,11.1,12.9,16.7,22.4,16.7"/>
<polygon class="st21" points="145.7,58.7 140.1,61.5 141.5,58.7 140.1,55.9 "/>
<polygon class="st20" points="145.7,58.7 140.1,61.5 141.5,58.7 140.1,55.9 "/>
<text transform="matrix(1 0 0 1 95.5547 35.8149)" class="st2 st22">Peak</text>
<line class="st10" x1="167.6" y1="59.2" x2="175.2" y2="59"/>
<rect x="97.7" y="55.8" class="st23" width="11.1" height="7.1"/>
<rect x="97.7" y="55.8" class="st24" width="11.1" height="7.1"/>
<line class="st10" x1="84.5" y1="59" x2="97.3" y2="59"/>
<rect x="113.3" y="55.8" class="st25" width="11.1" height="7.1"/>
<rect x="113.3" y="55.8" class="st24" width="11.1" height="7.1"/>
<line class="st10" x1="108.4" y1="59" x2="112.9" y2="59"/>
<rect x="153" y="56.6" class="st26" width="15" height="6.4"/>
<rect x="153" y="56.6" class="st24" width="15" height="6.4"/>
<line class="st10" x1="124" y1="59" x2="152.6" y2="59.3"/>
<text transform="matrix(1 0 0 1 95.3916 51.8599)" class="st2 st22">TF motif</text>
<text transform="matrix(1 0 0 1 152.7393 51.8599)" class="st2 st22">gene</text>
<polygon class="st27" points="68.9,66.5 78.7,66.5 78.7,62.8 88.1,68.2 78.7,73.6 78.7,69.8 68.9,69.8 68.9,68.2 "/>
<polygon class="st28" points="68.9,66.5 78.7,66.5 78.7,62.8 88.1,68.2 78.7,73.6 78.7,69.8 68.9,69.8 68.9,68.2 "/>
<path class="st4" d="M105.7,80.9c0-3.7,43.3-3.7,43.3,0v18.4c0,3.7-43.3,3.7-43.3,0V80.9z"/>
<path class="st29" d="M105.7,80.9c0-3.7,43.3-3.7,43.3,0v18.4c0,3.7-43.3,3.7-43.3,0V80.9z"/>
<path class="st29" d="M105.7,83.7c0,2.8,43.3,2.8,43.3,0 M105.7,82.3c0,2.8,43.3,2.8,43.3,0 M105.7,80.9c0,2.8,43.3,2.8,43.3,0"/>
<text transform="matrix(1 0 0 1 111.0723 96.7856)" class="st2 st30">STRING</text>
<path class="st25" d="M244.6,37.1c0,0.4,0,0.7-0.1,1.1c-0.1,0.4-0.2,0.7-0.3,1.1c-0.1,0.3-0.3,0.7-0.5,1c-0.2,0.3-0.4,0.6-0.7,0.9
	c-0.3,0.3-0.6,0.5-0.9,0.7c-0.3,0.2-0.6,0.4-1,0.5c-0.3,0.1-0.7,0.3-1.1,0.3c-0.4,0.1-0.7,0.1-1.1,0.1c-0.4,0-0.7,0-1.1-0.1
	c-0.4-0.1-0.7-0.2-1.1-0.3c-0.3-0.1-0.7-0.3-1-0.5c-0.3-0.2-0.6-0.4-0.9-0.7c-0.3-0.3-0.5-0.6-0.7-0.9c-0.2-0.3-0.4-0.6-0.5-1
	c-0.1-0.3-0.3-0.7-0.3-1.1c-0.1-0.4-0.1-0.7-0.1-1.1c0-0.4,0-0.7,0.1-1.1c0.1-0.4,0.2-0.7,0.3-1.1c0.1-0.3,0.3-0.7,0.5-1
	c0.2-0.3,0.4-0.6,0.7-0.9c0.3-0.3,0.6-0.5,0.9-0.7c0.3-0.2,0.6-0.4,1-0.5c0.3-0.1,0.7-0.3,1.1-0.3c0.4-0.1,0.7-0.1,1.1-0.1
	c0.4,0,0.7,0,1.1,0.1c0.4,0.1,0.7,0.2,1.1,0.3c0.3,0.1,0.7,0.3,1,0.5c0.3,0.2,0.6,0.4,0.9,0.7c0.3,0.3,0.5,0.6,0.7,0.9
	c0.2,0.3,0.4,0.6,0.5,1c0.1,0.3,0.3,0.7,0.3,1.1C244.6,36.3,244.6,36.7,244.6,37.1z"/>
<path class="st24" d="M244.6,37.1c0,0.4,0,0.7-0.1,1.1c-0.1,0.4-0.2,0.7-0.3,1.1c-0.1,0.3-0.3,0.7-0.5,1c-0.2,0.3-0.4,0.6-0.7,0.9
	c-0.3,0.3-0.6,0.5-0.9,0.7c-0.3,0.2-0.6,0.4-1,0.5c-0.3,0.1-0.7,0.3-1.1,0.3c-0.4,0.1-0.7,0.1-1.1,0.1c-0.4,0-0.7,0-1.1-0.1
	c-0.4-0.1-0.7-0.2-1.1-0.3c-0.3-0.1-0.7-0.3-1-0.5c-0.3-0.2-0.6-0.4-0.9-0.7c-0.3-0.3-0.5-0.6-0.7-0.9c-0.2-0.3-0.4-0.6-0.5-1
	c-0.1-0.3-0.3-0.7-0.3-1.1c-0.1-0.4-0.1-0.7-0.1-1.1c0-0.4,0-0.7,0.1-1.1c0.1-0.4,0.2-0.7,0.3-1.1c0.1-0.3,0.3-0.7,0.5-1
	c0.2-0.3,0.4-0.6,0.7-0.9c0.3-0.3,0.6-0.5,0.9-0.7c0.3-0.2,0.6-0.4,1-0.5c0.3-0.1,0.7-0.3,1.1-0.3c0.4-0.1,0.7-0.1,1.1-0.1
	c0.4,0,0.7,0,1.1,0.1c0.4,0.1,0.7,0.2,1.1,0.3c0.3,0.1,0.7,0.3,1,0.5c0.3,0.2,0.6,0.4,0.9,0.7c0.3,0.3,0.5,0.6,0.7,0.9
	c0.2,0.3,0.4,0.6,0.5,1c0.1,0.3,0.3,0.7,0.3,1.1C244.6,36.3,244.6,36.7,244.6,37.1z"/>
<path class="st23" d="M227.1,37.1c0,0.4,0,0.7-0.1,1.1c-0.1,0.4-0.2,0.7-0.3,1.1c-0.1,0.3-0.3,0.7-0.5,1c-0.2,0.3-0.4,0.6-0.7,0.9
	c-0.3,0.3-0.6,0.5-0.9,0.7c-0.3,0.2-0.6,0.4-1,0.5c-0.3,0.1-0.7,0.3-1.1,0.3c-0.4,0.1-0.7,0.1-1.1,0.1c-0.4,0-0.7,0-1.1-0.1
	c-0.4-0.1-0.7-0.2-1.1-0.3c-0.3-0.1-0.7-0.3-1-0.5c-0.3-0.2-0.6-0.4-0.9-0.7s-0.5-0.6-0.7-0.9c-0.2-0.3-0.4-0.6-0.5-1
	c-0.1-0.3-0.3-0.7-0.3-1.1c-0.1-0.4-0.1-0.7-0.1-1.1c0-0.4,0-0.7,0.1-1.1c0.1-0.4,0.2-0.7,0.3-1.1s0.3-0.7,0.5-1
	c0.2-0.3,0.4-0.6,0.7-0.9c0.3-0.3,0.6-0.5,0.9-0.7c0.3-0.2,0.6-0.4,1-0.5c0.3-0.1,0.7-0.3,1.1-0.3c0.4-0.1,0.7-0.1,1.1-0.1
	c0.4,0,0.7,0,1.1,0.1c0.4,0.1,0.7,0.2,1.1,0.3c0.3,0.1,0.7,0.3,1,0.5c0.3,0.2,0.6,0.4,0.9,0.7c0.3,0.3,0.5,0.6,0.7,0.9
	c0.2,0.3,0.4,0.6,0.5,1c0.1,0.3,0.3,0.7,0.3,1.1C227.1,36.3,227.1,36.7,227.1,37.1z"/>
<path class="st24" d="M227.1,37.1c0,0.4,0,0.7-0.1,1.1c-0.1,0.4-0.2,0.7-0.3,1.1c-0.1,0.3-0.3,0.7-0.5,1c-0.2,0.3-0.4,0.6-0.7,0.9
	c-0.3,0.3-0.6,0.5-0.9,0.7c-0.3,0.2-0.6,0.4-1,0.5c-0.3,0.1-0.7,0.3-1.1,0.3c-0.4,0.1-0.7,0.1-1.1,0.1c-0.4,0-0.7,0-1.1-0.1
	c-0.4-0.1-0.7-0.2-1.1-0.3c-0.3-0.1-0.7-0.3-1-0.5c-0.3-0.2-0.6-0.4-0.9-0.7s-0.5-0.6-0.7-0.9c-0.2-0.3-0.4-0.6-0.5-1
	c-0.1-0.3-0.3-0.7-0.3-1.1c-0.1-0.4-0.1-0.7-0.1-1.1c0-0.4,0-0.7,0.1-1.1c0.1-0.4,0.2-0.7,0.3-1.1s0.3-0.7,0.5-1
	c0.2-0.3,0.4-0.6,0.7-0.9c0.3-0.3,0.6-0.5,0.9-0.7c0.3-0.2,0.6-0.4,1-0.5c0.3-0.1,0.7-0.3,1.1-0.3c0.4-0.1,0.7-0.1,1.1-0.1
	c0.4,0,0.7,0,1.1,0.1c0.4,0.1,0.7,0.2,1.1,0.3c0.3,0.1,0.7,0.3,1,0.5c0.3,0.2,0.6,0.4,0.9,0.7c0.3,0.3,0.5,0.6,0.7,0.9
	c0.2,0.3,0.4,0.6,0.5,1c0.1,0.3,0.3,0.7,0.3,1.1C227.1,36.3,227.1,36.7,227.1,37.1z"/>
<path class="st23" d="M210.2,41.9c0,0.4,0,0.7-0.1,1.1c-0.1,0.4-0.2,0.7-0.3,1.1c-0.1,0.3-0.3,0.7-0.5,1c-0.2,0.3-0.4,0.6-0.7,0.9
	c-0.3,0.3-0.6,0.5-0.9,0.7c-0.3,0.2-0.6,0.4-1,0.5c-0.3,0.1-0.7,0.3-1.1,0.3c-0.4,0.1-0.7,0.1-1.1,0.1c-0.4,0-0.7,0-1.1-0.1
	c-0.4-0.1-0.7-0.2-1.1-0.3c-0.3-0.1-0.7-0.3-1-0.5c-0.3-0.2-0.6-0.4-0.9-0.7c-0.3-0.3-0.5-0.6-0.7-0.9c-0.2-0.3-0.4-0.6-0.5-1
	c-0.1-0.3-0.3-0.7-0.3-1.1c-0.1-0.4-0.1-0.7-0.1-1.1c0-0.4,0-0.7,0.1-1.1c0.1-0.4,0.2-0.7,0.3-1.1c0.1-0.3,0.3-0.7,0.5-1
	c0.2-0.3,0.4-0.6,0.7-0.9c0.3-0.3,0.6-0.5,0.9-0.7c0.3-0.2,0.6-0.4,1-0.5c0.3-0.1,0.7-0.3,1.1-0.3c0.4-0.1,0.7-0.1,1.1-0.1
	c0.4,0,0.7,0,1.1,0.1c0.4,0.1,0.7,0.2,1.1,0.3c0.3,0.1,0.7,0.3,1,0.5c0.3,0.2,0.6,0.4,0.9,0.7c0.3,0.3,0.5,0.6,0.7,0.9
	c0.2,0.3,0.4,0.6,0.5,1c0.1,0.3,0.3,0.7,0.3,1.1C210.2,41.1,210.2,41.5,210.2,41.9z"/>
<path class="st24" d="M210.2,41.9c0,0.4,0,0.7-0.1,1.1c-0.1,0.4-0.2,0.7-0.3,1.1c-0.1,0.3-0.3,0.7-0.5,1c-0.2,0.3-0.4,0.6-0.7,0.9
	c-0.3,0.3-0.6,0.5-0.9,0.7c-0.3,0.2-0.6,0.4-1,0.5c-0.3,0.1-0.7,0.3-1.1,0.3c-0.4,0.1-0.7,0.1-1.1,0.1c-0.4,0-0.7,0-1.1-0.1
	c-0.4-0.1-0.7-0.2-1.1-0.3c-0.3-0.1-0.7-0.3-1-0.5c-0.3-0.2-0.6-0.4-0.9-0.7c-0.3-0.3-0.5-0.6-0.7-0.9c-0.2-0.3-0.4-0.6-0.5-1
	c-0.1-0.3-0.3-0.7-0.3-1.1c-0.1-0.4-0.1-0.7-0.1-1.1c0-0.4,0-0.7,0.1-1.1c0.1-0.4,0.2-0.7,0.3-1.1c0.1-0.3,0.3-0.7,0.5-1
	c0.2-0.3,0.4-0.6,0.7-0.9c0.3-0.3,0.6-0.5,0.9-0.7c0.3-0.2,0.6-0.4,1-0.5c0.3-0.1,0.7-0.3,1.1-0.3c0.4-0.1,0.7-0.1,1.1-0.1
	c0.4,0,0.7,0,1.1,0.1c0.4,0.1,0.7,0.2,1.1,0.3c0.3,0.1,0.7,0.3,1,0.5c0.3,0.2,0.6,0.4,0.9,0.7c0.3,0.3,0.5,0.6,0.7,0.9
	c0.2,0.3,0.4,0.6,0.5,1c0.1,0.3,0.3,0.7,0.3,1.1C210.2,41.1,210.2,41.5,210.2,41.9z"/>
<path class="st25" d="M262.7,41.9c0,0.4,0,0.7-0.1,1.1c-0.1,0.4-0.2,0.7-0.3,1.1c-0.1,0.3-0.3,0.7-0.5,1c-0.2,0.3-0.4,0.6-0.7,0.9
	c-0.3,0.3-0.6,0.5-0.9,0.7c-0.3,0.2-0.6,0.4-1,0.5c-0.3,0.1-0.7,0.3-1.1,0.3c-0.4,0.1-0.7,0.1-1.1,0.1c-0.4,0-0.7,0-1.1-0.1
	c-0.4-0.1-0.7-0.2-1.1-0.3c-0.3-0.1-0.7-0.3-1-0.5c-0.3-0.2-0.6-0.4-0.9-0.7c-0.3-0.3-0.5-0.6-0.7-0.9c-0.2-0.3-0.4-0.6-0.5-1
	c-0.1-0.3-0.3-0.7-0.3-1.1c-0.1-0.4-0.1-0.7-0.1-1.1c0-0.4,0-0.7,0.1-1.1c0.1-0.4,0.2-0.7,0.3-1.1c0.1-0.3,0.3-0.7,0.5-1
	c0.2-0.3,0.4-0.6,0.7-0.9c0.3-0.3,0.6-0.5,0.9-0.7c0.3-0.2,0.6-0.4,1-0.5c0.3-0.1,0.7-0.3,1.1-0.3c0.4-0.1,0.7-0.1,1.1-0.1
	c0.4,0,0.7,0,1.1,0.1c0.4,0.1,0.7,0.2,1.1,0.3s0.7,0.3,1,0.5c0.3,0.2,0.6,0.4,0.9,0.7c0.3,0.3,0.5,0.6,0.7,0.9
	c0.2,0.3,0.4,0.6,0.5,1c0.1,0.3,0.3,0.7,0.3,1.1C262.7,41.1,262.7,41.5,262.7,41.9z"/>
<path class="st24" d="M262.7,41.9c0,0.4,0,0.7-0.1,1.1c-0.1,0.4-0.2,0.7-0.3,1.1c-0.1,0.3-0.3,0.7-0.5,1c-0.2,0.3-0.4,0.6-0.7,0.9
	c-0.3,0.3-0.6,0.5-0.9,0.7c-0.3,0.2-0.6,0.4-1,0.5c-0.3,0.1-0.7,0.3-1.1,0.3c-0.4,0.1-0.7,0.1-1.1,0.1c-0.4,0-0.7,0-1.1-0.1
	c-0.4-0.1-0.7-0.2-1.1-0.3c-0.3-0.1-0.7-0.3-1-0.5c-0.3-0.2-0.6-0.4-0.9-0.7c-0.3-0.3-0.5-0.6-0.7-0.9c-0.2-0.3-0.4-0.6-0.5-1
	c-0.1-0.3-0.3-0.7-0.3-1.1c-0.1-0.4-0.1-0.7-0.1-1.1c0-0.4,0-0.7,0.1-1.1c0.1-0.4,0.2-0.7,0.3-1.1c0.1-0.3,0.3-0.7,0.5-1
	c0.2-0.3,0.4-0.6,0.7-0.9c0.3-0.3,0.6-0.5,0.9-0.7c0.3-0.2,0.6-0.4,1-0.5c0.3-0.1,0.7-0.3,1.1-0.3c0.4-0.1,0.7-0.1,1.1-0.1
	c0.4,0,0.7,0,1.1,0.1c0.4,0.1,0.7,0.2,1.1,0.3s0.7,0.3,1,0.5c0.3,0.2,0.6,0.4,0.9,0.7c0.3,0.3,0.5,0.6,0.7,0.9
	c0.2,0.3,0.4,0.6,0.5,1c0.1,0.3,0.3,0.7,0.3,1.1C262.7,41.1,262.7,41.5,262.7,41.9z"/>
<path class="st23" d="M195.1,51.2c0,0.4,0,0.7-0.1,1.1c-0.1,0.4-0.2,0.7-0.3,1.1c-0.1,0.3-0.3,0.7-0.5,1c-0.2,0.3-0.4,0.6-0.7,0.9
	c-0.3,0.3-0.6,0.5-0.9,0.7c-0.3,0.2-0.6,0.4-1,0.5c-0.3,0.1-0.7,0.3-1.1,0.3c-0.4,0.1-0.7,0.1-1.1,0.1c-0.4,0-0.7,0-1.1-0.1
	c-0.4-0.1-0.7-0.2-1.1-0.3s-0.7-0.3-1-0.5c-0.3-0.2-0.6-0.4-0.9-0.7c-0.3-0.3-0.5-0.6-0.7-0.9c-0.2-0.3-0.4-0.6-0.5-1
	c-0.1-0.3-0.3-0.7-0.3-1.1c-0.1-0.4-0.1-0.7-0.1-1.1c0-0.4,0-0.7,0.1-1.1c0.1-0.4,0.2-0.7,0.3-1.1s0.3-0.7,0.5-1
	c0.2-0.3,0.4-0.6,0.7-0.9c0.3-0.3,0.6-0.5,0.9-0.7c0.3-0.2,0.6-0.4,1-0.5c0.3-0.1,0.7-0.3,1.1-0.3c0.4-0.1,0.7-0.1,1.1-0.1
	c0.4,0,0.7,0,1.1,0.1c0.4,0.1,0.7,0.2,1.1,0.3c0.3,0.1,0.7,0.3,1,0.5c0.3,0.2,0.6,0.4,0.9,0.7c0.3,0.3,0.5,0.6,0.7,0.9
	c0.2,0.3,0.4,0.6,0.5,1c0.1,0.3,0.3,0.7,0.3,1.1C195.1,50.5,195.1,50.9,195.1,51.2z"/>
<path class="st24" d="M195.1,51.2c0,0.4,0,0.7-0.1,1.1c-0.1,0.4-0.2,0.7-0.3,1.1c-0.1,0.3-0.3,0.7-0.5,1c-0.2,0.3-0.4,0.6-0.7,0.9
	c-0.3,0.3-0.6,0.5-0.9,0.7c-0.3,0.2-0.6,0.4-1,0.5c-0.3,0.1-0.7,0.3-1.1,0.3c-0.4,0.1-0.7,0.1-1.1,0.1c-0.4,0-0.7,0-1.1-0.1
	c-0.4-0.1-0.7-0.2-1.1-0.3s-0.7-0.3-1-0.5c-0.3-0.2-0.6-0.4-0.9-0.7c-0.3-0.3-0.5-0.6-0.7-0.9c-0.2-0.3-0.4-0.6-0.5-1
	c-0.1-0.3-0.3-0.7-0.3-1.1c-0.1-0.4-0.1-0.7-0.1-1.1c0-0.4,0-0.7,0.1-1.1c0.1-0.4,0.2-0.7,0.3-1.1s0.3-0.7,0.5-1
	c0.2-0.3,0.4-0.6,0.7-0.9c0.3-0.3,0.6-0.5,0.9-0.7c0.3-0.2,0.6-0.4,1-0.5c0.3-0.1,0.7-0.3,1.1-0.3c0.4-0.1,0.7-0.1,1.1-0.1
	c0.4,0,0.7,0,1.1,0.1c0.4,0.1,0.7,0.2,1.1,0.3c0.3,0.1,0.7,0.3,1,0.5c0.3,0.2,0.6,0.4,0.9,0.7c0.3,0.3,0.5,0.6,0.7,0.9
	c0.2,0.3,0.4,0.6,0.5,1c0.1,0.3,0.3,0.7,0.3,1.1C195.1,50.5,195.1,50.9,195.1,51.2z"/>
<path class="st25" d="M277.2,49.7c0,0.4,0,0.7-0.1,1.1c-0.1,0.4-0.2,0.7-0.3,1.1c-0.1,0.3-0.3,0.7-0.5,1c-0.2,0.3-0.4,0.6-0.7,0.9
	c-0.3,0.3-0.6,0.5-0.9,0.7c-0.3,0.2-0.6,0.4-1,0.5c-0.3,0.1-0.7,0.3-1.1,0.3c-0.4,0.1-0.7,0.1-1.1,0.1c-0.4,0-0.7,0-1.1-0.1
	c-0.4-0.1-0.7-0.2-1.1-0.3c-0.3-0.1-0.7-0.3-1-0.5c-0.3-0.2-0.6-0.4-0.9-0.7c-0.3-0.3-0.5-0.6-0.7-0.9c-0.2-0.3-0.4-0.6-0.5-1
	c-0.1-0.3-0.3-0.7-0.3-1.1c-0.1-0.4-0.1-0.7-0.1-1.1c0-0.4,0-0.7,0.1-1.1c0.1-0.4,0.2-0.7,0.3-1.1c0.1-0.3,0.3-0.7,0.5-1
	c0.2-0.3,0.4-0.6,0.7-0.9c0.3-0.3,0.6-0.5,0.9-0.7c0.3-0.2,0.6-0.4,1-0.5c0.3-0.1,0.7-0.3,1.1-0.3c0.4-0.1,0.7-0.1,1.1-0.1
	c0.4,0,0.7,0,1.1,0.1c0.4,0.1,0.7,0.2,1.1,0.3c0.3,0.1,0.7,0.3,1,0.5c0.3,0.2,0.6,0.4,0.9,0.7c0.3,0.3,0.5,0.6,0.7,0.9
	c0.2,0.3,0.4,0.6,0.5,1c0.1,0.3,0.3,0.7,0.3,1.1C277.2,49,277.2,49.3,277.2,49.7z"/>
<path class="st24" d="M277.2,49.7c0,0.4,0,0.7-0.1,1.1c-0.1,0.4-0.2,0.7-0.3,1.1c-0.1,0.3-0.3,0.7-0.5,1c-0.2,0.3-0.4,0.6-0.7,0.9
	c-0.3,0.3-0.6,0.5-0.9,0.7c-0.3,0.2-0.6,0.4-1,0.5c-0.3,0.1-0.7,0.3-1.1,0.3c-0.4,0.1-0.7,0.1-1.1,0.1c-0.4,0-0.7,0-1.1-0.1
	c-0.4-0.1-0.7-0.2-1.1-0.3c-0.3-0.1-0.7-0.3-1-0.5c-0.3-0.2-0.6-0.4-0.9-0.7c-0.3-0.3-0.5-0.6-0.7-0.9c-0.2-0.3-0.4-0.6-0.5-1
	c-0.1-0.3-0.3-0.7-0.3-1.1c-0.1-0.4-0.1-0.7-0.1-1.1c0-0.4,0-0.7,0.1-1.1c0.1-0.4,0.2-0.7,0.3-1.1c0.1-0.3,0.3-0.7,0.5-1
	c0.2-0.3,0.4-0.6,0.7-0.9c0.3-0.3,0.6-0.5,0.9-0.7c0.3-0.2,0.6-0.4,1-0.5c0.3-0.1,0.7-0.3,1.1-0.3c0.4-0.1,0.7-0.1,1.1-0.1
	c0.4,0,0.7,0,1.1,0.1c0.4,0.1,0.7,0.2,1.1,0.3c0.3,0.1,0.7,0.3,1,0.5c0.3,0.2,0.6,0.4,0.9,0.7c0.3,0.3,0.5,0.6,0.7,0.9
	c0.2,0.3,0.4,0.6,0.5,1c0.1,0.3,0.3,0.7,0.3,1.1C277.2,49,277.2,49.3,277.2,49.7z"/>
<polygon class="st26" points="216,59.7 221.4,65.4 216,71.1 210.5,65.4 "/>
<polygon class="st29" points="216,59.7 221.4,65.4 216,71.1 210.5,65.4 "/>
<polygon class="st26" points="230.1,59.7 235.6,65.4 230.1,71.1 224.7,65.4 "/>
<polygon class="st29" points="230.1,59.7 235.6,65.4 230.1,71.1 224.7,65.4 "/>
<polygon class="st26" points="203.3,61.5 208.7,67.2 203.3,73 197.9,67.2 "/>
<polygon class="st29" points="203.3,61.5 208.7,67.2 203.3,73 197.9,67.2 "/>
<polygon class="st26" points="244.3,59.7 249.8,65.4 244.3,71.1 238.9,65.4 "/>
<polygon class="st29" points="244.3,59.7 249.8,65.4 244.3,71.1 238.9,65.4 "/>
<polygon class="st26" points="257,61.5 262.4,67.2 257,73 251.6,67.2 "/>
<polygon class="st29" points="257,61.5 262.4,67.2 257,73 251.6,67.2 "/>
<path class="st31" d="M213.6,81.1h13.3c0.3,0,0.5,0.1,0.6,0.3c0.2,0.2,0.3,0.4,0.3,0.6v4.2c0,0.3-0.1,0.5-0.3,0.6
	c-0.2,0.2-0.4,0.3-0.6,0.3h-13.3c-0.3,0-0.5-0.1-0.6-0.3c-0.2-0.2-0.3-0.4-0.3-0.6V82c0-0.3,0.1-0.5,0.3-0.6
	C213.1,81.2,213.3,81.1,213.6,81.1z"/>
<path class="st32" d="M213.6,81.1h13.3c0.3,0,0.5,0.1,0.6,0.3c0.2,0.2,0.3,0.4,0.3,0.6v4.2c0,0.3-0.1,0.5-0.3,0.6
	c-0.2,0.2-0.4,0.3-0.6,0.3h-13.3c-0.3,0-0.5-0.1-0.6-0.3c-0.2-0.2-0.3-0.4-0.3-0.6V82c0-0.3,0.1-0.5,0.3-0.6
	C213.1,81.2,213.3,81.1,213.6,81.1z"/>
<path class="st31" d="M242.2,81.1H254c0.3,0,0.5,0.1,0.6,0.3c0.2,0.2,0.3,0.4,0.3,0.6v4.2c0,0.3-0.1,0.5-0.3,0.6
	c-0.2,0.2-0.4,0.3-0.6,0.3h-11.8c-0.3,0-0.5-0.1-0.6-0.3c-0.2-0.2-0.3-0.4-0.3-0.6V82c0-0.3,0.1-0.5,0.3-0.6
	C241.8,81.2,242,81.1,242.2,81.1z"/>
<path class="st32" d="M242.2,81.1H254c0.3,0,0.5,0.1,0.6,0.3c0.2,0.2,0.3,0.4,0.3,0.6v4.2c0,0.3-0.1,0.5-0.3,0.6
	c-0.2,0.2-0.4,0.3-0.6,0.3h-11.8c-0.3,0-0.5-0.1-0.6-0.3c-0.2-0.2-0.3-0.4-0.3-0.6V82c0-0.3,0.1-0.5,0.3-0.6
	C241.8,81.2,242,81.1,242.2,81.1z"/>
<line class="st33" x1="203.3" y1="61.5" x2="193.5" y2="55.3"/>
<line class="st33" x1="216" y1="59.7" x2="208.6" y2="45.9"/>
<line class="st33" x1="203.3" y1="61.5" x2="208.6" y2="45.9"/>
<line class="st33" x1="216" y1="59.7" x2="221.4" y2="42.8"/>
<line class="st33" x1="230.1" y1="59.7" x2="208.6" y2="45.9"/>
<line class="st33" x1="244.3" y1="59.7" x2="238.9" y2="42.8"/>
<line class="st33" x1="230.1" y1="59.7" x2="238.9" y2="42.8"/>
<line class="st33" x1="230.1" y1="59.7" x2="257" y2="47.6"/>
<line class="st33" x1="257" y1="61.5" x2="267.4" y2="53.8"/>
<line class="st33" x1="257" y1="61.5" x2="221.4" y2="42.8"/>
<line class="st33" x1="244.3" y1="59.7" x2="267.4" y2="53.8"/>
<line class="st33" x1="220.2" y1="81.1" x2="206" y2="70.1"/>
<line class="st33" x1="220.2" y1="81.1" x2="216" y2="71.1"/>
<line class="st33" x1="248.1" y1="81.1" x2="230.1" y2="71.1"/>
<line class="st33" x1="220.2" y1="81.1" x2="244.3" y2="71.1"/>
<line class="st33" x1="248.1" y1="81.1" x2="257" y2="73"/>
<line class="st33" x1="248.1" y1="81.1" x2="244.3" y2="71.1"/>
<line class="st33" x1="257" y1="61.5" x2="257" y2="47.6"/>
<line class="st33" x1="212.8" y1="92.2" x2="220.2" y2="87.1"/>
<line class="st33" x1="234.2" y1="94.1" x2="220.2" y2="87.1"/>
<line class="st33" x1="254.9" y1="92.8" x2="248.1" y2="87.1"/>
<line class="st33" x1="234.2" y1="94.1" x2="248.1" y2="87.1"/>
<line class="st33" x1="212.8" y1="92.2" x2="248.1" y2="87.1"/>
<line class="st33" x1="244.3" y1="59.7" x2="193.5" y2="55.3"/>
<path class="st34" d="M213.9,93.2c0,0.3-0.1,0.5-0.3,0.7c-0.2,0.2-0.5,0.3-0.8,0.3c-0.3,0-0.6-0.1-0.8-0.3c-0.2-0.2-0.3-0.4-0.3-0.7
	c0-0.3,0.1-0.5,0.3-0.7c0.2-0.2,0.5-0.3,0.8-0.3c0.3,0,0.6,0.1,0.8,0.3C213.7,92.7,213.9,92.9,213.9,93.2z"/>
<path class="st34" d="M211.4,103.5c0,0.3,0.3,0.5,0.6,0.5c0.4,0,0.6-0.2,0.6-0.5V99h0.3v4.5c0,0.3,0.3,0.5,0.6,0.5
	c0.4,0,0.6-0.2,0.6-0.5v-7.8h0.3v2.9c0,0.6,0.9,0.6,0.9,0v-3c0-0.6-0.4-1.3-1.3-1.3h-2.5c-0.8,0-1.3,0.6-1.3,1.3v3
	c0,0.6,0.9,0.6,0.9,0v-2.9h0.3V103.5z"/>
<path class="st34" d="M235.3,95c0,0.3-0.1,0.5-0.3,0.7c-0.2,0.2-0.5,0.3-0.8,0.3c-0.3,0-0.6-0.1-0.8-0.3c-0.2-0.2-0.3-0.4-0.3-0.7
	c0-0.3,0.1-0.5,0.3-0.7c0.2-0.2,0.5-0.3,0.8-0.3c0.3,0,0.6,0.1,0.8,0.3C235.2,94.5,235.3,94.8,235.3,95z"/>
<path class="st34" d="M232.8,105.4c0,0.3,0.3,0.5,0.6,0.5c0.4,0,0.6-0.2,0.6-0.5v-4.5h0.3v4.5c0,0.3,0.3,0.5,0.6,0.5
	c0.4,0,0.6-0.2,0.6-0.5v-7.8h0.3v2.9c0,0.6,0.9,0.6,0.9,0v-3c0-0.6-0.4-1.3-1.3-1.3l-2.5,0c-0.8,0-1.3,0.6-1.3,1.3v3
	c0,0.6,0.9,0.6,0.9,0v-2.9h0.3V105.4z"/>
<path class="st34" d="M255.9,93.8c0,0.3-0.1,0.5-0.3,0.7c-0.2,0.2-0.5,0.3-0.8,0.3c-0.3,0-0.6-0.1-0.8-0.3c-0.2-0.2-0.3-0.4-0.3-0.7
	c0-0.3,0.1-0.5,0.3-0.7c0.2-0.2,0.5-0.3,0.8-0.3s0.6,0.1,0.8,0.3C255.8,93.3,255.9,93.5,255.9,93.8z"/>
<path class="st34" d="M253.5,104.1c0,0.3,0.3,0.5,0.6,0.5c0.4,0,0.6-0.2,0.6-0.5v-4.5h0.3v4.5c0,0.3,0.3,0.5,0.6,0.5
	c0.4,0,0.6-0.2,0.6-0.5v-7.8h0.3v2.9c0,0.6,0.9,0.6,0.9,0v-3c0-0.6-0.4-1.3-1.3-1.3l-2.5,0c-0.8,0-1.3,0.6-1.3,1.3v3
	c0,0.6,0.9,0.6,0.9,0v-2.9h0.3V104.1z"/>
<polygon points="122.4,69.1 126.3,69.1 126.3,65.1 128.3,65.1 128.3,69.1 132.3,69.1 132.3,71.1 128.3,71.1 128.3,75 126.3,75 
	126.3,71.1 122.4,71.1 "/>
<polygon class="st27" points="171.5,67.6 181.4,67.6 181.4,63.9 190.8,69.3 181.4,74.7 181.4,71 171.5,71 171.5,69.3 "/>
<polygon class="st28" points="171.5,67.6 181.4,67.6 181.4,63.9 190.8,69.3 181.4,74.7 181.4,71 171.5,71 171.5,69.3 "/>
<path class="st4" d="M294.7,22c0-2.7,37.4-2.7,37.4,0v13.6c0,2.7-37.4,2.7-37.4,0V22z"/>
<path class="st29" d="M294.7,22c0-2.7,37.4-2.7,37.4,0v13.6c0,2.7-37.4,2.7-37.4,0V22z"/>
<path class="st29" d="M294.7,24c0,2,37.4,2,37.4,0 M294.7,23c0,2,37.4,2,37.4,0 M294.7,22c0,2,37.4,2,37.4,0"/>
<text transform="matrix(1 0 0 1 304.5127 33.4087)" class="st2 st35">ChEA</text>
<path class="st4" d="M294.7,42c0-2.7,37.4-2.7,37.4,0v13.6c0,2.7-37.4,2.7-37.4,0V42z"/>
<path class="st29" d="M294.7,42c0-2.7,37.4-2.7,37.4,0v13.6c0,2.7-37.4,2.7-37.4,0V42z"/>
<path class="st29" d="M294.7,44c0,2,37.4,2,37.4,0 M294.7,43c0,2,37.4,2,37.4,0 M294.7,42c0,2,37.4,2,37.4,0"/>
<text transform="matrix(1 0 0 1 298.8975 53.4644)" class="st2 st35">ENCODE</text>
<path class="st4" d="M294.7,82.9c0-2.7,37.4-2.7,37.4,0v13.6c0,2.7-37.4,2.7-37.4,0V82.9z"/>
<path class="st29" d="M294.7,82.9c0-2.7,37.4-2.7,37.4,0v13.6c0,2.7-37.4,2.7-37.4,0V82.9z"/>
<path class="st29" d="M294.7,84.9c0,2,37.4,2,37.4,0 M294.7,83.9c0,2,37.4,2,37.4,0 M294.7,82.9c0,2,37.4,2,37.4,0"/>
<text transform="matrix(1 0 0 1 298.6963 94.3784)" class="st2 st35">MotifMap</text>
<path class="st4" d="M294.7,62.9c0-2.7,37.4-2.7,37.4,0v13.6c0,2.7-37.4,2.7-37.4,0V62.9z"/>
<path class="st29" d="M294.7,62.9c0-2.7,37.4-2.7,37.4,0v13.6c0,2.7-37.4,2.7-37.4,0V62.9z"/>
<path class="st29" d="M294.7,64.9c0,2,37.4,2,37.4,0 M294.7,63.9c0,2,37.4,2,37.4,0 M294.7,62.9c0,2,37.4,2,37.4,0"/>
<text transform="matrix(1 0 0 1 300.8145 74.3228)" class="st2 st35">JASPAR</text>
<path class="st4" d="M294.7,103c0-2.7,37.4-2.7,37.4,0v13.6c0,2.7-37.4,2.7-37.4,0V103z"/>
<path class="st29" d="M294.7,103c0-2.7,37.4-2.7,37.4,0v13.6c0,2.7-37.4,2.7-37.4,0V103z"/>
<path class="st29" d="M294.7,105c0,2,37.4,2,37.4,0 M294.7,104c0,2,37.4,2,37.4,0 M294.7,103c0,2,37.4,2,37.4,0"/>
<text transform="matrix(1 0 0 1 294.9482 114.4341)" class="st2 st36">TRANSFAC</text>
<polygon class="st27" points="290.7,70.5 280.9,70.5 280.9,74.3 271.5,68.9 280.9,63.5 280.9,67.2 290.7,67.2 290.7,68.9 "/>
<polygon class="st28" points="290.7,70.5 280.9,70.5 280.9,74.3 271.5,68.9 280.9,63.5 280.9,67.2 290.7,67.2 290.7,68.9 "/>
<text transform="matrix(1 0 0 1 268.0107 83.147)" class="st2 st35">V</text>
<text transform="matrix(1 0 0 1 272.4248 83.147)" class="st2 st35">alidate</text>
<rect x="9.4" y="124.7" class="st37" width="94.7" height="12"/>
<rect x="9.4" y="124.7" class="st38" width="94.7" height="12"/>
<text transform="matrix(1 0 0 1 10.6934 133.9482)" class="st2 st3">L0Reg framework</text>
<rect x="9.4" y="136.8" class="st37" width="325.7" height="113.9"/>
<rect x="9.4" y="136.8" class="st38" width="325.7" height="113.9"/>
<path d="M100.1,192.9c0,0.2,0.1,0.3,0.2,0.5c0.1,0.1,0.3,0.2,0.5,0.2c0.2,0,0.4-0.1,0.6-0.2c0.2-0.1,0.3-0.3,0.3-0.5
	c0,0,0-0.2,0-0.6c0-0.3,0-0.5,0-0.5c0,0-0.1,0-0.2,0c-0.1,0-0.2,0-0.4,0.1c-0.2,0-0.4,0.1-0.5,0.2c-0.2,0.1-0.3,0.2-0.4,0.3
	C100.1,192.5,100.1,192.7,100.1,192.9z M100.2,191.2c0,0-0.1,0-0.2,0c-0.1,0-0.2,0-0.3-0.1c-0.1-0.1-0.1-0.2-0.1-0.3
	c0-0.2,0.1-0.4,0.3-0.5c0.2-0.2,0.6-0.2,1.1-0.2c0.4,0,0.8,0.1,1.1,0.3c0.3,0.2,0.4,0.4,0.5,0.7c0,0.1,0,0.2,0,0.3c0,0.1,0,0.4,0,1
	v0.6c0,0.3,0,0.5,0,0.6c0,0.1,0.1,0.2,0.2,0.2c0.1,0,0.1,0,0.2-0.1c0-0.1,0-0.2,0-0.5v-0.3h0.4v0.3c0,0.2,0,0.4,0,0.4
	c-0.1,0.2-0.2,0.3-0.3,0.4c-0.2,0.1-0.3,0.2-0.5,0.2c-0.2,0-0.3,0-0.4-0.2c-0.1-0.1-0.2-0.2-0.2-0.4v0l0,0c0,0,0,0,0,0.1
	c0,0,0,0-0.1,0.1c0,0-0.1,0.1-0.1,0.1c0,0-0.1,0.1-0.1,0.1c0,0-0.1,0.1-0.2,0.1c-0.1,0-0.1,0-0.2,0.1c-0.1,0-0.1,0-0.2,0.1
	c-0.1,0-0.2,0-0.3,0c-0.4,0-0.7-0.1-1-0.3c-0.3-0.2-0.4-0.4-0.4-0.8c0-0.1,0-0.2,0.1-0.4c0-0.1,0.1-0.2,0.2-0.4
	c0.1-0.1,0.3-0.2,0.4-0.3c0.2-0.1,0.4-0.2,0.7-0.2c0.3-0.1,0.6-0.1,1-0.1h0.1v-0.2c0-0.2,0-0.3-0.1-0.4c-0.1-0.4-0.4-0.6-0.9-0.6
	c-0.1,0-0.2,0-0.3,0s-0.2,0-0.2,0c-0.1,0-0.1,0-0.1,0c0.1,0.1,0.2,0.2,0.2,0.4c0,0.1,0,0.3-0.1,0.3L100.2,191.2z"/>
<path class="st39" d="M100.1,192.9c0,0.2,0.1,0.3,0.2,0.5c0.1,0.1,0.3,0.2,0.5,0.2c0.2,0,0.4-0.1,0.6-0.2c0.2-0.1,0.3-0.3,0.3-0.5
	c0,0,0-0.2,0-0.6c0-0.3,0-0.5,0-0.5c0,0-0.1,0-0.2,0c-0.1,0-0.2,0-0.4,0.1c-0.2,0-0.4,0.1-0.5,0.2c-0.2,0.1-0.3,0.2-0.4,0.3
	C100.1,192.5,100.1,192.7,100.1,192.9z M100.2,191.2c0,0-0.1,0-0.2,0c-0.1,0-0.2,0-0.3-0.1c-0.1-0.1-0.1-0.2-0.1-0.3
	c0-0.2,0.1-0.4,0.3-0.5c0.2-0.2,0.6-0.2,1.1-0.2c0.4,0,0.8,0.1,1.1,0.3c0.3,0.2,0.4,0.4,0.5,0.7c0,0.1,0,0.2,0,0.3c0,0.1,0,0.4,0,1
	v0.6c0,0.3,0,0.5,0,0.6c0,0.1,0.1,0.2,0.2,0.2c0.1,0,0.1,0,0.2-0.1c0-0.1,0-0.2,0-0.5v-0.3h0.4v0.3c0,0.2,0,0.4,0,0.4
	c-0.1,0.2-0.2,0.3-0.3,0.4c-0.2,0.1-0.3,0.2-0.5,0.2c-0.2,0-0.3,0-0.4-0.2c-0.1-0.1-0.2-0.2-0.2-0.4v0l0,0c0,0,0,0,0,0.1
	c0,0,0,0-0.1,0.1c0,0-0.1,0.1-0.1,0.1c0,0-0.1,0.1-0.1,0.1c0,0-0.1,0.1-0.2,0.1c-0.1,0-0.1,0-0.2,0.1c-0.1,0-0.1,0-0.2,0.1
	c-0.1,0-0.2,0-0.3,0c-0.4,0-0.7-0.1-1-0.3c-0.3-0.2-0.4-0.4-0.4-0.8c0-0.1,0-0.2,0.1-0.4c0-0.1,0.1-0.2,0.2-0.4
	c0.1-0.1,0.3-0.2,0.4-0.3c0.2-0.1,0.4-0.2,0.7-0.2c0.3-0.1,0.6-0.1,1-0.1h0.1v-0.2c0-0.2,0-0.3-0.1-0.4c-0.1-0.4-0.4-0.6-0.9-0.6
	c-0.1,0-0.2,0-0.3,0s-0.2,0-0.2,0c-0.1,0-0.1,0-0.1,0c0.1,0.1,0.2,0.2,0.2,0.4c0,0.1,0,0.3-0.1,0.3L100.2,191.2z"/>
<path d="M103.7,193.5h0.1c0.2,0,0.4,0,0.4-0.1v-0.1c0-0.1,0-0.1,0-0.2c0-0.1,0-0.2,0-0.3c0-0.1,0-0.2,0-0.3c0-0.1,0-0.3,0-0.4
	c0-0.2,0-0.4,0-0.6c0-0.2,0-0.4,0-0.5l0-0.2c0-0.1-0.1-0.2-0.1-0.2c-0.1,0-0.2-0.1-0.4-0.1h-0.2v-0.2c0-0.1,0-0.2,0-0.2l0.1,0
	c0.1,0,0.1,0,0.3,0c0.1,0,0.2,0,0.3,0c0.1,0,0.2,0,0.3,0c0.1,0,0.2,0,0.3,0c0.1,0,0.1,0,0.1,0h0v0.6c0.2-0.4,0.5-0.6,0.9-0.6h0.1
	c0.3,0,0.5,0.1,0.6,0.2c0.1,0.1,0.2,0.3,0.2,0.4c0,0.1,0,0.2-0.1,0.3c-0.1,0.1-0.2,0.1-0.3,0.1s-0.3,0-0.3-0.1
	c-0.1-0.1-0.1-0.2-0.1-0.3c0-0.1,0-0.1,0-0.1c0,0,0-0.1,0-0.1c0,0,0,0,0,0c0,0-0.1,0-0.2,0c-0.1,0-0.2,0.1-0.2,0.1
	c-0.3,0.3-0.4,0.8-0.4,1.6v0.5c0,0.1,0,0.2,0,0.2c0,0.1,0,0.2,0,0.2c0,0.1,0,0.1,0,0.2c0,0,0,0.1,0,0.1v0c0,0,0,0,0,0c0,0,0,0,0,0
	c0,0,0,0,0,0c0,0,0,0,0.1,0c0,0,0.1,0,0.1,0c0,0,0,0,0.1,0c0,0,0.1,0,0.1,0c0,0,0,0,0.1,0c0,0,0.1,0,0.1,0h0.3v0.4h-0.1
	c-0.1,0-0.5,0-1.1,0c-0.6,0-0.9,0-1,0h-0.1v-0.4H103.7z"/>
<path class="st39" d="M103.7,193.5h0.1c0.2,0,0.4,0,0.4-0.1v-0.1c0-0.1,0-0.1,0-0.2c0-0.1,0-0.2,0-0.3c0-0.1,0-0.2,0-0.3
	c0-0.1,0-0.3,0-0.4c0-0.2,0-0.4,0-0.6c0-0.2,0-0.4,0-0.5l0-0.2c0-0.1-0.1-0.2-0.1-0.2c-0.1,0-0.2-0.1-0.4-0.1h-0.2v-0.2
	c0-0.1,0-0.2,0-0.2l0.1,0c0.1,0,0.1,0,0.3,0c0.1,0,0.2,0,0.3,0c0.1,0,0.2,0,0.3,0c0.1,0,0.2,0,0.3,0s0.1,0,0.1,0h0v0.6
	c0.2-0.4,0.5-0.6,0.9-0.6h0.1c0.3,0,0.5,0.1,0.6,0.2c0.1,0.1,0.2,0.3,0.2,0.4c0,0.1,0,0.2-0.1,0.3c-0.1,0.1-0.2,0.1-0.3,0.1
	s-0.3,0-0.3-0.1c-0.1-0.1-0.1-0.2-0.1-0.3c0-0.1,0-0.1,0-0.1c0,0,0-0.1,0-0.1c0,0,0,0,0,0c0,0-0.1,0-0.2,0c-0.1,0-0.2,0.1-0.2,0.1
	c-0.3,0.3-0.4,0.8-0.4,1.6v0.5c0,0.1,0,0.2,0,0.2s0,0.2,0,0.2s0,0.1,0,0.2c0,0,0,0.1,0,0.1v0c0,0,0,0,0,0c0,0,0,0,0,0c0,0,0,0,0,0
	c0,0,0,0,0.1,0c0,0,0.1,0,0.1,0c0,0,0,0,0.1,0c0,0,0.1,0,0.1,0c0,0,0,0,0.1,0c0,0,0.1,0,0.1,0h0.3v0.4h-0.1c-0.1,0-0.5,0-1.1,0
	c-0.6,0-0.9,0-1,0h-0.1v-0.4H103.7z"/>
<path d="M110.5,194.5c0-0.1,0-0.3-0.1-0.4c-0.1-0.1-0.2-0.2-0.4-0.2c-0.2,0-0.3-0.1-0.4-0.1c-0.1,0-0.3,0-0.5,0h-0.2
	c-0.4,0-0.6,0-0.7,0.1c-0.1,0.1-0.2,0.1-0.3,0.2c-0.1,0.1-0.1,0.2-0.1,0.4c0,0.1,0,0.1,0.1,0.2c0,0.1,0.1,0.2,0.2,0.3
	c0.1,0.1,0.2,0.2,0.4,0.2c0.2,0.1,0.4,0.1,0.7,0.1c0.4,0,0.7-0.1,1-0.2C110.4,194.9,110.5,194.7,110.5,194.5z M109.6,190.9
	c0-0.2-0.1-0.3-0.2-0.4c-0.1-0.1-0.3-0.1-0.5-0.1c-0.2,0-0.3,0-0.4,0.1c-0.1,0.1-0.2,0.2-0.2,0.4c0,0.1,0,0.2,0,0.4
	c0,0.3,0,0.4,0.1,0.6c0,0.1,0.1,0.2,0.3,0.3c0.1,0.1,0.2,0.1,0.4,0.1c0.1,0,0.2,0,0.3-0.1c0.1,0,0.2-0.1,0.2-0.2
	c0-0.1,0.1-0.1,0.1-0.2c0-0.1,0-0.1,0-0.1c0-0.1,0-0.2,0-0.4C109.6,191.1,109.6,190.9,109.6,190.9z M109.9,190.3
	c0.3-0.3,0.6-0.4,0.9-0.4c0.2,0,0.3,0.1,0.4,0.2c0.1,0.1,0.1,0.2,0.1,0.3c0,0.1,0,0.2-0.1,0.2c-0.1,0.1-0.1,0.1-0.2,0.1
	c-0.2,0-0.3-0.1-0.3-0.3c0-0.1,0-0.1,0-0.2c0,0,0,0,0,0v0c-0.2,0-0.3,0.1-0.5,0.2c0,0-0.1,0-0.1,0.1c0,0,0,0,0,0
	c0,0,0.1,0.1,0.1,0.1c0,0,0.1,0.1,0.1,0.2c0,0.1,0.1,0.1,0.1,0.2c0,0.1,0,0.2,0,0.3c0,0.4-0.1,0.7-0.4,0.9c-0.3,0.3-0.7,0.4-1.1,0.4
	c-0.3,0-0.6-0.1-0.9-0.2c-0.1,0.1-0.1,0.2-0.1,0.3c0,0.2,0.1,0.4,0.2,0.5c0.1,0,0.1,0.1,0.2,0.1c0,0,0.3,0,0.6,0c0.5,0,0.8,0,1,0.1
	c0.4,0.1,0.7,0.2,0.9,0.4c0.2,0.2,0.3,0.5,0.3,0.9c0,0.4-0.2,0.7-0.7,0.9c-0.4,0.2-0.8,0.3-1.3,0.3c-0.5,0-0.9-0.1-1.3-0.3
	c-0.5-0.2-0.7-0.5-0.7-0.9c0-0.2,0.1-0.4,0.2-0.5c0.1-0.1,0.3-0.2,0.4-0.3l0.1-0.1c-0.2-0.2-0.3-0.4-0.3-0.7c0-0.3,0.1-0.5,0.3-0.7
	c-0.3-0.3-0.4-0.5-0.4-0.9c0-0.4,0.1-0.7,0.4-0.9c0.3-0.3,0.7-0.4,1.1-0.4C109.2,190,109.5,190.1,109.9,190.3L109.9,190.3z"/>
<path class="st39" d="M110.5,194.5c0-0.1,0-0.3-0.1-0.4c-0.1-0.1-0.2-0.2-0.4-0.2c-0.2,0-0.3-0.1-0.4-0.1c-0.1,0-0.3,0-0.5,0h-0.2
	c-0.4,0-0.6,0-0.7,0.1c-0.1,0.1-0.2,0.1-0.3,0.2c-0.1,0.1-0.1,0.2-0.1,0.4c0,0.1,0,0.1,0.1,0.2c0,0.1,0.1,0.2,0.2,0.3
	c0.1,0.1,0.2,0.2,0.4,0.2c0.2,0.1,0.4,0.1,0.7,0.1c0.4,0,0.7-0.1,1-0.2C110.4,194.9,110.5,194.7,110.5,194.5z M109.6,190.9
	c0-0.2-0.1-0.3-0.2-0.4c-0.1-0.1-0.3-0.1-0.5-0.1c-0.2,0-0.3,0-0.4,0.1c-0.1,0.1-0.2,0.2-0.2,0.4c0,0.1,0,0.2,0,0.4
	c0,0.3,0,0.4,0.1,0.6s0.1,0.2,0.3,0.3c0.1,0.1,0.2,0.1,0.4,0.1c0.1,0,0.2,0,0.3-0.1c0.1,0,0.2-0.1,0.2-0.2c0-0.1,0.1-0.1,0.1-0.2
	c0-0.1,0-0.1,0-0.1c0-0.1,0-0.2,0-0.4C109.6,191.1,109.6,190.9,109.6,190.9z M109.9,190.3c0.3-0.3,0.6-0.4,0.9-0.4
	c0.2,0,0.3,0.1,0.4,0.2c0.1,0.1,0.1,0.2,0.1,0.3c0,0.1,0,0.2-0.1,0.2s-0.1,0.1-0.2,0.1c-0.2,0-0.3-0.1-0.3-0.3c0-0.1,0-0.1,0-0.2
	c0,0,0,0,0,0v0c-0.2,0-0.3,0.1-0.5,0.2c0,0-0.1,0-0.1,0.1c0,0,0,0,0,0c0,0,0.1,0.1,0.1,0.1c0,0,0.1,0.1,0.1,0.2
	c0,0.1,0.1,0.1,0.1,0.2c0,0.1,0,0.2,0,0.3c0,0.4-0.1,0.7-0.4,0.9c-0.3,0.3-0.7,0.4-1.1,0.4c-0.3,0-0.6-0.1-0.9-0.2
	c-0.1,0.1-0.1,0.2-0.1,0.3c0,0.2,0.1,0.4,0.2,0.5c0.1,0,0.1,0.1,0.2,0.1c0,0,0.3,0,0.6,0c0.5,0,0.8,0,1,0.1c0.4,0.1,0.7,0.2,0.9,0.4
	c0.2,0.2,0.3,0.5,0.3,0.9c0,0.4-0.2,0.7-0.7,0.9c-0.4,0.2-0.8,0.3-1.3,0.3c-0.5,0-0.9-0.1-1.3-0.3c-0.5-0.2-0.7-0.5-0.7-0.9
	c0-0.2,0.1-0.4,0.2-0.5c0.1-0.1,0.3-0.2,0.4-0.3l0.1-0.1c-0.2-0.2-0.3-0.4-0.3-0.7c0-0.3,0.1-0.5,0.3-0.7c-0.3-0.3-0.4-0.5-0.4-0.9
	c0-0.4,0.1-0.7,0.4-0.9s0.7-0.4,1.1-0.4C109.2,190,109.5,190.1,109.9,190.3L109.9,190.3z"/>
<path d="M114,193.5h0.1c0.2,0,0.4,0,0.4-0.1v-0.1c0-0.1,0-0.1,0-0.2c0-0.1,0-0.2,0-0.3c0-0.1,0-0.2,0-0.3c0-0.1,0-0.3,0-0.4
	c0-0.2,0-0.4,0-0.6c0-0.2,0-0.4,0-0.5v-0.2c0-0.1-0.1-0.2-0.1-0.2c-0.1,0-0.2-0.1-0.4-0.1h-0.2v-0.2c0-0.1,0-0.2,0-0.2l0.1,0
	c0.1,0,0.1,0,0.3,0c0.1,0,0.2,0,0.3,0c0.1,0,0.2,0,0.3,0c0.1,0,0.2,0,0.3,0c0.1,0,0.1,0,0.1,0h0v0.4c0,0.2,0,0.3,0,0.3c0,0,0,0,0,0
	c0,0,0.1-0.1,0.1-0.1c0-0.1,0.1-0.1,0.2-0.2c0.1,0,0.2-0.1,0.3-0.2c0.1-0.1,0.2-0.1,0.3-0.1c0.1,0,0.3,0,0.5,0c0.1,0,0.2,0,0.3,0
	c0.1,0,0.1,0,0.2,0.1c0.1,0,0.1,0,0.2,0.1c0.1,0,0.1,0,0.1,0.1c0,0,0.1,0.1,0.1,0.1c0,0,0.1,0.1,0.1,0.1c0,0,0,0.1,0.1,0.1
	c0,0,0,0.1,0,0.1c0,0,0,0,0,0.1l0,0l0,0c0,0,0,0,0.1-0.1c0,0,0-0.1,0.1-0.1c0,0,0.1-0.1,0.1-0.1c0,0,0.1-0.1,0.1-0.1
	c0,0,0.1-0.1,0.2-0.1c0.1,0,0.1-0.1,0.2-0.1c0.1,0,0.1,0,0.2-0.1c0.1,0,0.2,0,0.3,0c0.8,0,1.2,0.3,1.2,1c0,0,0,0.4,0,1.2v0.8
	c0,0.2,0,0.4,0,0.4c0,0,0,0.1,0.1,0.1c0.1,0,0.3,0,0.4,0h0.1v0.4h-0.1l-0.2,0c-0.1,0-0.3,0-0.5,0c-0.2,0-0.3,0-0.3,0
	c-0.6,0-0.9,0-1,0h-0.1v-0.4h0.1c0.4,0,0.5,0,0.5-0.1c0,0,0-0.4,0-1.2c0-0.8,0-1.2,0-1.3c0-0.2-0.1-0.3-0.2-0.4
	c-0.1-0.1-0.2-0.1-0.2-0.1c-0.1,0-0.1,0-0.2,0c-0.3,0-0.5,0.1-0.7,0.3c-0.2,0.2-0.3,0.3-0.3,0.5c0,0.2-0.1,0.4-0.1,0.7v0.6v0.5
	c0,0.2,0,0.3,0,0.4c0,0.1,0,0.1,0,0.1c0,0,0,0,0.1,0.1c0.1,0,0.3,0,0.4,0h0.1v0.4h-0.1l-0.2,0c-0.1,0-0.3,0-0.4,0
	c-0.2,0-0.3,0-0.3,0c-0.6,0-0.9,0-1,0h-0.1v-0.4h0.1c0.4,0,0.5,0,0.5-0.1c0,0,0-0.4,0-1.2c0-0.8,0-1.2,0-1.3c0-0.2-0.1-0.3-0.2-0.4
	c-0.1-0.1-0.2-0.1-0.2-0.1c-0.1,0-0.1,0-0.2,0c-0.3,0-0.5,0.1-0.7,0.3c-0.2,0.2-0.3,0.3-0.3,0.5c0,0.2-0.1,0.4-0.1,0.7v0.6v0.5
	c0,0.2,0,0.3,0,0.4c0,0.1,0,0.1,0,0.1c0,0,0,0,0.1,0.1c0.1,0,0.3,0,0.4,0h0.1v0.4h-0.1l-0.2,0c-0.1,0-0.3,0-0.5,0
	c-0.2,0-0.3,0-0.3,0c-0.6,0-0.9,0-1,0h-0.1v-0.4H114z"/>
<path class="st39" d="M114,193.5h0.1c0.2,0,0.4,0,0.4-0.1v-0.1c0-0.1,0-0.1,0-0.2c0-0.1,0-0.2,0-0.3c0-0.1,0-0.2,0-0.3
	c0-0.1,0-0.3,0-0.4c0-0.2,0-0.4,0-0.6c0-0.2,0-0.4,0-0.5v-0.2c0-0.1-0.1-0.2-0.1-0.2c-0.1,0-0.2-0.1-0.4-0.1h-0.2v-0.2
	c0-0.1,0-0.2,0-0.2l0.1,0c0.1,0,0.1,0,0.3,0c0.1,0,0.2,0,0.3,0c0.1,0,0.2,0,0.3,0c0.1,0,0.2,0,0.3,0c0.1,0,0.1,0,0.1,0h0v0.4
	c0,0.2,0,0.3,0,0.3s0,0,0,0c0,0,0.1-0.1,0.1-0.1c0-0.1,0.1-0.1,0.2-0.2c0.1,0,0.2-0.1,0.3-0.2c0.1-0.1,0.2-0.1,0.3-0.1
	c0.1,0,0.3,0,0.5,0c0.1,0,0.2,0,0.3,0c0.1,0,0.1,0,0.2,0.1c0.1,0,0.1,0,0.2,0.1c0.1,0,0.1,0,0.1,0.1c0,0,0.1,0.1,0.1,0.1
	c0,0,0.1,0.1,0.1,0.1c0,0,0,0.1,0.1,0.1c0,0,0,0.1,0,0.1c0,0,0,0,0,0.1l0,0l0,0c0,0,0,0,0.1-0.1c0,0,0-0.1,0.1-0.1
	c0,0,0.1-0.1,0.1-0.1c0,0,0.1-0.1,0.1-0.1c0,0,0.1-0.1,0.2-0.1c0.1,0,0.1-0.1,0.2-0.1c0.1,0,0.1,0,0.2-0.1s0.2,0,0.3,0
	c0.8,0,1.2,0.3,1.2,1c0,0,0,0.4,0,1.2v0.8c0,0.2,0,0.4,0,0.4c0,0,0,0.1,0.1,0.1c0.1,0,0.3,0,0.4,0h0.1v0.4h-0.1l-0.2,0
	c-0.1,0-0.3,0-0.5,0c-0.2,0-0.3,0-0.3,0c-0.6,0-0.9,0-1,0h-0.1v-0.4h0.1c0.4,0,0.5,0,0.5-0.1c0,0,0-0.4,0-1.2c0-0.8,0-1.2,0-1.3
	c0-0.2-0.1-0.3-0.2-0.4c-0.1-0.1-0.2-0.1-0.2-0.1c-0.1,0-0.1,0-0.2,0c-0.3,0-0.5,0.1-0.7,0.3c-0.2,0.2-0.3,0.3-0.3,0.5
	c0,0.2-0.1,0.4-0.1,0.7v0.6v0.5c0,0.2,0,0.3,0,0.4c0,0.1,0,0.1,0,0.1c0,0,0,0,0.1,0.1c0.1,0,0.3,0,0.4,0h0.1v0.4h-0.1l-0.2,0
	c-0.1,0-0.3,0-0.4,0c-0.2,0-0.3,0-0.3,0c-0.6,0-0.9,0-1,0h-0.1v-0.4h0.1c0.4,0,0.5,0,0.5-0.1c0,0,0-0.4,0-1.2c0-0.8,0-1.2,0-1.3
	c0-0.2-0.1-0.3-0.2-0.4c-0.1-0.1-0.2-0.1-0.2-0.1c-0.1,0-0.1,0-0.2,0c-0.3,0-0.5,0.1-0.7,0.3c-0.2,0.2-0.3,0.3-0.3,0.5
	c0,0.2-0.1,0.4-0.1,0.7v0.6v0.5c0,0.2,0,0.3,0,0.4c0,0.1,0,0.1,0,0.1c0,0,0,0,0.1,0.1c0.1,0,0.3,0,0.4,0h0.1v0.4h-0.1l-0.2,0
	c-0.1,0-0.3,0-0.5,0c-0.2,0-0.3,0-0.3,0c-0.6,0-0.9,0-1,0h-0.1v-0.4H114z"/>
<path d="M123.3,193.9c-0.1,0-0.4,0-0.9,0c-0.1,0-0.2,0-0.3,0c-0.2,0-0.3,0-0.4,0l-0.2,0h-0.1v-0.4h0.1c0.2,0,0.3,0,0.4,0
	c0.1,0,0.1-0.1,0.1-0.1c0,0,0-0.2,0-0.4v-0.9v-0.8c0-0.3,0-0.5,0-0.6c0-0.1-0.1-0.1-0.1-0.2c-0.1,0-0.2-0.1-0.4-0.1h-0.1v-0.2
	c0-0.1,0-0.2,0-0.2l0.1,0c0.1,0,0.1,0,0.3,0c0.1,0,0.2,0,0.3,0c0.1,0,0.2,0,0.3,0c0.1,0,0.2,0,0.3,0c0.1,0,0.1,0,0.1,0h0v3.3
	c0,0.1,0.1,0.1,0.1,0.1s0.1,0,0.3,0h0.2L123.3,193.9L123.3,193.9z M121.7,188.5c0-0.2,0.1-0.3,0.2-0.4c0.1-0.1,0.2-0.1,0.4-0.1
	c0.1,0,0.3,0.1,0.4,0.1c0.1,0.1,0.2,0.2,0.2,0.4c0,0.2-0.1,0.3-0.2,0.4c-0.1,0.1-0.2,0.1-0.4,0.1s-0.3,0-0.4-0.1
	C121.7,188.8,121.7,188.7,121.7,188.5z"/>
<path class="st39" d="M123.3,193.9c-0.1,0-0.4,0-0.9,0c-0.1,0-0.2,0-0.3,0s-0.3,0-0.4,0l-0.2,0h-0.1v-0.4h0.1c0.2,0,0.3,0,0.4,0
	c0.1,0,0.1-0.1,0.1-0.1c0,0,0-0.2,0-0.4v-0.9v-0.8c0-0.3,0-0.5,0-0.6c0-0.1-0.1-0.1-0.1-0.2c-0.1,0-0.2-0.1-0.4-0.1h-0.1v-0.2
	c0-0.1,0-0.2,0-0.2l0.1,0c0.1,0,0.1,0,0.3,0c0.1,0,0.2,0,0.3,0c0.1,0,0.2,0,0.3,0c0.1,0,0.2,0,0.3,0c0.1,0,0.1,0,0.1,0h0v3.3
	c0,0.1,0.1,0.1,0.1,0.1c0,0,0.1,0,0.3,0h0.2L123.3,193.9L123.3,193.9z M121.7,188.5c0-0.2,0.1-0.3,0.2-0.4c0.1-0.1,0.2-0.1,0.4-0.1
	c0.1,0,0.3,0.1,0.4,0.1c0.1,0.1,0.2,0.2,0.2,0.4c0,0.2-0.1,0.3-0.2,0.4c-0.1,0.1-0.2,0.1-0.4,0.1s-0.3,0-0.4-0.1
	C121.7,188.8,121.7,188.7,121.7,188.5z"/>
<path d="M123.9,193.5h0.1c0.2,0,0.4,0,0.4-0.1v-0.1c0-0.1,0-0.1,0-0.2c0-0.1,0-0.2,0-0.3c0-0.1,0-0.2,0-0.3c0-0.1,0-0.3,0-0.4
	c0-0.2,0-0.4,0-0.6c0-0.2,0-0.4,0-0.5v-0.2c0-0.1-0.1-0.2-0.1-0.2c-0.1,0-0.2-0.1-0.4-0.1h-0.2v-0.2c0-0.1,0-0.2,0-0.2l0.1,0
	c0.1,0,0.1,0,0.3,0c0.1,0,0.2,0,0.3,0c0.1,0,0.2,0,0.3,0c0.1,0,0.2,0,0.3,0c0.1,0,0.1,0,0.1,0h0v0.4c0,0.2,0,0.3,0,0.3c0,0,0,0,0,0
	c0,0,0.1-0.1,0.1-0.1s0.1-0.1,0.2-0.2c0.1,0,0.2-0.1,0.3-0.2c0.1-0.1,0.2-0.1,0.3-0.1c0.1,0,0.3,0,0.5,0c0.7,0,1.1,0.4,1.1,1
	c0,0,0,0.4,0,1.2v0.8c0,0.2,0,0.4,0,0.4c0,0,0,0.1,0.1,0.1c0.1,0,0.3,0,0.4,0h0.1v0.4h-0.1l-0.2,0c-0.1,0-0.3,0-0.4,0
	c-0.2,0-0.3,0-0.3,0c-0.6,0-0.9,0-1,0h-0.1v-0.4h0.1c0.4,0,0.5,0,0.5-0.1c0,0,0-0.4,0-1.2c0-0.8,0-1.2,0-1.3c0-0.2-0.1-0.3-0.2-0.4
	c-0.1-0.1-0.2-0.1-0.2-0.1c-0.1,0-0.1,0-0.2,0c-0.3,0-0.5,0.1-0.7,0.3c-0.2,0.2-0.3,0.3-0.3,0.5s-0.1,0.4-0.1,0.7v0.6v0.5
	c0,0.2,0,0.3,0,0.4c0,0.1,0,0.1,0,0.1c0,0,0,0,0.1,0.1c0.1,0,0.3,0,0.4,0h0.1v0.4h-0.1l-0.2,0c-0.1,0-0.3,0-0.5,0
	c-0.2,0-0.3,0-0.3,0c-0.6,0-0.9,0-1,0h-0.1v-0.4H123.9z"/>
<path class="st39" d="M123.9,193.5h0.1c0.2,0,0.4,0,0.4-0.1v-0.1c0-0.1,0-0.1,0-0.2c0-0.1,0-0.2,0-0.3c0-0.1,0-0.2,0-0.3
	c0-0.1,0-0.3,0-0.4c0-0.2,0-0.4,0-0.6c0-0.2,0-0.4,0-0.5v-0.2c0-0.1-0.1-0.2-0.1-0.2c-0.1,0-0.2-0.1-0.4-0.1h-0.2v-0.2
	c0-0.1,0-0.2,0-0.2l0.1,0c0.1,0,0.1,0,0.3,0c0.1,0,0.2,0,0.3,0c0.1,0,0.2,0,0.3,0c0.1,0,0.2,0,0.3,0c0.1,0,0.1,0,0.1,0h0v0.4
	c0,0.2,0,0.3,0,0.3c0,0,0,0,0,0c0,0,0.1-0.1,0.1-0.1c0-0.1,0.1-0.1,0.2-0.2c0.1,0,0.2-0.1,0.3-0.2c0.1-0.1,0.2-0.1,0.3-0.1
	c0.1,0,0.3,0,0.5,0c0.7,0,1.1,0.4,1.1,1c0,0,0,0.4,0,1.2v0.8c0,0.2,0,0.4,0,0.4c0,0,0,0.1,0.1,0.1c0.1,0,0.3,0,0.4,0h0.1v0.4h-0.1
	l-0.2,0c-0.1,0-0.3,0-0.4,0c-0.2,0-0.3,0-0.3,0c-0.6,0-0.9,0-1,0h-0.1v-0.4h0.1c0.4,0,0.5,0,0.5-0.1c0,0,0-0.4,0-1.2
	c0-0.8,0-1.2,0-1.3c0-0.2-0.1-0.3-0.2-0.4c-0.1-0.1-0.2-0.1-0.2-0.1c-0.1,0-0.1,0-0.2,0c-0.3,0-0.5,0.1-0.7,0.3
	c-0.2,0.2-0.3,0.3-0.3,0.5c0,0.2-0.1,0.4-0.1,0.7v0.6v0.5c0,0.2,0,0.3,0,0.4c0,0.1,0,0.1,0,0.1c0,0,0,0,0.1,0.1c0.1,0,0.3,0,0.4,0
	h0.1v0.4h-0.1l-0.2,0c-0.1,0-0.3,0-0.5,0c-0.2,0-0.3,0-0.3,0c-0.6,0-0.9,0-1,0h-0.1v-0.4H123.9z"/>
<path d="M115.2,197.3c0.2,0,0.3,0,0.5,0.1l0,0c0,0,0,0,0,0c0,0,0,0,0.1-0.1s0.1-0.1,0.1-0.1c0,0,0-0.1,0.1-0.1c0,0,0.1-0.1,0.1-0.2
	c0-0.1,0-0.1,0.1-0.2c0-0.1,0-0.1,0.1-0.2c0,0,0-0.1,0-0.2c0-0.1,0-0.1,0-0.1c-0.1-0.2-0.2-0.3-0.5-0.3c-0.2,0-0.3,0.1-0.5,0.2
	s-0.3,0.2-0.4,0.4c-0.1,0.2-0.2,0.3-0.3,0.4c-0.1,0.1-0.1,0.3-0.1,0.4c0,0.1-0.1,0.4-0.2,0.9c-0.1,0.6-0.2,0.8-0.2,0.9
	c0,0,0,0.1,0,0.1c0,0.2,0,0.4,0.1,0.5c0.1,0.2,0.3,0.3,0.6,0.3c0.2,0,0.4-0.1,0.6-0.2c0.2-0.1,0.4-0.3,0.5-0.5
	c0.1-0.1,0.1-0.3,0.2-0.5c0-0.2,0.1-0.3,0.1-0.4c0-0.2-0.1-0.4-0.2-0.6c-0.2,0.1-0.3,0.1-0.5,0.1h-0.1c-0.3,0-0.5-0.1-0.5-0.2
	c0,0,0-0.1,0-0.1C114.6,197.4,114.8,197.3,115.2,197.3z M113.1,201.3C113.1,201.2,113,201.2,113.1,201.3c0-0.1,0.1-0.7,0.5-2.1
	c0.3-1.3,0.5-2,0.5-2.1c0.1-0.3,0.2-0.5,0.4-0.8c0.2-0.2,0.3-0.4,0.4-0.5c0.2-0.2,0.5-0.3,0.8-0.3h0c0.3,0,0.5,0.1,0.7,0.2
	c0.2,0.2,0.3,0.4,0.3,0.6c0,0.4-0.2,0.8-0.7,1.1l0.1,0.1c0.2,0.2,0.3,0.5,0.3,0.8c0,0.5-0.2,0.9-0.5,1.2c-0.4,0.3-0.8,0.5-1.2,0.5
	c-0.1,0-0.2,0-0.3-0.1c-0.1,0-0.2-0.1-0.2-0.1c-0.1,0-0.1-0.1-0.1-0.1c0-0.1-0.1-0.1-0.1-0.1c0,0,0,0,0,0l-0.4,1.6
	C113.3,201.2,113.2,201.3,113.1,201.3L113.1,201.3z"/>
<path class="st40" d="M115.2,197.3c0.2,0,0.3,0,0.5,0.1l0,0c0,0,0,0,0,0c0,0,0,0,0.1-0.1c0,0,0.1-0.1,0.1-0.1c0,0,0-0.1,0.1-0.1
	c0,0,0.1-0.1,0.1-0.2c0-0.1,0-0.1,0.1-0.2c0-0.1,0-0.1,0.1-0.2c0,0,0-0.1,0-0.2c0-0.1,0-0.1,0-0.1c-0.1-0.2-0.2-0.3-0.5-0.3
	c-0.2,0-0.3,0.1-0.5,0.2c-0.2,0.1-0.3,0.2-0.4,0.4c-0.1,0.2-0.2,0.3-0.3,0.4c-0.1,0.1-0.1,0.3-0.1,0.4c0,0.1-0.1,0.4-0.2,0.9
	s-0.2,0.8-0.2,0.9c0,0,0,0.1,0,0.1c0,0.2,0,0.4,0.1,0.5c0.1,0.2,0.3,0.3,0.6,0.3c0.2,0,0.4-0.1,0.6-0.2c0.2-0.1,0.4-0.3,0.5-0.5
	c0.1-0.1,0.1-0.3,0.2-0.5c0-0.2,0.1-0.3,0.1-0.4c0-0.2-0.1-0.4-0.2-0.6c-0.2,0.1-0.3,0.1-0.5,0.1h-0.1c-0.3,0-0.5-0.1-0.5-0.2
	c0,0,0-0.1,0-0.1C114.6,197.4,114.8,197.3,115.2,197.3z M113.1,201.3C113.1,201.2,113,201.2,113.1,201.3c0-0.1,0.1-0.7,0.5-2.1
	c0.3-1.3,0.5-2,0.5-2.1c0.1-0.3,0.2-0.5,0.4-0.8c0.2-0.2,0.3-0.4,0.4-0.5c0.2-0.2,0.5-0.3,0.8-0.3h0c0.3,0,0.5,0.1,0.7,0.2
	c0.2,0.2,0.3,0.4,0.3,0.6c0,0.4-0.2,0.8-0.7,1.1l0.1,0.1c0.2,0.2,0.3,0.5,0.3,0.8c0,0.5-0.2,0.9-0.5,1.2c-0.4,0.3-0.8,0.5-1.2,0.5
	c-0.1,0-0.2,0-0.3-0.1c-0.1,0-0.2-0.1-0.2-0.1c-0.1,0-0.1-0.1-0.1-0.1c0-0.1-0.1-0.1-0.1-0.1c0,0,0,0,0,0l-0.4,1.6
	C113.3,201.2,113.2,201.3,113.1,201.3L113.1,201.3z"/>
<path d="M117.1,198.5c0-0.5,0.2-0.9,0.5-1.3c0.4-0.3,0.8-0.5,1.2-0.6c0,0,0,0,0.1,0c0.1,0,0.2,0,0.3,0c0.1,0,0.2,0,0.3,0h0.6
	c0.1,0,0.1,0.1,0.1,0.1c0,0,0,0.1-0.1,0.1l-0.7,0c-0.5,0-0.8,0-0.9,0c-0.2,0.1-0.4,0.1-0.6,0.2c-0.2,0.1-0.3,0.2-0.4,0.3
	c-0.1,0.1-0.2,0.2-0.2,0.3c-0.1,0.1-0.1,0.2-0.1,0.3c0,0.1,0,0.1,0,0.2v0h2.9c0.1,0,0.1,0.1,0.1,0.1c0,0.1,0,0.1-0.1,0.1h-2.9v0
	c0,0.1,0,0.2,0.1,0.3c0,0.1,0.1,0.3,0.2,0.4c0.1,0.1,0.2,0.3,0.4,0.4c0.2,0.1,0.4,0.2,0.6,0.3c0.1,0,0.4,0,0.9,0h0.7
	c0.1,0,0.1,0.1,0.1,0.1c0,0.1,0,0.1-0.1,0.1h-0.6c0,0-0.1,0-0.2,0c-0.1,0-0.1,0-0.2,0c-0.7,0-1.2-0.2-1.6-0.5
	C117.3,199.4,117.1,199,117.1,198.5z"/>
<path class="st40" d="M117.1,198.5c0-0.5,0.2-0.9,0.5-1.3c0.4-0.3,0.8-0.5,1.2-0.6c0,0,0,0,0.1,0c0.1,0,0.2,0,0.3,0
	c0.1,0,0.2,0,0.3,0h0.6c0.1,0,0.1,0.1,0.1,0.1c0,0,0,0.1-0.1,0.1l-0.7,0c-0.5,0-0.8,0-0.9,0c-0.2,0.1-0.4,0.1-0.6,0.2
	c-0.2,0.1-0.3,0.2-0.4,0.3c-0.1,0.1-0.2,0.2-0.2,0.3c-0.1,0.1-0.1,0.2-0.1,0.3c0,0.1,0,0.1,0,0.2v0h2.9c0.1,0,0.1,0.1,0.1,0.1
	s0,0.1-0.1,0.1h-2.9v0c0,0.1,0,0.2,0.1,0.3c0,0.1,0.1,0.3,0.2,0.4c0.1,0.1,0.2,0.3,0.4,0.4c0.2,0.1,0.4,0.2,0.6,0.3
	c0.1,0,0.4,0,0.9,0h0.7c0.1,0,0.1,0.1,0.1,0.1c0,0.1,0,0.1-0.1,0.1h-0.6c0,0-0.1,0-0.2,0c-0.1,0-0.1,0-0.2,0c-0.7,0-1.2-0.2-1.6-0.5
	C117.3,199.4,117.1,199,117.1,198.5z"/>
<path d="M123.8,198.5c-0.2-0.3-0.3-0.5-0.3-0.5c0,0,0,0-0.1,0c-0.1,0-0.1,0-0.2,0h-0.2l1.2,1.7h0.6l-0.1-0.1
	C124.5,199.5,124.2,199.1,123.8,198.5z M124,196.6c0,0,0,0.1,0,0.3s0,0.3,0,0.4c0,0.1,0,0.2-0.1,0.2c0,0,0,0.1-0.1,0.1
	c0,0,0,0.1,0,0.1c0,0,0,0,0,0c0,0,0.1,0,0.2-0.1c0.4-0.1,0.6-0.4,0.6-0.8c0-0.4-0.2-0.7-0.7-0.9l-0.1,0l0,0.1
	c0.1,0.1,0.1,0.2,0.2,0.4c0,0.1,0,0.2,0,0.4V196.6z M123.8,196.9c0-0.2,0-0.3-0.1-0.5c0-0.1-0.1-0.2-0.2-0.3
	c-0.1-0.1-0.1-0.1-0.2-0.1c0,0-0.1,0-0.1-0.1c0,0-0.1,0-0.2,0c-0.2,0-0.3,0-0.4,0.1c0,0-0.1,0.1-0.1,0.2c0,0.1,0,0.3,0,0.8v0.9h0.1
	c0.2,0,0.4,0,0.6,0c0.2-0.1,0.3-0.1,0.4-0.3C123.7,197.4,123.8,197.2,123.8,196.9z M122.4,199.8
	C122.4,199.8,122.4,199.8,122.4,199.8c0-0.1,0-0.1,0-0.3c0-0.1,0-0.3,0-0.5c0-0.2,0-0.6,0-1.1v-1.8l0-0.1l0-0.1h-0.7
	c0,0,0,0.1,0,0.1c0,0,0,0.1,0,0.2c0,0.1,0,0.3,0,0.5c0,0.2,0,0.6,0,1.1c0,0.9,0,1.4,0,1.6s0,0.3,0,0.3c0,0,0,0,0,0H122.4z
	 M120.9,195.8c0,0,0-0.1,0.1-0.1h1.2c0.8,0,1.3,0,1.4,0c0.1,0,0.2,0,0.3,0.1c0.1,0,0.2,0.1,0.2,0.1c0.1,0,0.1,0.1,0.2,0.1
	c0.1,0,0.1,0.1,0.1,0.1c0,0,0.1,0.1,0.1,0.1c0,0,0.1,0.1,0.1,0.1c0,0,0,0.1,0.1,0.1c0,0,0,0.1,0,0.1c0,0,0,0,0,0.1l0,0
	c0,0.1,0,0.2,0,0.3c0,0.2,0,0.4-0.1,0.5c-0.2,0.3-0.5,0.5-0.9,0.6l-0.1,0c0,0,0.1,0.1,0.1,0.2c0,0.1,0.1,0.2,0.3,0.4
	c0.1,0.2,0.3,0.4,0.4,0.5c0.1,0.2,0.2,0.3,0.4,0.4c0.1,0.1,0.2,0.2,0.3,0.2c0.1,0,0.1,0.1,0.1,0.1c0,0,0,0.1-0.1,0.1h-1.2
	c0,0-0.3-0.4-0.7-1l-0.6-1h-0.2v0.8c0,0.5,0,0.7,0,0.8c0,0.1,0.1,0.1,0.1,0.1c0,0,0.1,0,0.2,0c0.1,0,0.2,0,0.2,0c0,0,0,0.1,0,0.2
	l0,0h-2c-0.1,0-0.1-0.1-0.1-0.1c0-0.1,0.1-0.1,0.3-0.1c0.2,0,0.3,0,0.3-0.1c0,0,0-0.6,0-1.8c0-1.2,0-1.8,0-1.8
	c0-0.1-0.1-0.1-0.3-0.1C121,195.9,120.9,195.9,120.9,195.8z"/>
<path class="st40" d="M123.8,198.5c-0.2-0.3-0.3-0.5-0.3-0.5c0,0,0,0-0.1,0c-0.1,0-0.1,0-0.2,0h-0.2l1.2,1.7h0.6l-0.1-0.1
	C124.5,199.5,124.2,199.1,123.8,198.5z M124,196.6c0,0,0,0.1,0,0.3c0,0.2,0,0.3,0,0.4c0,0.1,0,0.2-0.1,0.2c0,0,0,0.1-0.1,0.1
	c0,0,0,0.1,0,0.1c0,0,0,0,0,0c0,0,0.1,0,0.2-0.1c0.4-0.1,0.6-0.4,0.6-0.8c0-0.4-0.2-0.7-0.7-0.9l-0.1,0l0,0.1
	c0.1,0.1,0.1,0.2,0.2,0.4c0,0.1,0,0.2,0,0.4V196.6z M123.8,196.9c0-0.2,0-0.3-0.1-0.5c0-0.1-0.1-0.2-0.2-0.3
	c-0.1-0.1-0.1-0.1-0.2-0.1c0,0-0.1,0-0.1-0.1c0,0-0.1,0-0.2,0c-0.2,0-0.3,0-0.4,0.1c0,0-0.1,0.1-0.1,0.2c0,0.1,0,0.3,0,0.8v0.9h0.1
	c0.2,0,0.4,0,0.6,0c0.2-0.1,0.3-0.1,0.4-0.3C123.7,197.4,123.8,197.2,123.8,196.9z M122.4,199.8
	C122.4,199.8,122.4,199.8,122.4,199.8c0-0.1,0-0.1,0-0.3c0-0.1,0-0.3,0-0.5c0-0.2,0-0.6,0-1.1v-1.8l0-0.1l0-0.1h-0.7
	c0,0,0,0.1,0,0.1c0,0,0,0.1,0,0.2c0,0.1,0,0.3,0,0.5c0,0.2,0,0.6,0,1.1c0,0.9,0,1.4,0,1.6s0,0.3,0,0.3c0,0,0,0,0,0H122.4z
	 M120.9,195.8c0,0,0-0.1,0.1-0.1h1.2c0.8,0,1.3,0,1.4,0c0.1,0,0.2,0,0.3,0.1c0.1,0,0.2,0.1,0.2,0.1c0.1,0,0.1,0.1,0.2,0.1
	c0.1,0,0.1,0.1,0.1,0.1c0,0,0.1,0.1,0.1,0.1c0,0,0.1,0.1,0.1,0.1c0,0,0,0.1,0.1,0.1c0,0,0,0.1,0,0.1c0,0,0,0,0,0.1l0,0
	c0,0.1,0,0.2,0,0.3c0,0.2,0,0.4-0.1,0.5c-0.2,0.3-0.5,0.5-0.9,0.6l-0.1,0c0,0,0.1,0.1,0.1,0.2c0,0.1,0.1,0.2,0.3,0.4
	c0.1,0.2,0.3,0.4,0.4,0.5c0.1,0.2,0.2,0.3,0.4,0.4c0.1,0.1,0.2,0.2,0.3,0.2c0.1,0,0.1,0.1,0.1,0.1c0,0,0,0.1-0.1,0.1h-1.2
	c0,0-0.3-0.4-0.7-1l-0.6-1h-0.2v0.8c0,0.5,0,0.7,0,0.8c0,0.1,0.1,0.1,0.1,0.1c0,0,0.1,0,0.2,0c0.1,0,0.2,0,0.2,0c0,0,0,0.1,0,0.2
	l0,0h-2c-0.1,0-0.1-0.1-0.1-0.1c0-0.1,0.1-0.1,0.3-0.1c0.2,0,0.3,0,0.3-0.1c0,0,0-0.6,0-1.8c0-1.2,0-1.8,0-1.8
	c0-0.1-0.1-0.1-0.3-0.1C121,195.9,120.9,195.9,120.9,195.8z"/>
<path d="M126.8,197.5c0.1,0.3,0.3,0.5,0.5,0.5c0.1,0,0.3,0,0.4-0.1c0.1-0.1,0.2-0.2,0.3-0.4c0.1-0.1,0.2-0.4,0.2-0.7
	c0.1-0.3,0.1-0.5,0.1-0.7v0c0-0.3-0.1-0.5-0.4-0.5c0,0-0.1,0-0.1,0c0,0-0.1,0-0.1,0.1c0,0-0.1,0.1-0.1,0.1c0,0-0.1,0.1-0.1,0.1
	c0,0-0.1,0.1-0.1,0.1c0,0-0.1,0.1-0.1,0.1c0,0,0,0.1-0.1,0.1l0,0c0,0,0,0,0,0.1c0,0.1,0,0.1-0.1,0.3c0,0.1-0.1,0.2-0.1,0.3
	C126.9,197.2,126.8,197.5,126.8,197.5z M125.8,196.3C125.8,196.3,125.8,196.3,125.8,196.3c0-0.1,0-0.1,0-0.2c0-0.1,0-0.1,0.1-0.2
	c0-0.1,0.1-0.1,0.1-0.2c0-0.1,0.1-0.1,0.1-0.2c0,0,0.1-0.1,0.2-0.1c0.1,0,0.1-0.1,0.2-0.1c0.3,0,0.5,0.1,0.6,0.4l0.1-0.1
	c0.3-0.2,0.5-0.3,0.8-0.3c0.3,0,0.5,0.1,0.7,0.3c0.2,0.2,0.2,0.4,0.2,0.7c0,0.5-0.2,0.9-0.5,1.3c-0.3,0.4-0.7,0.6-1.1,0.6
	c-0.1,0-0.2,0-0.3,0c0,0-0.1-0.1-0.1-0.1c-0.1,0-0.1-0.1-0.1-0.1l0-0.1c0,0-0.1,0.2-0.1,0.5c-0.1,0.4-0.1,0.5-0.1,0.5c0,0,0,0,0.1,0
	c0,0,0.1,0,0.2,0h0.2c0,0,0,0,0,0.1c0,0,0,0,0,0.1c0,0.1,0,0.1,0,0.1c0,0,0,0-0.1,0c0,0,0,0-0.1,0c0,0-0.1,0-0.2,0
	c-0.1,0-0.2,0-0.4,0c-0.3,0-0.5,0-0.6,0h-0.1c0,0,0-0.1,0-0.1c0-0.1,0-0.2,0.1-0.2h0.1c0.1,0,0.2,0,0.3-0.1c0,0,0.1-0.5,0.4-1.5
	c0.2-1,0.4-1.5,0.4-1.6c0,0,0-0.1,0-0.1c0-0.2-0.1-0.3-0.2-0.3c-0.1,0-0.2,0.1-0.2,0.2c-0.1,0.1-0.1,0.2-0.1,0.4
	c0,0.1-0.1,0.2-0.1,0.2c0,0,0,0-0.1,0L125.8,196.3C125.9,196.3,125.8,196.3,125.8,196.3z"/>
<path class="st40" d="M126.8,197.5c0.1,0.3,0.3,0.5,0.5,0.5c0.1,0,0.3,0,0.4-0.1c0.1-0.1,0.2-0.2,0.3-0.4c0.1-0.1,0.2-0.4,0.2-0.7
	c0.1-0.3,0.1-0.5,0.1-0.7v0c0-0.3-0.1-0.5-0.4-0.5c0,0-0.1,0-0.1,0c0,0-0.1,0-0.1,0.1c0,0-0.1,0.1-0.1,0.1c0,0-0.1,0.1-0.1,0.1
	c0,0-0.1,0.1-0.1,0.1c0,0-0.1,0.1-0.1,0.1c0,0,0,0.1-0.1,0.1l0,0c0,0,0,0,0,0.1c0,0.1,0,0.1-0.1,0.3c0,0.1-0.1,0.2-0.1,0.3
	C126.9,197.2,126.8,197.5,126.8,197.5z M125.8,196.3C125.8,196.3,125.8,196.3,125.8,196.3c0-0.1,0-0.1,0-0.2c0-0.1,0-0.1,0.1-0.2
	c0-0.1,0.1-0.1,0.1-0.2c0-0.1,0.1-0.1,0.1-0.2c0,0,0.1-0.1,0.2-0.1c0.1,0,0.1-0.1,0.2-0.1c0.3,0,0.5,0.1,0.6,0.4l0.1-0.1
	c0.3-0.2,0.5-0.3,0.8-0.3c0.3,0,0.5,0.1,0.7,0.3s0.2,0.4,0.2,0.7c0,0.5-0.2,0.9-0.5,1.3c-0.3,0.4-0.7,0.6-1.1,0.6
	c-0.1,0-0.2,0-0.3,0c0,0-0.1-0.1-0.1-0.1c-0.1,0-0.1-0.1-0.1-0.1l0-0.1c0,0-0.1,0.2-0.1,0.5c-0.1,0.4-0.1,0.5-0.1,0.5c0,0,0,0,0.1,0
	c0,0,0.1,0,0.2,0h0.2c0,0,0,0,0,0.1c0,0,0,0,0,0.1c0,0.1,0,0.1,0,0.1c0,0,0,0-0.1,0c0,0,0,0-0.1,0c0,0-0.1,0-0.2,0
	c-0.1,0-0.2,0-0.4,0c-0.3,0-0.5,0-0.6,0h-0.1c0,0,0-0.1,0-0.1c0-0.1,0-0.2,0.1-0.2h0.1c0.1,0,0.2,0,0.3-0.1c0,0,0.1-0.5,0.4-1.5
	c0.2-1,0.4-1.5,0.4-1.6c0,0,0-0.1,0-0.1c0-0.2-0.1-0.3-0.2-0.3c-0.1,0-0.2,0.1-0.2,0.2c-0.1,0.1-0.1,0.2-0.1,0.4
	c0,0.1-0.1,0.2-0.1,0.2c0,0,0,0-0.1,0L125.8,196.3C125.9,196.3,125.8,196.3,125.8,196.3z"/>
<path d="M134.6,182.9l-0.1,0c-0.1,0-0.2,0.1-0.4,0.1c-0.2,0-0.3,0-0.5,0.1h-0.2v-0.4h0.2c0.3,0,0.5-0.1,0.8-0.1
	c0.2-0.1,0.4-0.1,0.5-0.2c0.1-0.1,0.2-0.1,0.3-0.2c0,0,0,0,0.1,0c0.1,0,0.1,0,0.2,0.1v2.6l0,2.6c0,0,0.1,0.1,0.1,0.1
	c0,0,0.1,0,0.2,0c0.1,0,0.3,0,0.6,0h0.2v0.4h-0.1c-0.1,0-0.6,0-1.4,0c-0.8,0-1.3,0-1.4,0h-0.1v-0.4h0.2c0.1,0,0.2,0,0.3,0
	c0.1,0,0.2,0,0.2,0c0.1,0,0.1,0,0.1,0c0,0,0.1,0,0.1,0c0,0,0,0,0.1,0c0,0,0,0,0.1,0V182.9z"/>
<path class="st39" d="M134.6,182.9l-0.1,0c-0.1,0-0.2,0.1-0.4,0.1c-0.2,0-0.3,0-0.5,0.1h-0.2v-0.4h0.2c0.3,0,0.5-0.1,0.8-0.1
	c0.2-0.1,0.4-0.1,0.5-0.2c0.1-0.1,0.2-0.1,0.3-0.2c0,0,0,0,0.1,0c0.1,0,0.1,0,0.2,0.1v2.6l0,2.6c0,0,0.1,0.1,0.1,0.1
	c0,0,0.1,0,0.2,0c0.1,0,0.3,0,0.6,0h0.2v0.4h-0.1c-0.1,0-0.6,0-1.4,0c-0.8,0-1.3,0-1.4,0h-0.1v-0.4h0.2c0.1,0,0.2,0,0.3,0
	c0.1,0,0.2,0,0.2,0c0.1,0,0.1,0,0.1,0c0,0,0.1,0,0.1,0s0,0,0.1,0c0,0,0,0,0.1,0V182.9z"/>
<path d="M133.7,196.1c-0.2,0-0.3-0.1-0.4-0.2c-0.1-0.1-0.1-0.2-0.1-0.4c0-0.4,0.2-0.8,0.5-1.1c0.3-0.3,0.7-0.5,1.2-0.5
	c0.5,0,1,0.2,1.4,0.5c0.4,0.3,0.5,0.8,0.6,1.3c0,0.3-0.1,0.5-0.2,0.7c-0.1,0.2-0.3,0.4-0.4,0.6c-0.2,0.2-0.4,0.4-0.7,0.6
	c-0.2,0.2-0.5,0.5-0.9,0.8l-0.5,0.5l0.7,0c0.9,0,1.4,0,1.5,0c0,0,0.1-0.3,0.2-0.8v0h0.4v0c0,0,0,0.3-0.1,0.8
	c-0.1,0.5-0.1,0.8-0.1,0.8v0h-3.3v-0.2v-0.1c0,0,0-0.1,0.1-0.1c0,0,0.1-0.1,0.3-0.3c0.2-0.2,0.3-0.4,0.4-0.5
	c0.1-0.1,0.2-0.2,0.3-0.3c0.1-0.2,0.3-0.3,0.3-0.3c0.1-0.1,0.1-0.2,0.3-0.3c0.1-0.1,0.2-0.2,0.3-0.3c0-0.1,0.1-0.2,0.2-0.3
	c0.1-0.1,0.2-0.2,0.2-0.3c0-0.1,0.1-0.2,0.1-0.3c0.1-0.1,0.1-0.2,0.1-0.3c0-0.1,0-0.2,0.1-0.3c0-0.1,0-0.2,0-0.3
	c0-0.4-0.1-0.7-0.3-1c-0.2-0.3-0.5-0.4-0.9-0.4c-0.2,0-0.4,0-0.5,0.1c-0.1,0.1-0.3,0.2-0.3,0.3c-0.1,0.1-0.1,0.1-0.1,0.2
	c0,0,0,0,0,0c0.1,0,0.2,0,0.3,0.1c0.1,0.1,0.2,0.2,0.2,0.4c0,0.1,0,0.3-0.1,0.4C134,196.1,133.9,196.1,133.7,196.1z"/>
<path class="st39" d="M133.7,196.1c-0.2,0-0.3-0.1-0.4-0.2c-0.1-0.1-0.1-0.2-0.1-0.4c0-0.4,0.2-0.8,0.5-1.1c0.3-0.3,0.7-0.5,1.2-0.5
	c0.5,0,1,0.2,1.4,0.5c0.4,0.3,0.5,0.8,0.6,1.3c0,0.3-0.1,0.5-0.2,0.7c-0.1,0.2-0.3,0.4-0.4,0.6c-0.2,0.2-0.4,0.4-0.7,0.6
	c-0.2,0.2-0.5,0.5-0.9,0.8l-0.5,0.5l0.7,0c0.9,0,1.4,0,1.5,0c0,0,0.1-0.3,0.2-0.8v0h0.4v0c0,0,0,0.3-0.1,0.8
	c-0.1,0.5-0.1,0.8-0.1,0.8v0h-3.3v-0.2v-0.1c0,0,0-0.1,0.1-0.1c0,0,0.1-0.1,0.3-0.3c0.2-0.2,0.3-0.4,0.4-0.5
	c0.1-0.1,0.2-0.2,0.3-0.3c0.1-0.2,0.3-0.3,0.3-0.3c0.1-0.1,0.1-0.2,0.3-0.3c0.1-0.1,0.2-0.2,0.3-0.3c0-0.1,0.1-0.2,0.2-0.3
	c0.1-0.1,0.2-0.2,0.2-0.3c0-0.1,0.1-0.2,0.1-0.3c0.1-0.1,0.1-0.2,0.1-0.3c0-0.1,0-0.2,0.1-0.3c0-0.1,0-0.2,0-0.3
	c0-0.4-0.1-0.7-0.3-1c-0.2-0.3-0.5-0.4-0.9-0.4c-0.2,0-0.4,0-0.5,0.1c-0.1,0.1-0.3,0.2-0.3,0.3c-0.1,0.1-0.1,0.1-0.1,0.2
	c0,0,0,0,0,0c0.1,0,0.2,0,0.3,0.1c0.1,0.1,0.2,0.2,0.2,0.4c0,0.1,0,0.3-0.1,0.4C134,196.1,133.9,196.1,133.7,196.1z"/>
<rect x="131.8" y="191.4" width="6.3" height="0.5"/>
<path d="M142.1,187.4c0-0.1,0.1-0.1,0.2-0.1c0,0,0.1,0,0.1,0.1l0,0c0,0,0,0.2,0,0.6c0,0.4,0,1.6,0,3.8c0,2.1,0,3.4,0,3.8
	c0,0.4,0,0.5,0,0.6l0,0c0,0-0.1,0.1-0.1,0.1c-0.1,0-0.1,0-0.2-0.1c0,0,0-1.5,0-4.3C142.1,188.8,142.1,187.4,142.1,187.4z
	 M140.4,187.4c0-0.1,0.1-0.1,0.2-0.1c0.1,0,0.1,0,0.2,0.1c0,0,0,1.5,0,4.3c0,2.8,0,4.3,0,4.3c0,0.1-0.1,0.1-0.2,0.1
	c0,0-0.1,0-0.1-0.1l0,0c0,0,0-0.2,0-0.6c0-0.4,0-1.6,0-3.8C140.3,188.9,140.3,187.4,140.4,187.4z"/>
<path class="st39" d="M142.1,187.4c0-0.1,0.1-0.1,0.2-0.1c0,0,0.1,0,0.1,0.1l0,0c0,0,0,0.2,0,0.6c0,0.4,0,1.6,0,3.8
	c0,2.1,0,3.4,0,3.8c0,0.4,0,0.5,0,0.6l0,0c0,0-0.1,0.1-0.1,0.1c-0.1,0-0.1,0-0.2-0.1c0,0,0-1.5,0-4.3S142.1,187.4,142.1,187.4z
	 M140.4,187.4c0-0.1,0.1-0.1,0.2-0.1c0.1,0,0.1,0,0.2,0.1c0,0,0,1.5,0,4.3s0,4.3,0,4.3c0,0.1-0.1,0.1-0.2,0.1c0,0-0.1,0-0.1-0.1l0,0
	c0,0,0-0.2,0-0.6c0-0.4,0-1.6,0-3.8C140.3,188.9,140.3,187.4,140.4,187.4z"/>
<path d="M144.2,188.3c-0.1,0-0.1,0-0.2,0c0,0-0.1,0-0.1,0c0,0-0.1,0-0.1,0c0,0,0,0,0-0.1c0,0,0-0.1,0-0.1c0-0.1,0-0.1,0.1-0.2
	c0,0,0.1,0,0.1,0c0.3,0,0.6,0,1,0c0.7,0,1.2,0,1.3,0h0.1c0,0,0.1,0.1,0.1,0.1s0,0.1,0,0.2c0,0.1-0.1,0.1-0.1,0.2h-0.1
	c-0.3,0-0.5,0-0.5,0.1c0,0,0.1,0.5,0.4,1.3c0.3,0.8,0.5,1.3,0.5,1.3l0,0c0,0,0.1-0.1,0.1-0.1c0-0.1,0.1-0.1,0.2-0.2
	c0.1-0.1,0.2-0.2,0.3-0.3c0.1-0.1,0.2-0.3,0.4-0.4c0.5-0.6,0.9-1,1-1.1c0.1-0.1,0.1-0.2,0.1-0.3c0-0.1-0.1-0.1-0.3-0.2
	c-0.1,0-0.2,0-0.2-0.1c0,0,0-0.1,0-0.1c0-0.1,0-0.1,0-0.2c0,0,0.1,0,0.1,0c0,0,0.1,0,0.3,0s0.4,0,0.7,0c0.2,0,0.3,0,0.5,0
	c0.2,0,0.3,0,0.3,0c0.1,0,0.2,0,0.2,0.1c0,0,0,0.1,0,0.1c0,0.1,0,0.1,0,0.1c0,0-0.1,0.1-0.2,0.1c-0.4,0-0.8,0.2-1,0.4
	c-0.1,0.1-0.5,0.5-1.3,1.4l-1.2,1.3l-0.2,0.9c-0.2,0.6-0.2,1-0.2,1c0,0.1,0.2,0.1,0.6,0.1c0.1,0,0.2,0,0.2,0c0,0,0,0,0.1,0.1
	c0,0,0,0,0,0.1c0,0.1,0,0.2-0.1,0.2c0,0-0.1,0-0.1,0c0,0-0.2,0-0.4,0c-0.2,0-0.5,0-0.8,0c-0.4,0-0.7,0-0.8,0s-0.3,0-0.3,0
	c-0.1,0-0.2,0-0.2-0.1c0,0,0-0.1,0-0.1c0,0,0,0,0-0.1c0,0,0,0,0,0c0,0,0,0,0,0c0,0,0,0,0,0c0,0,0,0,0,0c0,0,0,0,0,0c0,0,0,0,0.1,0
	c0,0,0,0,0.1,0c0,0,0.1,0,0.1,0c0.2,0,0.4,0,0.5,0c0.1,0,0.1-0.1,0.2-0.1c0,0,0.1-0.3,0.3-0.9l0.2-0.9l-1.1-3.1c0,0,0,0,0,0
	c0,0,0,0,0,0c0,0,0,0,0,0c0,0,0,0,0,0c0,0,0,0,0,0c0,0,0,0-0.1,0c0,0-0.1,0-0.1,0c0,0-0.1,0-0.1,0
	C144.3,188.3,144.3,188.3,144.2,188.3z"/>
<path class="st39" d="M144.2,188.3c-0.1,0-0.1,0-0.2,0c0,0-0.1,0-0.1,0c0,0-0.1,0-0.1,0c0,0,0,0,0-0.1c0,0,0-0.1,0-0.1
	c0-0.1,0-0.1,0.1-0.2c0,0,0.1,0,0.1,0c0.3,0,0.6,0,1,0c0.7,0,1.2,0,1.3,0h0.1c0,0,0.1,0.1,0.1,0.1s0,0.1,0,0.2
	c0,0.1-0.1,0.1-0.1,0.2h-0.1c-0.3,0-0.5,0-0.5,0.1c0,0,0.1,0.5,0.4,1.3c0.3,0.8,0.5,1.3,0.5,1.3l0,0c0,0,0.1-0.1,0.1-0.1
	c0-0.1,0.1-0.1,0.2-0.2c0.1-0.1,0.2-0.2,0.3-0.3c0.1-0.1,0.2-0.3,0.4-0.4c0.5-0.6,0.9-1,1-1.1c0.1-0.1,0.1-0.2,0.1-0.3
	c0-0.1-0.1-0.1-0.3-0.2c-0.1,0-0.2,0-0.2-0.1c0,0,0-0.1,0-0.1c0-0.1,0-0.1,0-0.2c0,0,0.1,0,0.1,0c0,0,0.1,0,0.3,0c0.2,0,0.4,0,0.7,0
	c0.2,0,0.3,0,0.5,0c0.2,0,0.3,0,0.3,0c0.1,0,0.2,0,0.2,0.1c0,0,0,0.1,0,0.1c0,0.1,0,0.1,0,0.1c0,0-0.1,0.1-0.2,0.1
	c-0.4,0-0.8,0.2-1,0.4c-0.1,0.1-0.5,0.5-1.3,1.4l-1.2,1.3l-0.2,0.9c-0.2,0.6-0.2,1-0.2,1c0,0.1,0.2,0.1,0.6,0.1c0.1,0,0.2,0,0.2,0
	c0,0,0,0,0.1,0.1c0,0,0,0,0,0.1c0,0.1,0,0.2-0.1,0.2c0,0-0.1,0-0.1,0c0,0-0.2,0-0.4,0c-0.2,0-0.5,0-0.8,0c-0.4,0-0.7,0-0.8,0
	s-0.3,0-0.3,0c-0.1,0-0.2,0-0.2-0.1c0,0,0-0.1,0-0.1c0,0,0,0,0-0.1s0,0,0,0s0,0,0,0c0,0,0,0,0,0c0,0,0,0,0,0c0,0,0,0,0,0
	c0,0,0,0,0.1,0c0,0,0,0,0.1,0c0,0,0.1,0,0.1,0c0.2,0,0.4,0,0.5,0c0.1,0,0.1-0.1,0.2-0.1c0,0,0.1-0.3,0.3-0.9l0.2-0.9l-1.1-3.1
	c0,0,0,0,0,0c0,0,0,0,0,0c0,0,0,0,0,0c0,0,0,0,0,0c0,0,0,0,0,0c0,0,0,0-0.1,0c0,0-0.1,0-0.1,0c0,0-0.1,0-0.1,0
	S144.3,188.3,144.2,188.3z"/>
<path d="M149.3,193.4c0,0,0-0.1,0.1-0.2c0-0.1,0.1-0.2,0.2-0.3c0.1-0.1,0.2-0.2,0.3-0.3c0.1-0.1,0.3-0.1,0.4-0.1
	c0.2,0,0.3,0,0.4,0.1c0.1,0.1,0.2,0.2,0.2,0.4c0,0.1,0,0.2-0.1,0.4c-0.1,0.2-0.1,0.4-0.3,0.7c-0.1,0.3-0.2,0.5-0.3,0.7
	c0,0.1,0,0.2,0,0.2c0,0.1,0,0.2,0.1,0.2c0,0,0.1,0,0.1,0c0,0,0.1,0,0.1-0.1c0.1,0,0.1-0.1,0.2-0.2c0.1-0.1,0.1-0.2,0.2-0.4
	c0-0.1,0-0.1,0-0.1c0,0,0,0,0.1,0c0.1,0,0.1,0,0.1,0.1c0,0,0,0.1-0.1,0.2c0,0.1-0.1,0.2-0.2,0.3c-0.1,0.1-0.2,0.2-0.3,0.3
	s-0.3,0.1-0.4,0.1c-0.1,0-0.3,0-0.4-0.1c-0.1-0.1-0.2-0.2-0.2-0.4c0-0.1,0-0.1,0-0.2c0-0.1,0.1-0.3,0.3-0.7c0.2-0.4,0.3-0.7,0.3-0.8
	c0-0.1,0-0.2,0-0.2c0-0.1,0-0.2-0.1-0.2h0c-0.1,0-0.2,0.1-0.4,0.2c-0.1,0.1-0.2,0.3-0.2,0.5c0,0,0,0,0,0c0,0,0,0,0,0c0,0,0,0,0,0
	c0,0,0,0,0,0c0,0,0,0,0,0c0,0,0,0-0.1,0L149.3,193.4C149.3,193.4,149.3,193.4,149.3,193.4z M150.3,191.4c0-0.1,0-0.2,0.1-0.3
	c0.1-0.1,0.2-0.1,0.3-0.1c0.1,0,0.1,0,0.2,0.1c0.1,0.1,0.1,0.1,0.1,0.2c0,0.1,0,0.2-0.1,0.3s-0.2,0.1-0.3,0.1c-0.1,0-0.1,0-0.2-0.1
	C150.4,191.6,150.3,191.5,150.3,191.4z"/>
<path class="st40" d="M149.3,193.4c0,0,0-0.1,0.1-0.2c0-0.1,0.1-0.2,0.2-0.3s0.2-0.2,0.3-0.3c0.1-0.1,0.3-0.1,0.4-0.1
	c0.2,0,0.3,0,0.4,0.1c0.1,0.1,0.2,0.2,0.2,0.4c0,0.1,0,0.2-0.1,0.4c-0.1,0.2-0.1,0.4-0.3,0.7c-0.1,0.3-0.2,0.5-0.3,0.7
	c0,0.1,0,0.2,0,0.2c0,0.1,0,0.2,0.1,0.2c0,0,0.1,0,0.1,0c0,0,0.1,0,0.1-0.1c0.1,0,0.1-0.1,0.2-0.2c0.1-0.1,0.1-0.2,0.2-0.4
	c0-0.1,0-0.1,0-0.1c0,0,0,0,0.1,0c0.1,0,0.1,0,0.1,0.1c0,0,0,0.1-0.1,0.2c0,0.1-0.1,0.2-0.2,0.3c-0.1,0.1-0.2,0.2-0.3,0.3
	c-0.1,0.1-0.3,0.1-0.4,0.1c-0.1,0-0.3,0-0.4-0.1c-0.1-0.1-0.2-0.2-0.2-0.4c0-0.1,0-0.1,0-0.2c0-0.1,0.1-0.3,0.3-0.7
	c0.2-0.4,0.3-0.7,0.3-0.8c0-0.1,0-0.2,0-0.2c0-0.1,0-0.2-0.1-0.2h0c-0.1,0-0.2,0.1-0.4,0.2s-0.2,0.3-0.2,0.5c0,0,0,0,0,0
	c0,0,0,0,0,0c0,0,0,0,0,0c0,0,0,0,0,0c0,0,0,0,0,0c0,0,0,0-0.1,0L149.3,193.4C149.3,193.4,149.3,193.4,149.3,193.4z M150.3,191.4
	c0-0.1,0-0.2,0.1-0.3c0.1-0.1,0.2-0.1,0.3-0.1c0.1,0,0.1,0,0.2,0.1s0.1,0.1,0.1,0.2c0,0.1,0,0.2-0.1,0.3c-0.1,0.1-0.2,0.1-0.3,0.1
	c-0.1,0-0.1,0-0.2-0.1C150.4,191.6,150.3,191.5,150.3,191.4z"/>
<path d="M154.5,191.8c0,0,0,0,0-0.1c0-0.1,0-0.1,0.1-0.2h5.2c0.1,0,0.1,0.1,0.1,0.2c0,0.1,0,0.1-0.1,0.2h-5.2
	c-0.1,0-0.1-0.1-0.1-0.2V191.8z"/>
<path class="st39" d="M154.5,191.8c0,0,0,0,0-0.1c0-0.1,0-0.1,0.1-0.2h5.2c0.1,0,0.1,0.1,0.1,0.2s0,0.1-0.1,0.2h-5.2
	c-0.1,0-0.1-0.1-0.1-0.2V191.8z"/>
<path d="M163.1,193.9L163.1,193.9c-0.1,0-0.1,0-0.1-0.1c0,0,0-0.1,0-0.1c0-0.1,0-0.1,0.1-0.1c0,0,0.1,0,0.2,0c0.5,0,0.9-0.2,1.2-0.5
	c0.1-0.1,0.4-0.4,1-1.1c0.6-0.7,0.9-1,0.9-1c-0.7-1.6-1-2.5-1-2.5c-0.1-0.1-0.2-0.1-0.6-0.1h-0.3c0,0-0.1-0.1-0.1-0.1s0-0.1,0-0.2
	c0-0.1,0.1-0.1,0.1-0.2h0.1c0.2,0,0.6,0,1.1,0c0.2,0,0.4,0,0.5,0c0.2,0,0.3,0,0.4,0c0.1,0,0.2,0,0.2,0c0.1,0,0.2,0,0.2,0.1
	c0,0,0,0,0,0.1c0,0.1,0,0.1-0.1,0.2c0,0-0.1,0-0.1,0c-0.2,0-0.3,0.1-0.5,0.1l0.7,1.7l0.5-0.5c0.6-0.7,0.9-1,0.9-1.1
	c0-0.1-0.1-0.2-0.2-0.2c0,0-0.1,0-0.1,0c-0.1,0-0.1,0-0.1-0.1c0,0,0-0.1,0-0.1c0-0.1,0.1-0.1,0.1-0.2h0.1c0,0,0.1,0,0.2,0
	c0.1,0,0.3,0,0.5,0c0.2,0,0.3,0,0.4,0c0.5,0,0.8,0,0.9,0h0.1c0,0,0.1,0.1,0.1,0.1c0,0.1,0,0.2-0.1,0.3h-0.1c-0.2,0-0.4,0-0.5,0.1
	c-0.2,0-0.3,0.1-0.4,0.1c-0.1,0.1-0.2,0.1-0.2,0.2l-0.1,0.1c0,0-0.3,0.3-0.9,0.9l-0.8,0.8c0,0,0.1,0.2,0.3,0.7
	c0.2,0.5,0.4,0.9,0.6,1.4c0.2,0.5,0.3,0.7,0.3,0.8c0.1,0.1,0.2,0.1,0.5,0.1c0.2,0,0.3,0,0.3,0.1c0,0,0,0.1,0,0.1
	c0,0.1,0,0.1-0.1,0.2c0,0-0.1,0-0.1,0c0,0-0.1,0-0.3,0c-0.2,0-0.4,0-0.8,0c-0.4,0-0.6,0-0.8,0s-0.3,0-0.3,0c-0.1,0-0.2,0-0.2-0.1
	c0,0,0,0,0-0.1c0-0.1,0-0.1,0-0.1c0,0,0,0,0,0c0,0,0,0,0.1,0c0,0,0.1,0,0.1,0c0.1,0,0.1,0,0.2-0.1c0.1,0,0.2-0.1,0.2-0.1
	c0,0-0.1-0.3-0.4-1l-0.4-1c-1.1,1.2-1.7,1.8-1.7,1.9c0,0,0,0.1,0,0.1c0,0.1,0.1,0.2,0.3,0.2c0,0,0,0,0.1,0c0,0,0,0,0.1,0
	c0,0,0,0,0,0c0,0,0,0,0,0c0,0,0,0,0,0c0,0,0,0,0,0.1c0,0.1,0,0.1,0,0.1c0,0.1,0,0.1-0.1,0.1c0,0-0.1,0-0.1,0c0,0-0.1,0-0.2,0
	c-0.1,0-0.2,0-0.4,0c-0.2,0-0.3,0-0.5,0C163.6,193.8,163.3,193.8,163.1,193.9z"/>
<path class="st39" d="M163.1,193.9L163.1,193.9c-0.1,0-0.1,0-0.1-0.1c0,0,0-0.1,0-0.1c0-0.1,0-0.1,0.1-0.1c0,0,0.1,0,0.2,0
	c0.5,0,0.9-0.2,1.2-0.5c0.1-0.1,0.4-0.4,1-1.1c0.6-0.7,0.9-1,0.9-1c-0.7-1.6-1-2.5-1-2.5c-0.1-0.1-0.2-0.1-0.6-0.1h-0.3
	c0,0-0.1-0.1-0.1-0.1c0,0,0-0.1,0-0.2c0-0.1,0.1-0.1,0.1-0.2h0.1c0.2,0,0.6,0,1.1,0c0.2,0,0.4,0,0.5,0c0.2,0,0.3,0,0.4,0
	c0.1,0,0.2,0,0.2,0c0.1,0,0.2,0,0.2,0.1c0,0,0,0,0,0.1c0,0.1,0,0.1-0.1,0.2c0,0-0.1,0-0.1,0c-0.2,0-0.3,0.1-0.5,0.1l0.7,1.7l0.5-0.5
	c0.6-0.7,0.9-1,0.9-1.1c0-0.1-0.1-0.2-0.2-0.2c0,0-0.1,0-0.1,0c-0.1,0-0.1,0-0.1-0.1c0,0,0-0.1,0-0.1c0-0.1,0.1-0.1,0.1-0.2h0.1
	c0,0,0.1,0,0.2,0s0.3,0,0.5,0s0.3,0,0.4,0c0.5,0,0.8,0,0.9,0h0.1c0,0,0.1,0.1,0.1,0.1c0,0.1,0,0.2-0.1,0.3h-0.1
	c-0.2,0-0.4,0-0.5,0.1c-0.2,0-0.3,0.1-0.4,0.1c-0.1,0.1-0.2,0.1-0.2,0.2l-0.1,0.1c0,0-0.3,0.3-0.9,0.9l-0.8,0.8c0,0,0.1,0.2,0.3,0.7
	c0.2,0.5,0.4,0.9,0.6,1.4c0.2,0.5,0.3,0.7,0.3,0.8c0.1,0.1,0.2,0.1,0.5,0.1c0.2,0,0.3,0,0.3,0.1c0,0,0,0.1,0,0.1
	c0,0.1,0,0.1-0.1,0.2c0,0-0.1,0-0.1,0c0,0-0.1,0-0.3,0s-0.4,0-0.8,0c-0.4,0-0.6,0-0.8,0c-0.2,0-0.3,0-0.3,0c-0.1,0-0.2,0-0.2-0.1
	c0,0,0,0,0-0.1c0-0.1,0-0.1,0-0.1c0,0,0,0,0,0c0,0,0,0,0.1,0c0,0,0.1,0,0.1,0s0.1,0,0.2-0.1c0.1,0,0.2-0.1,0.2-0.1
	c0,0-0.1-0.3-0.4-1l-0.4-1c-1.1,1.2-1.7,1.8-1.7,1.9c0,0,0,0.1,0,0.1c0,0.1,0.1,0.2,0.3,0.2c0,0,0,0,0.1,0c0,0,0,0,0.1,0
	c0,0,0,0,0,0s0,0,0,0c0,0,0,0,0,0c0,0,0,0,0,0.1c0,0.1,0,0.1,0,0.1c0,0.1,0,0.1-0.1,0.1c0,0-0.1,0-0.1,0c0,0-0.1,0-0.2,0
	c-0.1,0-0.2,0-0.4,0s-0.3,0-0.5,0C163.6,193.8,163.3,193.8,163.1,193.9z"/>
<path d="M173.5,190.1c0.2,0,0.5,0,0.7,0.1l0,0c0,0,0,0,0.1-0.1c0,0,0,0,0.1-0.1c0,0,0.1-0.1,0.1-0.1c0,0,0.1-0.1,0.1-0.2
	c0-0.1,0.1-0.1,0.1-0.2c0-0.1,0.1-0.2,0.1-0.3c0-0.1,0-0.2,0.1-0.3c0-0.1,0-0.1,0-0.3c0-0.1,0-0.2,0-0.2c-0.1-0.3-0.3-0.4-0.7-0.4
	c-0.3,0-0.5,0.1-0.7,0.2c-0.2,0.1-0.4,0.3-0.5,0.5c-0.1,0.2-0.3,0.4-0.3,0.6c-0.1,0.2-0.2,0.4-0.2,0.5c0,0.1-0.1,0.5-0.3,1.3
	c-0.2,0.8-0.3,1.2-0.3,1.2c0,0,0,0.1,0,0.2c0,0.3,0.1,0.5,0.2,0.7c0.2,0.2,0.4,0.4,0.8,0.4c0.3,0,0.5-0.1,0.8-0.2
	c0.3-0.1,0.5-0.4,0.7-0.8c0.1-0.2,0.2-0.4,0.2-0.7c0-0.3,0.1-0.4,0.1-0.6c0-0.3-0.1-0.6-0.3-0.8c-0.3,0.1-0.5,0.1-0.7,0.1h-0.1
	c-0.5,0-0.7-0.1-0.7-0.3c0,0,0-0.1,0-0.1C172.8,190.2,173.1,190.1,173.5,190.1z M170.6,195.6C170.6,195.5,170.6,195.5,170.6,195.6
	c-0.1-0.1,0.2-1,0.7-2.9c0.5-1.9,0.7-2.8,0.8-2.9c0.1-0.4,0.3-0.7,0.5-1c0.2-0.3,0.4-0.5,0.6-0.6c0.3-0.3,0.7-0.4,1.1-0.4h0
	c0.4,0,0.7,0.1,0.9,0.3c0.2,0.2,0.4,0.5,0.4,0.9c0,0.6-0.3,1.1-0.9,1.5l0.1,0.1c0.3,0.3,0.5,0.7,0.5,1.1c0,0.7-0.3,1.2-0.8,1.6
	c-0.5,0.4-1.1,0.7-1.7,0.7c-0.2,0-0.3,0-0.5-0.1c-0.1,0-0.3-0.1-0.3-0.2c-0.1-0.1-0.1-0.1-0.2-0.2c0-0.1-0.1-0.1-0.1-0.2
	c0,0,0-0.1,0-0.1l-0.6,2.2c0,0-0.1,0.1-0.2,0.1H170.6z"/>
<path class="st39" d="M173.5,190.1c0.2,0,0.5,0,0.7,0.1l0,0c0,0,0,0,0.1-0.1c0,0,0,0,0.1-0.1c0,0,0.1-0.1,0.1-0.1
	c0,0,0.1-0.1,0.1-0.2c0-0.1,0.1-0.1,0.1-0.2c0-0.1,0.1-0.2,0.1-0.3c0-0.1,0-0.2,0.1-0.3c0-0.1,0-0.1,0-0.3c0-0.1,0-0.2,0-0.2
	c-0.1-0.3-0.3-0.4-0.7-0.4c-0.3,0-0.5,0.1-0.7,0.2c-0.2,0.1-0.4,0.3-0.5,0.5c-0.1,0.2-0.3,0.4-0.3,0.6c-0.1,0.2-0.2,0.4-0.2,0.5
	c0,0.1-0.1,0.5-0.3,1.3c-0.2,0.8-0.3,1.2-0.3,1.2c0,0,0,0.1,0,0.2c0,0.3,0.1,0.5,0.2,0.7c0.2,0.2,0.4,0.4,0.8,0.4
	c0.3,0,0.5-0.1,0.8-0.2c0.3-0.1,0.5-0.4,0.7-0.8c0.1-0.2,0.2-0.4,0.2-0.7c0-0.3,0.1-0.4,0.1-0.6c0-0.3-0.1-0.6-0.3-0.8
	c-0.3,0.1-0.5,0.1-0.7,0.1h-0.1c-0.5,0-0.7-0.1-0.7-0.3c0,0,0-0.1,0-0.1C172.8,190.2,173.1,190.1,173.5,190.1z M170.6,195.6
	C170.6,195.5,170.6,195.5,170.6,195.6c-0.1-0.1,0.2-1,0.7-2.9c0.5-1.9,0.7-2.8,0.8-2.9c0.1-0.4,0.3-0.7,0.5-1
	c0.2-0.3,0.4-0.5,0.6-0.6c0.3-0.3,0.7-0.4,1.1-0.4h0c0.4,0,0.7,0.1,0.9,0.3s0.4,0.5,0.4,0.9c0,0.6-0.3,1.1-0.9,1.5l0.1,0.1
	c0.3,0.3,0.5,0.7,0.5,1.1c0,0.7-0.3,1.2-0.8,1.6c-0.5,0.4-1.1,0.7-1.7,0.7c-0.2,0-0.3,0-0.5-0.1c-0.1,0-0.3-0.1-0.3-0.2
	c-0.1-0.1-0.1-0.1-0.2-0.2c0-0.1-0.1-0.1-0.1-0.2c0,0,0-0.1,0-0.1l-0.6,2.2c0,0-0.1,0.1-0.2,0.1H170.6z"/>
<path d="M178.4,187.4c0-0.1,0.1-0.1,0.2-0.1c0,0,0.1,0,0.1,0.1l0,0c0,0,0,0.2,0,0.6c0,0.4,0,1.6,0,3.8c0,2.1,0,3.4,0,3.8
	c0,0.4,0,0.5,0,0.6l0,0c0,0-0.1,0.1-0.1,0.1c-0.1,0-0.1,0-0.2-0.1c0,0,0-1.5,0-4.3C178.4,188.8,178.4,187.4,178.4,187.4z
	 M176.6,187.4c0-0.1,0.1-0.1,0.2-0.1c0.1,0,0.1,0,0.2,0.1c0,0,0,1.5,0,4.3c0,2.8,0,4.3,0,4.3c0,0.1-0.1,0.1-0.2,0.1
	c0,0-0.1,0-0.1-0.1l0,0c0,0,0-0.2,0-0.6c0-0.4,0-1.6,0-3.8C176.6,188.9,176.6,187.4,176.6,187.4z"/>
<path class="st39" d="M178.4,187.4c0-0.1,0.1-0.1,0.2-0.1c0,0,0.1,0,0.1,0.1l0,0c0,0,0,0.2,0,0.6c0,0.4,0,1.6,0,3.8
	c0,2.1,0,3.4,0,3.8c0,0.4,0,0.5,0,0.6l0,0c0,0-0.1,0.1-0.1,0.1c-0.1,0-0.1,0-0.2-0.1c0,0,0-1.5,0-4.3S178.4,187.4,178.4,187.4z
	 M176.6,187.4c0-0.1,0.1-0.1,0.2-0.1c0.1,0,0.1,0,0.2,0.1c0,0,0,1.5,0,4.3s0,4.3,0,4.3c0,0.1-0.1,0.1-0.2,0.1c0,0-0.1,0-0.1-0.1l0,0
	c0,0,0-0.2,0-0.6c0-0.4,0-1.6,0-3.8C176.6,188.9,176.6,187.4,176.6,187.4z"/>
<path d="M180.9,187c-0.1,0-0.2,0-0.3-0.1c-0.1-0.1-0.1-0.2-0.1-0.3c0-0.3,0.1-0.6,0.3-0.8c0.2-0.2,0.5-0.3,0.8-0.3
	c0.4,0,0.7,0.1,1,0.4c0.3,0.2,0.4,0.5,0.4,0.9c0,0.2,0,0.4-0.1,0.5c-0.1,0.2-0.2,0.3-0.3,0.4c-0.1,0.1-0.3,0.3-0.5,0.5
	c-0.2,0.1-0.4,0.3-0.6,0.6l-0.4,0.4l0.5,0c0.7,0,1,0,1.1,0c0,0,0.1-0.2,0.2-0.6v0h0.3v0c0,0,0,0.2-0.1,0.6c-0.1,0.4-0.1,0.6-0.1,0.6
	v0h-2.4v-0.1v-0.1c0,0,0-0.1,0-0.1c0,0,0.1-0.1,0.2-0.2c0.1-0.1,0.2-0.3,0.3-0.4c0,0,0.1-0.1,0.2-0.2c0.1-0.1,0.2-0.2,0.2-0.2
	c0,0,0.1-0.1,0.2-0.2c0.1-0.1,0.1-0.2,0.2-0.2c0,0,0.1-0.1,0.1-0.2c0.1-0.1,0.1-0.1,0.1-0.2c0-0.1,0.1-0.1,0.1-0.2
	c0-0.1,0.1-0.1,0.1-0.2c0-0.1,0-0.1,0-0.2c0-0.1,0-0.1,0-0.2c0-0.3-0.1-0.5-0.2-0.7c-0.1-0.2-0.4-0.3-0.6-0.3c-0.1,0-0.3,0-0.4,0.1
	c-0.1,0.1-0.2,0.1-0.2,0.2c0,0.1-0.1,0.1-0.1,0.1c0,0,0,0,0,0c0.1,0,0.2,0,0.2,0.1c0.1,0.1,0.1,0.2,0.1,0.3c0,0.1,0,0.2-0.1,0.3
	S181,187,180.9,187z"/>
<path class="st40" d="M180.9,187c-0.1,0-0.2,0-0.3-0.1c-0.1-0.1-0.1-0.2-0.1-0.3c0-0.3,0.1-0.6,0.3-0.8c0.2-0.2,0.5-0.3,0.8-0.3
	c0.4,0,0.7,0.1,1,0.4c0.3,0.2,0.4,0.5,0.4,0.9c0,0.2,0,0.4-0.1,0.5c-0.1,0.2-0.2,0.3-0.3,0.4c-0.1,0.1-0.3,0.3-0.5,0.5
	c-0.2,0.1-0.4,0.3-0.6,0.6l-0.4,0.4l0.5,0c0.7,0,1,0,1.1,0c0,0,0.1-0.2,0.2-0.6v0h0.3v0c0,0,0,0.2-0.1,0.6c-0.1,0.4-0.1,0.6-0.1,0.6
	v0h-2.4v-0.1v-0.1c0,0,0-0.1,0-0.1c0,0,0.1-0.1,0.2-0.2c0.1-0.1,0.2-0.3,0.3-0.4c0,0,0.1-0.1,0.2-0.2c0.1-0.1,0.2-0.2,0.2-0.2
	c0,0,0.1-0.1,0.2-0.2c0.1-0.1,0.1-0.2,0.2-0.2c0,0,0.1-0.1,0.1-0.2c0.1-0.1,0.1-0.1,0.1-0.2c0-0.1,0.1-0.1,0.1-0.2
	c0-0.1,0.1-0.1,0.1-0.2c0-0.1,0-0.1,0-0.2c0-0.1,0-0.1,0-0.2c0-0.3-0.1-0.5-0.2-0.7c-0.1-0.2-0.4-0.3-0.6-0.3c-0.1,0-0.3,0-0.4,0.1
	c-0.1,0.1-0.2,0.1-0.2,0.2s-0.1,0.1-0.1,0.1c0,0,0,0,0,0c0.1,0,0.2,0,0.2,0.1c0.1,0.1,0.1,0.2,0.1,0.3c0,0.1,0,0.2-0.1,0.3
	C181.1,187,181,187,180.9,187z"/>
<path d="M180.9,193.7c-0.1,0-0.2,0-0.3-0.1c-0.1-0.1-0.1-0.2-0.1-0.3c0-0.3,0.1-0.6,0.3-0.8c0.2-0.2,0.5-0.3,0.8-0.3
	c0.4,0,0.7,0.1,1,0.4c0.3,0.2,0.4,0.5,0.4,0.9c0,0.2,0,0.4-0.1,0.5c-0.1,0.2-0.2,0.3-0.3,0.4c-0.1,0.1-0.3,0.3-0.5,0.5
	c-0.2,0.1-0.4,0.3-0.6,0.6l-0.4,0.4l0.5,0c0.7,0,1,0,1.1,0c0,0,0.1-0.2,0.2-0.6v0h0.3v0c0,0,0,0.2-0.1,0.6c-0.1,0.4-0.1,0.6-0.1,0.6
	v0h-2.4v-0.1v-0.1c0,0,0-0.1,0-0.1c0,0,0.1-0.1,0.2-0.2c0.1-0.1,0.2-0.3,0.3-0.4c0,0,0.1-0.1,0.2-0.2c0.1-0.1,0.2-0.2,0.2-0.2
	c0,0,0.1-0.1,0.2-0.2c0.1-0.1,0.1-0.2,0.2-0.2c0,0,0.1-0.1,0.1-0.2c0.1-0.1,0.1-0.1,0.1-0.2c0-0.1,0.1-0.1,0.1-0.2
	c0-0.1,0.1-0.1,0.1-0.2c0-0.1,0-0.1,0-0.2c0-0.1,0-0.1,0-0.2c0-0.3-0.1-0.5-0.2-0.7c-0.1-0.2-0.4-0.3-0.6-0.3c-0.1,0-0.3,0-0.4,0.1
	c-0.1,0.1-0.2,0.1-0.2,0.2c0,0.1-0.1,0.1-0.1,0.1c0,0,0,0,0,0c0.1,0,0.2,0,0.2,0.1c0.1,0.1,0.1,0.2,0.1,0.3c0,0.1,0,0.2-0.1,0.3
	C181.1,193.6,181,193.7,180.9,193.7z"/>
<path class="st40" d="M180.9,193.7c-0.1,0-0.2,0-0.3-0.1c-0.1-0.1-0.1-0.2-0.1-0.3c0-0.3,0.1-0.6,0.3-0.8c0.2-0.2,0.5-0.3,0.8-0.3
	c0.4,0,0.7,0.1,1,0.4c0.3,0.2,0.4,0.5,0.4,0.9c0,0.2,0,0.4-0.1,0.5c-0.1,0.2-0.2,0.3-0.3,0.4c-0.1,0.1-0.3,0.3-0.5,0.5
	c-0.2,0.1-0.4,0.3-0.6,0.6l-0.4,0.4l0.5,0c0.7,0,1,0,1.1,0c0,0,0.1-0.2,0.2-0.6v0h0.3v0c0,0,0,0.2-0.1,0.6c-0.1,0.4-0.1,0.6-0.1,0.6
	v0h-2.4v-0.1v-0.1c0,0,0-0.1,0-0.1c0,0,0.1-0.1,0.2-0.2c0.1-0.1,0.2-0.3,0.3-0.4c0,0,0.1-0.1,0.2-0.2c0.1-0.1,0.2-0.2,0.2-0.2
	c0,0,0.1-0.1,0.2-0.2c0.1-0.1,0.1-0.2,0.2-0.2c0,0,0.1-0.1,0.1-0.2c0.1-0.1,0.1-0.1,0.1-0.2c0-0.1,0.1-0.1,0.1-0.2
	c0-0.1,0.1-0.1,0.1-0.2c0-0.1,0-0.1,0-0.2c0-0.1,0-0.1,0-0.2c0-0.3-0.1-0.5-0.2-0.7c-0.1-0.2-0.4-0.3-0.6-0.3c-0.1,0-0.3,0-0.4,0.1
	c-0.1,0.1-0.2,0.1-0.2,0.2s-0.1,0.1-0.1,0.1c0,0,0,0,0,0c0.1,0,0.2,0,0.2,0.1c0.1,0.1,0.1,0.2,0.1,0.3c0,0.1,0,0.2-0.1,0.3
	C181.1,193.6,181,193.7,180.9,193.7z"/>
<path d="M186.4,191.8c0,0,0,0,0-0.1c0-0.1,0-0.1,0.1-0.2h2.7v-1.3l0-1.3c0.1-0.1,0.1-0.1,0.2-0.1c0.1,0,0.1,0,0.2,0.1v2.6h2.7
	c0.1,0,0.1,0.1,0.1,0.2c0,0.1,0,0.1-0.1,0.2h-2.7v2.6c0,0.1-0.1,0.1-0.2,0.1h0h0c-0.1,0-0.1,0-0.2-0.1v-2.6h-2.7
	c-0.1,0-0.1-0.1-0.1-0.2V191.8z"/>
<path class="st39" d="M186.4,191.8c0,0,0,0,0-0.1c0-0.1,0-0.1,0.1-0.2h2.7v-1.3l0-1.3c0.1-0.1,0.1-0.1,0.2-0.1c0.1,0,0.1,0,0.2,0.1
	v2.6h2.7c0.1,0,0.1,0.1,0.1,0.2s0,0.1-0.1,0.2h-2.7v2.6c0,0.1-0.1,0.1-0.2,0.1h0h0c-0.1,0-0.1,0-0.2-0.1v-2.6h-2.7
	c-0.1,0-0.1-0.1-0.1-0.2V191.8z"/>
<path d="M195.1,191.7c-0.1,0-0.2,0-0.2-0.1c0-0.1,0-0.2,0.1-0.4c0.1-0.2,0.2-0.3,0.4-0.5c0.1-0.2,0.3-0.3,0.6-0.5
	c0.2-0.1,0.5-0.2,0.7-0.2c0.2,0,0.3,0,0.3,0c0.3,0.1,0.5,0.2,0.7,0.5c0.2,0.3,0.3,0.6,0.5,1.1c0.1,0.4,0.1,0.6,0.1,0.7c0,0,0,0,0,0
	l0.1-0.2c0.1-0.3,0.3-0.6,0.4-0.9c0.1-0.3,0.3-0.6,0.4-0.8c0.1-0.2,0.2-0.3,0.2-0.3c0,0,0.1,0,0.1,0h0.1c0,0,0.1,0.1,0.1,0.1
	c0,0-0.1,0.2-0.2,0.4c-0.1,0.2-0.3,0.6-0.5,1.1c-0.2,0.5-0.4,1-0.6,1.6c0,0.1-0.1,0.3-0.1,0.6c0,0.3-0.1,0.6-0.2,0.9
	c-0.1,0.4-0.2,0.6-0.2,0.8c-0.1,0.1-0.1,0.2-0.2,0.2c-0.1,0-0.2-0.1-0.2-0.2c0-0.3,0.2-0.9,0.5-1.9l0.1-0.2l0-0.2c0-0.1,0-0.1,0-0.3
	c0-0.9-0.2-1.6-0.5-1.9c-0.2-0.2-0.5-0.3-0.9-0.3c-0.3,0-0.5,0.1-0.8,0.2c-0.2,0.2-0.4,0.4-0.5,0.6c0,0.1,0,0.1,0,0.1
	C195.2,191.7,195.2,191.7,195.1,191.7z"/>
<path class="st39" d="M195.1,191.7c-0.1,0-0.2,0-0.2-0.1c0-0.1,0-0.2,0.1-0.4c0.1-0.2,0.2-0.3,0.4-0.5s0.3-0.3,0.6-0.5
	c0.2-0.1,0.5-0.2,0.7-0.2c0.2,0,0.3,0,0.3,0c0.3,0.1,0.5,0.2,0.7,0.5c0.2,0.3,0.3,0.6,0.5,1.1c0.1,0.4,0.1,0.6,0.1,0.7c0,0,0,0,0,0
	l0.1-0.2c0.1-0.3,0.3-0.6,0.4-0.9c0.1-0.3,0.3-0.6,0.4-0.8c0.1-0.2,0.2-0.3,0.2-0.3c0,0,0.1,0,0.1,0h0.1c0,0,0.1,0.1,0.1,0.1
	c0,0-0.1,0.2-0.2,0.4c-0.1,0.2-0.3,0.6-0.5,1.1c-0.2,0.5-0.4,1-0.6,1.6c0,0.1-0.1,0.3-0.1,0.6c0,0.3-0.1,0.6-0.2,0.9
	c-0.1,0.4-0.2,0.6-0.2,0.8c-0.1,0.1-0.1,0.2-0.2,0.2c-0.1,0-0.2-0.1-0.2-0.2c0-0.3,0.2-0.9,0.5-1.9l0.1-0.2l0-0.2c0-0.1,0-0.1,0-0.3
	c0-0.9-0.2-1.6-0.5-1.9c-0.2-0.2-0.5-0.3-0.9-0.3c-0.3,0-0.5,0.1-0.8,0.2c-0.2,0.2-0.4,0.4-0.5,0.6c0,0.1,0,0.1,0,0.1
	C195.2,191.7,195.2,191.7,195.1,191.7z"/>
<path d="M202.6,187.4c0-0.1,0.1-0.1,0.2-0.1c0,0,0.1,0,0.1,0.1l0,0c0,0,0,0.2,0,0.6c0,0.4,0,1.6,0,3.8c0,2.1,0,3.4,0,3.8
	c0,0.4,0,0.5,0,0.6l0,0c0,0-0.1,0.1-0.1,0.1c-0.1,0-0.1,0-0.2-0.1c0,0,0-1.5,0-4.3C202.6,188.8,202.6,187.4,202.6,187.4z
	 M200.9,187.4c0-0.1,0.1-0.1,0.2-0.1c0.1,0,0.1,0,0.2,0.1c0,0,0,1.5,0,4.3c0,2.8,0,4.3,0,4.3c0,0.1-0.1,0.1-0.2,0.1
	c0,0-0.1,0-0.1-0.1l0,0c0,0,0-0.2,0-0.6c0-0.4,0-1.6,0-3.8C200.9,188.9,200.9,187.4,200.9,187.4z"/>
<path class="st39" d="M202.6,187.4c0-0.1,0.1-0.1,0.2-0.1c0,0,0.1,0,0.1,0.1l0,0c0,0,0,0.2,0,0.6c0,0.4,0,1.6,0,3.8
	c0,2.1,0,3.4,0,3.8c0,0.4,0,0.5,0,0.6l0,0c0,0-0.1,0.1-0.1,0.1c-0.1,0-0.1,0-0.2-0.1c0,0,0-1.5,0-4.3S202.6,187.4,202.6,187.4z
	 M200.9,187.4c0-0.1,0.1-0.1,0.2-0.1c0.1,0,0.1,0,0.2,0.1c0,0,0,1.5,0,4.3s0,4.3,0,4.3c0,0.1-0.1,0.1-0.2,0.1c0,0-0.1,0-0.1-0.1l0,0
	c0,0,0-0.2,0-0.6c0-0.4,0-1.6,0-3.8C200.9,188.9,200.9,187.4,200.9,187.4z"/>
<path d="M207.3,190.1c0.2,0,0.5,0,0.7,0.1l0,0c0,0,0,0,0.1-0.1c0,0,0,0,0.1-0.1c0,0,0.1-0.1,0.1-0.1c0,0,0.1-0.1,0.1-0.2
	c0-0.1,0.1-0.1,0.1-0.2c0-0.1,0.1-0.2,0.1-0.3c0-0.1,0-0.2,0.1-0.3c0-0.1,0-0.1,0-0.3c0-0.1,0-0.2,0-0.2c-0.1-0.3-0.3-0.4-0.7-0.4
	c-0.3,0-0.5,0.1-0.7,0.2c-0.2,0.1-0.4,0.3-0.5,0.5c-0.1,0.2-0.3,0.4-0.3,0.6c-0.1,0.2-0.2,0.4-0.2,0.5c0,0.1-0.1,0.5-0.3,1.3
	c-0.2,0.8-0.3,1.2-0.3,1.2c0,0,0,0.1,0,0.2c0,0.3,0.1,0.5,0.2,0.7c0.2,0.2,0.4,0.4,0.8,0.4c0.3,0,0.5-0.1,0.8-0.2
	c0.3-0.1,0.5-0.4,0.7-0.8c0.1-0.2,0.2-0.4,0.2-0.7c0-0.3,0.1-0.4,0.1-0.6c0-0.3-0.1-0.6-0.3-0.8c-0.3,0.1-0.5,0.1-0.7,0.1h-0.1
	c-0.5,0-0.7-0.1-0.7-0.3c0,0,0-0.1,0-0.1C206.6,190.2,206.9,190.1,207.3,190.1z M204.4,195.6C204.4,195.5,204.4,195.5,204.4,195.6
	c-0.1-0.1,0.2-1,0.7-2.9c0.5-1.9,0.7-2.8,0.8-2.9c0.1-0.4,0.3-0.7,0.5-1c0.2-0.3,0.4-0.5,0.6-0.6c0.3-0.3,0.7-0.4,1.1-0.4h0
	c0.4,0,0.7,0.1,0.9,0.3c0.2,0.2,0.4,0.5,0.4,0.9c0,0.6-0.3,1.1-0.9,1.5l0.1,0.1c0.3,0.3,0.5,0.7,0.5,1.1c0,0.7-0.3,1.2-0.8,1.6
	c-0.5,0.4-1.1,0.7-1.7,0.7c-0.2,0-0.3,0-0.5-0.1c-0.1,0-0.3-0.1-0.3-0.2c-0.1-0.1-0.1-0.1-0.2-0.2c0-0.1-0.1-0.1-0.1-0.2
	c0,0,0-0.1,0-0.1l-0.6,2.2c0,0-0.1,0.1-0.2,0.1H204.4z"/>
<path class="st39" d="M207.3,190.1c0.2,0,0.5,0,0.7,0.1l0,0c0,0,0,0,0.1-0.1c0,0,0,0,0.1-0.1c0,0,0.1-0.1,0.1-0.1
	c0,0,0.1-0.1,0.1-0.2c0-0.1,0.1-0.1,0.1-0.2c0-0.1,0.1-0.2,0.1-0.3c0-0.1,0-0.2,0.1-0.3c0-0.1,0-0.1,0-0.3c0-0.1,0-0.2,0-0.2
	c-0.1-0.3-0.3-0.4-0.7-0.4c-0.3,0-0.5,0.1-0.7,0.2c-0.2,0.1-0.4,0.3-0.5,0.5c-0.1,0.2-0.3,0.4-0.3,0.6c-0.1,0.2-0.2,0.4-0.2,0.5
	c0,0.1-0.1,0.5-0.3,1.3c-0.2,0.8-0.3,1.2-0.3,1.2c0,0,0,0.1,0,0.2c0,0.3,0.1,0.5,0.2,0.7c0.2,0.2,0.4,0.4,0.8,0.4
	c0.3,0,0.5-0.1,0.8-0.2c0.3-0.1,0.5-0.4,0.7-0.8c0.1-0.2,0.2-0.4,0.2-0.7c0-0.3,0.1-0.4,0.1-0.6c0-0.3-0.1-0.6-0.3-0.8
	c-0.3,0.1-0.5,0.1-0.7,0.1h-0.1c-0.5,0-0.7-0.1-0.7-0.3c0,0,0-0.1,0-0.1C206.6,190.2,206.9,190.1,207.3,190.1z M204.4,195.6
	C204.4,195.5,204.4,195.5,204.4,195.6c-0.1-0.1,0.2-1,0.7-2.9c0.5-1.9,0.7-2.8,0.8-2.9c0.1-0.4,0.3-0.7,0.5-1
	c0.2-0.3,0.4-0.5,0.6-0.6c0.3-0.3,0.7-0.4,1.1-0.4h0c0.4,0,0.7,0.1,0.9,0.3s0.4,0.5,0.4,0.9c0,0.6-0.3,1.1-0.9,1.5l0.1,0.1
	c0.3,0.3,0.5,0.7,0.5,1.1c0,0.7-0.3,1.2-0.8,1.6c-0.5,0.4-1.1,0.7-1.7,0.7c-0.2,0-0.3,0-0.5-0.1c-0.1,0-0.3-0.1-0.3-0.2
	c-0.1-0.1-0.1-0.1-0.2-0.2c0-0.1-0.1-0.1-0.1-0.2c0,0,0-0.1,0-0.1l-0.6,2.2c0,0-0.1,0.1-0.2,0.1H204.4z"/>
<path d="M212.2,187.4c0-0.1,0.1-0.1,0.2-0.1c0,0,0.1,0,0.1,0.1l0,0c0,0,0,0.2,0,0.6c0,0.4,0,1.6,0,3.8c0,2.1,0,3.4,0,3.8
	c0,0.4,0,0.5,0,0.6l0,0c0,0-0.1,0.1-0.1,0.1c-0.1,0-0.1,0-0.2-0.1c0,0,0-1.5,0-4.3C212.2,188.8,212.2,187.4,212.2,187.4z
	 M210.4,187.4c0-0.1,0.1-0.1,0.2-0.1c0.1,0,0.1,0,0.2,0.1c0,0,0,1.5,0,4.3c0,2.8,0,4.3,0,4.3c0,0.1-0.1,0.1-0.2,0.1
	c0,0-0.1,0-0.1-0.1l0,0c0,0,0-0.2,0-0.6c0-0.4,0-1.6,0-3.8C210.4,188.9,210.4,187.4,210.4,187.4z"/>
<path class="st39" d="M212.2,187.4c0-0.1,0.1-0.1,0.2-0.1c0,0,0.1,0,0.1,0.1l0,0c0,0,0,0.2,0,0.6c0,0.4,0,1.6,0,3.8
	c0,2.1,0,3.4,0,3.8c0,0.4,0,0.5,0,0.6l0,0c0,0-0.1,0.1-0.1,0.1c-0.1,0-0.1,0-0.2-0.1c0,0,0-1.5,0-4.3S212.2,187.4,212.2,187.4z
	 M210.4,187.4c0-0.1,0.1-0.1,0.2-0.1c0.1,0,0.1,0,0.2,0.1c0,0,0,1.5,0,4.3s0,4.3,0,4.3c0,0.1-0.1,0.1-0.2,0.1c0,0-0.1,0-0.1-0.1l0,0
	c0,0,0-0.2,0-0.6c0-0.4,0-1.6,0-3.8C210.4,188.9,210.4,187.4,210.4,187.4z"/>
<path d="M216.1,191.4c-0.1-0.1-0.3-0.2-0.5-0.2c-0.2,0-0.3,0.1-0.5,0.2c-0.1,0.1-0.2,0.3-0.2,0.5c0,0.2-0.1,0.6-0.1,1.2
	c0,0.7,0,1.1,0.1,1.3c0,0.2,0.1,0.4,0.2,0.5c0.1,0.1,0.3,0.2,0.4,0.2c0.2,0,0.3-0.1,0.4-0.2c0.1-0.1,0.2-0.3,0.2-0.5
	c0-0.2,0-0.7,0.1-1.3c0-0.6,0-1-0.1-1.2C216.2,191.7,216.2,191.5,216.1,191.4z M214.6,191.5c0.2-0.3,0.6-0.5,1-0.5
	c0.2,0,0.4,0.1,0.6,0.2c0.2,0.1,0.4,0.3,0.5,0.6c0.2,0.3,0.2,0.8,0.2,1.4c0,0.7-0.1,1.2-0.3,1.5c-0.1,0.2-0.2,0.3-0.4,0.4
	c-0.2,0.1-0.3,0.2-0.4,0.2c-0.1,0-0.2,0-0.3,0c-0.1,0-0.2,0-0.3,0c-0.1,0-0.2-0.1-0.4-0.2c-0.2-0.1-0.3-0.3-0.4-0.4
	c-0.2-0.3-0.3-0.8-0.3-1.5C214.3,192.4,214.4,191.9,214.6,191.5z"/>
<path class="st40" d="M216.1,191.4c-0.1-0.1-0.3-0.2-0.5-0.2c-0.2,0-0.3,0.1-0.5,0.2c-0.1,0.1-0.2,0.3-0.2,0.5
	c0,0.2-0.1,0.6-0.1,1.2c0,0.7,0,1.1,0.1,1.3c0,0.2,0.1,0.4,0.2,0.5c0.1,0.1,0.3,0.2,0.4,0.2c0.2,0,0.3-0.1,0.4-0.2
	c0.1-0.1,0.2-0.3,0.2-0.5c0-0.2,0-0.7,0.1-1.3c0-0.6,0-1-0.1-1.2C216.2,191.7,216.2,191.5,216.1,191.4z M214.6,191.5
	c0.2-0.3,0.6-0.5,1-0.5c0.2,0,0.4,0.1,0.6,0.2c0.2,0.1,0.4,0.3,0.5,0.6c0.2,0.3,0.2,0.8,0.2,1.4c0,0.7-0.1,1.2-0.3,1.5
	c-0.1,0.2-0.2,0.3-0.4,0.4c-0.2,0.1-0.3,0.2-0.4,0.2c-0.1,0-0.2,0-0.3,0c-0.1,0-0.2,0-0.3,0c-0.1,0-0.2-0.1-0.4-0.2
	c-0.2-0.1-0.3-0.3-0.4-0.4c-0.2-0.3-0.3-0.8-0.3-1.5C214.3,192.4,214.4,191.9,214.6,191.5z"/>
<polygon class="st27" points="223.2,190.8 233,190.8 233,187 242.5,192.4 233,197.8 233,194.1 223.2,194.1 223.2,192.4 "/>
<polygon class="st28" points="223.2,190.8 233,190.8 233,187 242.5,192.4 233,197.8 233,194.1 223.2,194.1 223.2,192.4 "/>
<path d="M31.3,141.2c0.5,0,0.9-0.1,1.4-0.1H35v0.8h-2.4c-0.4,0-0.9,0-1.3,0.1L31.3,141.2z M26.4,142.4c0.8-0.3,1.6-0.6,2.4-0.8
	l0.2,0.8c-0.8,0.2-1.6,0.4-2.3,0.8L26.4,142.4z M22.2,145c0.6-0.5,1.3-1,2-1.5l0.4,0.7c-0.7,0.4-1.3,0.9-1.9,1.4L22.2,145z
	 M18.9,148.8c0.4-0.7,0.9-1.4,1.5-2l0.6,0.5c-0.5,0.6-1,1.2-1.4,1.9L18.9,148.8z M16.9,153.3c0.2-0.8,0.5-1.6,0.8-2.4l0.7,0.3
	c-0.3,0.7-0.6,1.5-0.8,2.3L16.9,153.3z M16.4,158.2v-0.8c0-0.5,0-1.1,0.1-1.6l0.8,0.1c-0.1,0.5-0.1,1-0.1,1.5v0.8H16.4z M16.4,163
	v-2.4h0.8v2.4H16.4z M16.4,167.8v-2.4h0.8v2.4H16.4z M16.4,172.6v-2.4h0.8v2.4H16.4z M16.4,177.4V175h0.8v2.4H16.4z M16.4,182.2
	v-2.4h0.8v2.4H16.4z M16.4,187v-2.4h0.8v2.4H16.4z M16.4,191.9v-2.4h0.8v2.4H16.4z M16.4,196.7v-2.4h0.8v2.4H16.4z M16.4,201.5v-2.4
	h0.8v2.4H16.4z M16.4,206.3v-2.4h0.8v2.4H16.4z M16.4,211.1v-2.4h0.8v2.4H16.4z M16.4,215.9v-2.4h0.8v2.4H16.4z M16.4,220.7v-2.4
	h0.8v2.4H16.4z M16.4,225.5v-2.4h0.8v2.4H16.4z M16.4,230.4V228h0.8v2.4H16.4z M16.9,235.2c-0.2-0.8-0.4-1.6-0.4-2.4l0.8-0.1
	c0.1,0.8,0.2,1.6,0.4,2.3L16.9,235.2z M18.9,239.8c-0.4-0.7-0.8-1.4-1.2-2.2l0.7-0.3c0.3,0.7,0.7,1.4,1.1,2.1L18.9,239.8z
	 M22.2,243.5c-0.6-0.5-1.2-1.1-1.8-1.8l0.6-0.5c0.5,0.6,1.1,1.2,1.7,1.7L22.2,243.5z M26.4,246.1c-0.8-0.3-1.5-0.7-2.2-1.1l0.4-0.7
	c0.7,0.4,1.4,0.8,2.1,1.1L26.4,246.1z M31.3,247.3c-0.8-0.1-1.6-0.2-2.4-0.4l0.2-0.8c0.8,0.2,1.5,0.3,2.3,0.4L31.3,247.3z
	 M36.1,247.3h-2.4v-0.8h2.4V247.3z M40.9,247.3h-2.4v-0.8h2.4V247.3z M45.7,247.3h-2.4v-0.8h2.4V247.3z M50.5,247.3h-2.4v-0.8h2.4
	V247.3z M55.3,247.3h-2.4v-0.8h2.4V247.3z M60.2,247.3h-2.4v-0.8h2.4V247.3z M65,247.3h-2.4v-0.8H65V247.3z M69.8,247.3h-2.4v-0.8
	h2.4V247.3z M74.6,247.3h-2.4v-0.8h2.4V247.3z M79.4,247.3H77v-0.8h2.4V247.3z M84.2,247.3h-2.4v-0.8h2.4V247.3z M89,247.3h-2.4
	v-0.8H89V247.3z M93.9,247.3h-2.4v-0.8h2.4V247.3z M98.7,247.3h-2.4v-0.8h2.4V247.3z M103.5,247.3h-2.4v-0.8h2.4V247.3z
	 M108.3,247.3h-2.4v-0.8h2.4V247.3z M113.1,247.3h-2.4v-0.8h2.4V247.3z M117.9,247.3h-2.4v-0.8h2.4V247.3z M122.7,247.3h-2.4v-0.8
	h2.4V247.3z M127.5,247.3h-2.4v-0.8h2.4V247.3z M132.4,247.3H130v-0.8h2.4V247.3z M137.2,247.3h-2.4v-0.8h2.4V247.3z M142,247.3
	h-2.4v-0.8h2.4V247.3z M146.8,247.3h-2.4v-0.8h2.4V247.3z M151.6,247.3h-2.4v-0.8h2.4V247.3z M156.4,247.3H154v-0.8h2.4V247.3z
	 M161.2,247.3h-2.4v-0.8h2.4V247.3z M166.1,247.3h-2.4v-0.8h2.4V247.3z M170.9,247.3h-2.4v-0.8h2.4V247.3z M175.7,247.3h-2.4v-0.8
	h2.4V247.3z M180.5,247.3h-2.4v-0.8h2.4V247.3z M185.3,247.3h-2.4v-0.8h2.4V247.3z M190.1,247.3h-2.4v-0.8h2.4V247.3z M194.9,247.3
	h-2.4v-0.8h2.4V247.3z M199.7,247.3h-2.4v-0.8h2.4V247.3z M204.6,247.3h-2.4v-0.8h2.4V247.3z M209.4,247c-0.8,0.2-1.6,0.2-2.4,0.3
	l0-0.8c0.8,0,1.5-0.1,2.3-0.3L209.4,247z M214.1,245.3c-0.7,0.4-1.5,0.7-2.3,1l-0.3-0.8c0.7-0.3,1.5-0.6,2.1-1L214.1,245.3z
	 M218,242.3c-0.6,0.6-1.2,1.2-1.9,1.7l-0.5-0.6c0.6-0.5,1.2-1,1.8-1.6L218,242.3z M220.9,238.2c-0.4,0.7-0.8,1.5-1.2,2.1l-0.7-0.5
	c0.4-0.6,0.8-1.3,1.2-2L220.9,238.2z M222.3,233.4c-0.1,0.8-0.3,1.6-0.5,2.5l-0.8-0.2c0.2-0.8,0.4-1.5,0.5-2.3L222.3,233.4z
	 M222.5,228.6v2.4h-0.8v-2.4H222.5z M222.5,223.8v2.4h-0.8v-2.4H222.5z M222.5,219v2.4h-0.8V219H222.5z M222.5,214.2v2.4h-0.8v-2.4
	H222.5z M222.5,209.4v2.4h-0.8v-2.4H222.5z M222.5,204.5v2.4h-0.8v-2.4H222.5z M222.5,199.7v2.4h-0.8v-2.4H222.5z M222.5,194.9v2.4
	h-0.8v-2.4H222.5z M222.5,190.1v2.4h-0.8v-2.4H222.5z M222.5,185.3v2.4h-0.8v-2.4H222.5z M222.5,180.5v2.4h-0.8v-2.4H222.5z
	 M222.5,175.7v2.4h-0.8v-2.4H222.5z M222.5,170.9v2.4h-0.8v-2.4H222.5z M222.5,166v2.4h-0.8V166H222.5z M222.5,161.2v2.4h-0.8v-2.4
	H222.5z M222.5,156.4c0,0.3,0,0.6,0,0.9v1.4h-0.8v-1.4c0-0.3,0-0.6,0-0.9L222.5,156.4z M221.4,151.6c0.3,0.8,0.5,1.6,0.7,2.5
	l-0.8,0.2c-0.2-0.8-0.4-1.6-0.7-2.3L221.4,151.6z M219,147.3c0.5,0.7,1,1.3,1.4,2.1l-0.7,0.4c-0.4-0.7-0.8-1.3-1.3-2L219,147.3z
	 M215.3,143.9c0.7,0.5,1.4,1,2,1.5l-0.5,0.6c-0.6-0.5-1.2-1-1.9-1.5L215.3,143.9z M210.7,141.8c0.8,0.2,1.6,0.5,2.4,0.9l-0.3,0.7
	c-0.7-0.3-1.5-0.6-2.2-0.8L210.7,141.8z M205.9,141.2h0.4c0.7,0,1.4,0,2,0.1l-0.1,0.8c-0.6-0.1-1.3-0.1-1.9-0.1h-0.4V141.2z
	 M201.1,141.2h2.4v0.8h-2.4V141.2z M196.3,141.2h2.4v0.8h-2.4V141.2z M191.5,141.2h2.4v0.8h-2.4V141.2z M186.7,141.2h2.4v0.8h-2.4
	V141.2z M181.9,141.2h2.4v0.8h-2.4V141.2z M177,141.2h2.4v0.8H177V141.2z M172.2,141.2h2.4v0.8h-2.4V141.2z M167.4,141.2h2.4v0.8
	h-2.4V141.2z M162.6,141.2h2.4v0.8h-2.4V141.2z M157.8,141.2h2.4v0.8h-2.4V141.2z M153,141.2h2.4v0.8H153V141.2z M148.2,141.2h2.4
	v0.8h-2.4V141.2z M143.3,141.2h2.4v0.8h-2.4V141.2z M138.5,141.2h2.4v0.8h-2.4V141.2z M133.7,141.2h2.4v0.8h-2.4V141.2z
	 M128.9,141.2h2.4v0.8h-2.4V141.2z M124.1,141.2h2.4v0.8h-2.4V141.2z M119.3,141.2h2.4v0.8h-2.4V141.2z M114.5,141.2h2.4v0.8h-2.4
	V141.2z M109.6,141.2h2.4v0.8h-2.4V141.2z M104.8,141.2h2.4v0.8h-2.4V141.2z M100,141.2h2.4v0.8H100V141.2z M95.2,141.2h2.4v0.8
	h-2.4V141.2z M90.4,141.2h2.4v0.8h-2.4V141.2z M85.6,141.2H88v0.8h-2.4V141.2z M80.8,141.2h2.4v0.8h-2.4V141.2z M76,141.2h2.4v0.8
	H76V141.2z M71.1,141.2h2.4v0.8h-2.4V141.2z M66.3,141.2h2.4v0.8h-2.4V141.2z M61.5,141.2h2.4v0.8h-2.4V141.2z M56.7,141.2h2.4v0.8
	h-2.4V141.2z M51.9,141.2h2.4v0.8h-2.4V141.2z M47.1,141.2h2.4v0.8h-2.4V141.2z M42.3,141.2h2.4v0.8h-2.4V141.2z M37.4,141.2h2.4
	v0.8h-2.4V141.2z"/>
<text transform="matrix(0 -1 1 0 26.4883 186.9727)" class="st2 st3">IR genes</text>
<text transform="matrix(0 -1 1 0 26.6011 240.7012)" class="st2 st3">Selected TFs</text>
<text transform="matrix(1 0 0 1 41.2451 151.9131)" class="st2 st3">Samples</text>
<rect x="28.7" y="155.1" class="st41" width="57.8" height="31.9"/>
<rect x="28.7" y="155.1" class="st42" width="57.8" height="31.9"/>
<rect x="28.7" y="187" class="st26" width="57.8" height="56.7"/>
<rect x="28.7" y="187" class="st43" width="57.8" height="56.7"/>
<rect x="28.7" y="164.3" class="st44" width="57.8" height="6.4"/>
<rect x="28.7" y="164.3" class="st45" width="57.8" height="6.4"/>
<polyline class="st46" points="87.5,243.7 95.5,243.7 95.5,187 87.5,187 "/>
<path class="st47" d="M95.5,215.4l64.7,0c5.3,0,8-2.2,8-6.7l0-6.7"/>
<polygon class="st48" points="168.1,197.8 171,203.4 168.1,202 165.3,203.4 "/>
<polygon class="st47" points="168.1,197.8 171,203.4 168.1,202 165.3,203.4 "/>
<path class="st47" d="M86.5,167.5l52.4,0c5.3,0,8,2.1,8,6.2l0,6.1"/>
<polygon class="st48" points="146.9,184 144.1,178.4 146.9,179.8 149.7,178.4 "/>
<polygon class="st47" points="146.9,184 144.1,178.4 146.9,179.8 149.7,178.4 "/>
<path class="st25" d="M299.5,160.8c0,0.4,0,0.7-0.1,1.1c-0.1,0.4-0.2,0.7-0.3,1.1c-0.1,0.3-0.3,0.7-0.5,1c-0.2,0.3-0.4,0.6-0.7,0.9
	c-0.3,0.3-0.6,0.5-0.9,0.7c-0.3,0.2-0.6,0.4-1,0.5c-0.3,0.1-0.7,0.3-1.1,0.3c-0.4,0.1-0.7,0.1-1.1,0.1c-0.4,0-0.7,0-1.1-0.1
	c-0.4-0.1-0.7-0.2-1.1-0.3c-0.3-0.1-0.7-0.3-1-0.5c-0.3-0.2-0.6-0.4-0.9-0.7c-0.3-0.3-0.5-0.6-0.7-0.9c-0.2-0.3-0.4-0.6-0.5-1
	c-0.1-0.3-0.3-0.7-0.3-1.1c-0.1-0.4-0.1-0.7-0.1-1.1c0-0.4,0-0.7,0.1-1.1c0.1-0.4,0.2-0.7,0.3-1.1c0.1-0.3,0.3-0.7,0.5-1
	c0.2-0.3,0.4-0.6,0.7-0.9c0.3-0.3,0.6-0.5,0.9-0.7c0.3-0.2,0.6-0.4,1-0.5c0.3-0.1,0.7-0.3,1.1-0.3c0.4-0.1,0.7-0.1,1.1-0.1
	c0.4,0,0.7,0,1.1,0.1c0.4,0.1,0.7,0.2,1.1,0.3c0.3,0.1,0.7,0.3,1,0.5c0.3,0.2,0.6,0.4,0.9,0.7c0.3,0.3,0.5,0.6,0.7,0.9
	c0.2,0.3,0.4,0.6,0.5,1c0.1,0.3,0.3,0.7,0.3,1.1C299.5,160.1,299.5,160.4,299.5,160.8z"/>
<path class="st24" d="M299.5,160.8c0,0.4,0,0.7-0.1,1.1c-0.1,0.4-0.2,0.7-0.3,1.1c-0.1,0.3-0.3,0.7-0.5,1c-0.2,0.3-0.4,0.6-0.7,0.9
	c-0.3,0.3-0.6,0.5-0.9,0.7c-0.3,0.2-0.6,0.4-1,0.5c-0.3,0.1-0.7,0.3-1.1,0.3c-0.4,0.1-0.7,0.1-1.1,0.1c-0.4,0-0.7,0-1.1-0.1
	c-0.4-0.1-0.7-0.2-1.1-0.3c-0.3-0.1-0.7-0.3-1-0.5c-0.3-0.2-0.6-0.4-0.9-0.7c-0.3-0.3-0.5-0.6-0.7-0.9c-0.2-0.3-0.4-0.6-0.5-1
	c-0.1-0.3-0.3-0.7-0.3-1.1c-0.1-0.4-0.1-0.7-0.1-1.1c0-0.4,0-0.7,0.1-1.1c0.1-0.4,0.2-0.7,0.3-1.1c0.1-0.3,0.3-0.7,0.5-1
	c0.2-0.3,0.4-0.6,0.7-0.9c0.3-0.3,0.6-0.5,0.9-0.7c0.3-0.2,0.6-0.4,1-0.5c0.3-0.1,0.7-0.3,1.1-0.3c0.4-0.1,0.7-0.1,1.1-0.1
	c0.4,0,0.7,0,1.1,0.1c0.4,0.1,0.7,0.2,1.1,0.3c0.3,0.1,0.7,0.3,1,0.5c0.3,0.2,0.6,0.4,0.9,0.7c0.3,0.3,0.5,0.6,0.7,0.9
	c0.2,0.3,0.4,0.6,0.5,1c0.1,0.3,0.3,0.7,0.3,1.1C299.5,160.1,299.5,160.4,299.5,160.8z"/>
<path class="st23" d="M282,160.8c0,0.4,0,0.7-0.1,1.1c-0.1,0.4-0.2,0.7-0.3,1.1s-0.3,0.7-0.5,1c-0.2,0.3-0.4,0.6-0.7,0.9
	c-0.3,0.3-0.6,0.5-0.9,0.7c-0.3,0.2-0.6,0.4-1,0.5c-0.3,0.1-0.7,0.3-1.1,0.3c-0.4,0.1-0.7,0.1-1.1,0.1c-0.4,0-0.7,0-1.1-0.1
	c-0.4-0.1-0.7-0.2-1.1-0.3c-0.3-0.1-0.7-0.3-1-0.5c-0.3-0.2-0.6-0.4-0.9-0.7c-0.3-0.3-0.5-0.6-0.7-0.9c-0.2-0.3-0.4-0.6-0.5-1
	c-0.1-0.3-0.3-0.7-0.3-1.1c-0.1-0.4-0.1-0.7-0.1-1.1c0-0.4,0-0.7,0.1-1.1c0.1-0.4,0.2-0.7,0.3-1.1c0.1-0.3,0.3-0.7,0.5-1
	c0.2-0.3,0.4-0.6,0.7-0.9c0.3-0.3,0.6-0.5,0.9-0.7c0.3-0.2,0.6-0.4,1-0.5c0.3-0.1,0.7-0.3,1.1-0.3c0.4-0.1,0.7-0.1,1.1-0.1
	c0.4,0,0.7,0,1.1,0.1c0.4,0.1,0.7,0.2,1.1,0.3c0.3,0.1,0.7,0.3,1,0.5c0.3,0.2,0.6,0.4,0.9,0.7c0.3,0.3,0.5,0.6,0.7,0.9
	c0.2,0.3,0.4,0.6,0.5,1c0.1,0.3,0.3,0.7,0.3,1.1C282,160.1,282,160.4,282,160.8z"/>
<path class="st24" d="M282,160.8c0,0.4,0,0.7-0.1,1.1c-0.1,0.4-0.2,0.7-0.3,1.1s-0.3,0.7-0.5,1c-0.2,0.3-0.4,0.6-0.7,0.9
	c-0.3,0.3-0.6,0.5-0.9,0.7c-0.3,0.2-0.6,0.4-1,0.5c-0.3,0.1-0.7,0.3-1.1,0.3c-0.4,0.1-0.7,0.1-1.1,0.1c-0.4,0-0.7,0-1.1-0.1
	c-0.4-0.1-0.7-0.2-1.1-0.3c-0.3-0.1-0.7-0.3-1-0.5c-0.3-0.2-0.6-0.4-0.9-0.7c-0.3-0.3-0.5-0.6-0.7-0.9c-0.2-0.3-0.4-0.6-0.5-1
	c-0.1-0.3-0.3-0.7-0.3-1.1c-0.1-0.4-0.1-0.7-0.1-1.1c0-0.4,0-0.7,0.1-1.1c0.1-0.4,0.2-0.7,0.3-1.1c0.1-0.3,0.3-0.7,0.5-1
	c0.2-0.3,0.4-0.6,0.7-0.9c0.3-0.3,0.6-0.5,0.9-0.7c0.3-0.2,0.6-0.4,1-0.5c0.3-0.1,0.7-0.3,1.1-0.3c0.4-0.1,0.7-0.1,1.1-0.1
	c0.4,0,0.7,0,1.1,0.1c0.4,0.1,0.7,0.2,1.1,0.3c0.3,0.1,0.7,0.3,1,0.5c0.3,0.2,0.6,0.4,0.9,0.7c0.3,0.3,0.5,0.6,0.7,0.9
	c0.2,0.3,0.4,0.6,0.5,1c0.1,0.3,0.3,0.7,0.3,1.1C282,160.1,282,160.4,282,160.8z"/>
<path class="st23" d="M265.2,165.6c0,0.4,0,0.7-0.1,1.1c-0.1,0.4-0.2,0.7-0.3,1.1c-0.1,0.3-0.3,0.7-0.5,1c-0.2,0.3-0.4,0.6-0.7,0.9
	c-0.3,0.3-0.6,0.5-0.9,0.7c-0.3,0.2-0.6,0.4-1,0.5c-0.3,0.1-0.7,0.3-1.1,0.3c-0.4,0.1-0.7,0.1-1.1,0.1c-0.4,0-0.7,0-1.1-0.1
	c-0.4-0.1-0.7-0.2-1.1-0.3c-0.3-0.1-0.7-0.3-1-0.5c-0.3-0.2-0.6-0.4-0.9-0.7c-0.3-0.3-0.5-0.6-0.7-0.9c-0.2-0.3-0.4-0.6-0.5-1
	c-0.1-0.3-0.3-0.7-0.3-1.1c-0.1-0.4-0.1-0.7-0.1-1.1c0-0.4,0-0.7,0.1-1.1c0.1-0.4,0.2-0.7,0.3-1.1c0.1-0.3,0.3-0.7,0.5-1
	c0.2-0.3,0.4-0.6,0.7-0.9c0.3-0.3,0.6-0.5,0.9-0.7c0.3-0.2,0.6-0.4,1-0.5c0.3-0.1,0.7-0.3,1.1-0.3c0.4-0.1,0.7-0.1,1.1-0.1
	c0.4,0,0.7,0,1.1,0.1c0.4,0.1,0.7,0.2,1.1,0.3c0.3,0.1,0.7,0.3,1,0.5c0.3,0.2,0.6,0.4,0.9,0.7c0.3,0.3,0.5,0.6,0.7,0.9
	c0.2,0.3,0.4,0.6,0.5,1c0.1,0.3,0.3,0.7,0.3,1.1C265.1,164.9,265.2,165.3,265.2,165.6z"/>
<path class="st24" d="M265.2,165.6c0,0.4,0,0.7-0.1,1.1c-0.1,0.4-0.2,0.7-0.3,1.1c-0.1,0.3-0.3,0.7-0.5,1c-0.2,0.3-0.4,0.6-0.7,0.9
	c-0.3,0.3-0.6,0.5-0.9,0.7c-0.3,0.2-0.6,0.4-1,0.5c-0.3,0.1-0.7,0.3-1.1,0.3c-0.4,0.1-0.7,0.1-1.1,0.1c-0.4,0-0.7,0-1.1-0.1
	c-0.4-0.1-0.7-0.2-1.1-0.3c-0.3-0.1-0.7-0.3-1-0.5c-0.3-0.2-0.6-0.4-0.9-0.7c-0.3-0.3-0.5-0.6-0.7-0.9c-0.2-0.3-0.4-0.6-0.5-1
	c-0.1-0.3-0.3-0.7-0.3-1.1c-0.1-0.4-0.1-0.7-0.1-1.1c0-0.4,0-0.7,0.1-1.1c0.1-0.4,0.2-0.7,0.3-1.1c0.1-0.3,0.3-0.7,0.5-1
	c0.2-0.3,0.4-0.6,0.7-0.9c0.3-0.3,0.6-0.5,0.9-0.7c0.3-0.2,0.6-0.4,1-0.5c0.3-0.1,0.7-0.3,1.1-0.3c0.4-0.1,0.7-0.1,1.1-0.1
	c0.4,0,0.7,0,1.1,0.1c0.4,0.1,0.7,0.2,1.1,0.3c0.3,0.1,0.7,0.3,1,0.5c0.3,0.2,0.6,0.4,0.9,0.7c0.3,0.3,0.5,0.6,0.7,0.9
	c0.2,0.3,0.4,0.6,0.5,1c0.1,0.3,0.3,0.7,0.3,1.1C265.1,164.9,265.2,165.3,265.2,165.6z"/>
<path class="st25" d="M317.6,165.6c0,0.4,0,0.7-0.1,1.1c-0.1,0.4-0.2,0.7-0.3,1.1c-0.1,0.3-0.3,0.7-0.5,1c-0.2,0.3-0.4,0.6-0.7,0.9
	c-0.3,0.3-0.6,0.5-0.9,0.7c-0.3,0.2-0.6,0.4-1,0.5c-0.3,0.1-0.7,0.3-1.1,0.3c-0.4,0.1-0.7,0.1-1.1,0.1c-0.4,0-0.7,0-1.1-0.1
	c-0.4-0.1-0.7-0.2-1.1-0.3c-0.3-0.1-0.7-0.3-1-0.5c-0.3-0.2-0.6-0.4-0.9-0.7c-0.3-0.3-0.5-0.6-0.7-0.9c-0.2-0.3-0.4-0.6-0.5-1
	c-0.1-0.3-0.3-0.7-0.3-1.1c-0.1-0.4-0.1-0.7-0.1-1.1c0-0.4,0-0.7,0.1-1.1c0.1-0.4,0.2-0.7,0.3-1.1c0.1-0.3,0.3-0.7,0.5-1
	s0.4-0.6,0.7-0.9c0.3-0.3,0.6-0.5,0.9-0.7c0.3-0.2,0.6-0.4,1-0.5c0.3-0.1,0.7-0.3,1.1-0.3c0.4-0.1,0.7-0.1,1.1-0.1
	c0.4,0,0.7,0,1.1,0.1s0.7,0.2,1.1,0.3c0.3,0.1,0.7,0.3,1,0.5c0.3,0.2,0.6,0.4,0.9,0.7c0.3,0.3,0.5,0.6,0.7,0.9
	c0.2,0.3,0.4,0.6,0.5,1c0.1,0.3,0.3,0.7,0.3,1.1C317.6,164.9,317.6,165.3,317.6,165.6z"/>
<path class="st24" d="M317.6,165.6c0,0.4,0,0.7-0.1,1.1c-0.1,0.4-0.2,0.7-0.3,1.1c-0.1,0.3-0.3,0.7-0.5,1c-0.2,0.3-0.4,0.6-0.7,0.9
	c-0.3,0.3-0.6,0.5-0.9,0.7c-0.3,0.2-0.6,0.4-1,0.5c-0.3,0.1-0.7,0.3-1.1,0.3c-0.4,0.1-0.7,0.1-1.1,0.1c-0.4,0-0.7,0-1.1-0.1
	c-0.4-0.1-0.7-0.2-1.1-0.3c-0.3-0.1-0.7-0.3-1-0.5c-0.3-0.2-0.6-0.4-0.9-0.7c-0.3-0.3-0.5-0.6-0.7-0.9c-0.2-0.3-0.4-0.6-0.5-1
	c-0.1-0.3-0.3-0.7-0.3-1.1c-0.1-0.4-0.1-0.7-0.1-1.1c0-0.4,0-0.7,0.1-1.1c0.1-0.4,0.2-0.7,0.3-1.1c0.1-0.3,0.3-0.7,0.5-1
	s0.4-0.6,0.7-0.9c0.3-0.3,0.6-0.5,0.9-0.7c0.3-0.2,0.6-0.4,1-0.5c0.3-0.1,0.7-0.3,1.1-0.3c0.4-0.1,0.7-0.1,1.1-0.1
	c0.4,0,0.7,0,1.1,0.1s0.7,0.2,1.1,0.3c0.3,0.1,0.7,0.3,1,0.5c0.3,0.2,0.6,0.4,0.9,0.7c0.3,0.3,0.5,0.6,0.7,0.9
	c0.2,0.3,0.4,0.6,0.5,1c0.1,0.3,0.3,0.7,0.3,1.1C317.6,164.9,317.6,165.3,317.6,165.6z"/>
<path class="st23" d="M250.1,175c0,0.4,0,0.7-0.1,1.1c-0.1,0.4-0.2,0.7-0.3,1.1c-0.1,0.3-0.3,0.7-0.5,1c-0.2,0.3-0.4,0.6-0.7,0.9
	c-0.3,0.3-0.6,0.5-0.9,0.7c-0.3,0.2-0.6,0.4-1,0.5c-0.3,0.1-0.7,0.3-1.1,0.3c-0.4,0.1-0.7,0.1-1.1,0.1c-0.4,0-0.7,0-1.1-0.1
	c-0.4-0.1-0.7-0.2-1.1-0.3c-0.3-0.1-0.7-0.3-1-0.5c-0.3-0.2-0.6-0.4-0.9-0.7c-0.3-0.3-0.5-0.6-0.7-0.9c-0.2-0.3-0.4-0.6-0.5-1
	c-0.1-0.3-0.3-0.7-0.3-1.1c-0.1-0.4-0.1-0.7-0.1-1.1c0-0.4,0-0.7,0.1-1.1c0.1-0.4,0.2-0.7,0.3-1.1c0.1-0.3,0.3-0.7,0.5-1
	c0.2-0.3,0.4-0.6,0.7-0.9c0.3-0.3,0.6-0.5,0.9-0.7c0.3-0.2,0.6-0.4,1-0.5c0.3-0.1,0.7-0.3,1.1-0.3c0.4-0.1,0.7-0.1,1.1-0.1
	c0.4,0,0.7,0,1.1,0.1c0.4,0.1,0.7,0.2,1.1,0.3c0.3,0.1,0.7,0.3,1,0.5c0.3,0.2,0.6,0.4,0.9,0.7c0.3,0.3,0.5,0.6,0.7,0.9
	c0.2,0.3,0.4,0.6,0.5,1c0.1,0.3,0.3,0.7,0.3,1.1C250,174.3,250.1,174.6,250.1,175z"/>
<path class="st24" d="M250.1,175c0,0.4,0,0.7-0.1,1.1c-0.1,0.4-0.2,0.7-0.3,1.1c-0.1,0.3-0.3,0.7-0.5,1c-0.2,0.3-0.4,0.6-0.7,0.9
	c-0.3,0.3-0.6,0.5-0.9,0.7c-0.3,0.2-0.6,0.4-1,0.5c-0.3,0.1-0.7,0.3-1.1,0.3c-0.4,0.1-0.7,0.1-1.1,0.1c-0.4,0-0.7,0-1.1-0.1
	c-0.4-0.1-0.7-0.2-1.1-0.3c-0.3-0.1-0.7-0.3-1-0.5c-0.3-0.2-0.6-0.4-0.9-0.7c-0.3-0.3-0.5-0.6-0.7-0.9c-0.2-0.3-0.4-0.6-0.5-1
	c-0.1-0.3-0.3-0.7-0.3-1.1c-0.1-0.4-0.1-0.7-0.1-1.1c0-0.4,0-0.7,0.1-1.1c0.1-0.4,0.2-0.7,0.3-1.1c0.1-0.3,0.3-0.7,0.5-1
	c0.2-0.3,0.4-0.6,0.7-0.9c0.3-0.3,0.6-0.5,0.9-0.7c0.3-0.2,0.6-0.4,1-0.5c0.3-0.1,0.7-0.3,1.1-0.3c0.4-0.1,0.7-0.1,1.1-0.1
	c0.4,0,0.7,0,1.1,0.1c0.4,0.1,0.7,0.2,1.1,0.3c0.3,0.1,0.7,0.3,1,0.5c0.3,0.2,0.6,0.4,0.9,0.7c0.3,0.3,0.5,0.6,0.7,0.9
	c0.2,0.3,0.4,0.6,0.5,1c0.1,0.3,0.3,0.7,0.3,1.1C250,174.3,250.1,174.6,250.1,175z"/>
<path class="st25" d="M332.1,173.5c0,0.4,0,0.7-0.1,1.1c-0.1,0.4-0.2,0.7-0.3,1.1c-0.1,0.3-0.3,0.7-0.5,1c-0.2,0.3-0.4,0.6-0.7,0.9
	c-0.3,0.3-0.6,0.5-0.9,0.7c-0.3,0.2-0.6,0.4-1,0.5c-0.3,0.1-0.7,0.3-1.1,0.3c-0.4,0.1-0.7,0.1-1.1,0.1c-0.4,0-0.7,0-1.1-0.1
	c-0.4-0.1-0.7-0.2-1.1-0.3c-0.3-0.1-0.7-0.3-1-0.5c-0.3-0.2-0.6-0.4-0.9-0.7c-0.3-0.3-0.5-0.6-0.7-0.9c-0.2-0.3-0.4-0.6-0.5-1
	c-0.1-0.3-0.3-0.7-0.3-1.1c-0.1-0.4-0.1-0.7-0.1-1.1c0-0.4,0-0.7,0.1-1.1c0.1-0.4,0.2-0.7,0.3-1.1c0.1-0.3,0.3-0.7,0.5-1
	c0.2-0.3,0.4-0.6,0.7-0.9c0.3-0.3,0.6-0.5,0.9-0.7c0.3-0.2,0.6-0.4,1-0.5c0.3-0.1,0.7-0.3,1.1-0.3c0.4-0.1,0.7-0.1,1.1-0.1
	c0.4,0,0.7,0,1.1,0.1c0.4,0.1,0.7,0.2,1.1,0.3c0.3,0.1,0.7,0.3,1,0.5c0.3,0.2,0.6,0.4,0.9,0.7c0.3,0.3,0.5,0.6,0.7,0.9
	c0.2,0.3,0.4,0.6,0.5,1c0.1,0.3,0.3,0.7,0.3,1.1C332.1,172.7,332.1,173.1,332.1,173.5z"/>
<path class="st24" d="M332.1,173.5c0,0.4,0,0.7-0.1,1.1c-0.1,0.4-0.2,0.7-0.3,1.1c-0.1,0.3-0.3,0.7-0.5,1c-0.2,0.3-0.4,0.6-0.7,0.9
	c-0.3,0.3-0.6,0.5-0.9,0.7c-0.3,0.2-0.6,0.4-1,0.5c-0.3,0.1-0.7,0.3-1.1,0.3c-0.4,0.1-0.7,0.1-1.1,0.1c-0.4,0-0.7,0-1.1-0.1
	c-0.4-0.1-0.7-0.2-1.1-0.3c-0.3-0.1-0.7-0.3-1-0.5c-0.3-0.2-0.6-0.4-0.9-0.7c-0.3-0.3-0.5-0.6-0.7-0.9c-0.2-0.3-0.4-0.6-0.5-1
	c-0.1-0.3-0.3-0.7-0.3-1.1c-0.1-0.4-0.1-0.7-0.1-1.1c0-0.4,0-0.7,0.1-1.1c0.1-0.4,0.2-0.7,0.3-1.1c0.1-0.3,0.3-0.7,0.5-1
	c0.2-0.3,0.4-0.6,0.7-0.9c0.3-0.3,0.6-0.5,0.9-0.7c0.3-0.2,0.6-0.4,1-0.5c0.3-0.1,0.7-0.3,1.1-0.3c0.4-0.1,0.7-0.1,1.1-0.1
	c0.4,0,0.7,0,1.1,0.1c0.4,0.1,0.7,0.2,1.1,0.3c0.3,0.1,0.7,0.3,1,0.5c0.3,0.2,0.6,0.4,0.9,0.7c0.3,0.3,0.5,0.6,0.7,0.9
	c0.2,0.3,0.4,0.6,0.5,1c0.1,0.3,0.3,0.7,0.3,1.1C332.1,172.7,332.1,173.1,332.1,173.5z"/>
<polygon class="st26" points="270.9,183.4 276.3,189.2 270.9,194.9 265.5,189.2 "/>
<polygon class="st29" points="270.9,183.4 276.3,189.2 270.9,194.9 265.5,189.2 "/>
<polygon class="st26" points="285.1,183.4 290.5,189.2 285.1,194.9 279.6,189.2 "/>
<polygon class="st29" points="285.1,183.4 290.5,189.2 285.1,194.9 279.6,189.2 "/>
<polygon class="st26" points="258.2,185.3 263.6,191 258.2,196.7 252.8,191 "/>
<polygon class="st29" points="258.2,185.3 263.6,191 258.2,196.7 252.8,191 "/>
<polygon class="st26" points="299.2,183.4 304.7,189.2 299.2,194.9 293.8,189.2 "/>
<polygon class="st29" points="299.2,183.4 304.7,189.2 299.2,194.9 293.8,189.2 "/>
<polygon class="st26" points="311.9,185.3 317.3,191 311.9,196.7 306.5,191 "/>
<polygon class="st29" points="311.9,185.3 317.3,191 311.9,196.7 306.5,191 "/>
<line class="st33" x1="258.2" y1="185.3" x2="248.4" y2="179.1"/>
<line class="st33" x1="270.9" y1="183.4" x2="263.5" y2="169.7"/>
<line class="st33" x1="258.2" y1="185.3" x2="263.5" y2="169.7"/>
<line class="st33" x1="270.9" y1="183.4" x2="276.3" y2="166.6"/>
<line class="st33" x1="285.1" y1="183.4" x2="263.5" y2="169.7"/>
<line class="st33" x1="299.2" y1="183.4" x2="293.8" y2="166.6"/>
<line class="st33" x1="285.1" y1="183.4" x2="293.8" y2="166.6"/>
<line class="st33" x1="285.1" y1="183.4" x2="311.9" y2="171.4"/>
<line class="st33" x1="311.9" y1="185.3" x2="322.3" y2="177.5"/>
<line class="st33" x1="311.9" y1="185.3" x2="276.3" y2="166.6"/>
<line class="st33" x1="299.2" y1="183.4" x2="322.3" y2="177.5"/>
<line class="st33" x1="275.1" y1="204.9" x2="260.9" y2="193.9"/>
<line class="st33" x1="275.1" y1="204.9" x2="270.9" y2="194.9"/>
<line class="st33" x1="303" y1="204.9" x2="285.1" y2="194.9"/>
<line class="st33" x1="275.1" y1="204.9" x2="299.2" y2="194.9"/>
<line class="st33" x1="303" y1="204.9" x2="311.9" y2="196.7"/>
<line class="st33" x1="303" y1="204.9" x2="299.2" y2="194.9"/>
<line class="st33" x1="311.9" y1="185.3" x2="311.9" y2="171.4"/>
<line class="st33" x1="279.5" y1="217.7" x2="275.1" y2="210.9"/>
<line class="st33" x1="299.2" y1="183.4" x2="248.4" y2="179.1"/>
<path class="st34" d="M327.7,214.8c0,0.3-0.1,0.5-0.3,0.7c-0.2,0.2-0.5,0.3-0.8,0.3c-0.3,0-0.6-0.1-0.8-0.3
	c-0.2-0.2-0.3-0.4-0.3-0.7c0-0.3,0.1-0.5,0.3-0.7c0.2-0.2,0.5-0.3,0.8-0.3s0.6,0.1,0.8,0.3C327.6,214.3,327.7,214.5,327.7,214.8z"/>
<path class="st34" d="M325.2,225.1c0,0.3,0.3,0.5,0.6,0.5c0.4,0,0.6-0.2,0.6-0.5v-4.5h0.3v4.5c0,0.3,0.3,0.5,0.6,0.5
	c0.4,0,0.6-0.2,0.6-0.5v-7.8h0.3v2.9c0,0.6,0.9,0.6,0.9,0v-3c0-0.6-0.4-1.3-1.3-1.3l-2.5,0c-0.8,0-1.3,0.6-1.3,1.3v3
	c0,0.6,0.9,0.6,0.9,0v-2.9h0.3V225.1z"/>
<path class="st34" d="M318,214.8c0,0.3-0.1,0.5-0.3,0.7c-0.2,0.2-0.5,0.3-0.8,0.3c-0.3,0-0.6-0.1-0.8-0.3c-0.2-0.2-0.3-0.4-0.3-0.7
	c0-0.3,0.1-0.5,0.3-0.7c0.2-0.2,0.5-0.3,0.8-0.3c0.3,0,0.6,0.1,0.8,0.3C317.9,214.3,318,214.5,318,214.8z"/>
<path class="st34" d="M315.5,225.1c0,0.3,0.3,0.5,0.6,0.5c0.4,0,0.6-0.2,0.6-0.5v-4.5h0.3v4.5c0,0.3,0.3,0.5,0.6,0.5
	c0.4,0,0.6-0.2,0.6-0.5v-7.8h0.3v2.9c0,0.6,0.9,0.6,0.9,0v-3c0-0.6-0.4-1.3-1.3-1.3l-2.5,0c-0.8,0-1.3,0.6-1.3,1.3v3
	c0,0.6,0.9,0.6,0.9,0v-2.9h0.3V225.1z"/>
<line class="st33" x1="279.6" y1="217.7" x2="302.8" y2="210.4"/>
<path class="st31" d="M297.1,204.9h11.8c0.3,0,0.5,0.1,0.6,0.3c0.2,0.2,0.3,0.4,0.3,0.6v4.2c0,0.3-0.1,0.5-0.3,0.6
	c-0.2,0.2-0.4,0.3-0.6,0.3h-11.8c-0.3,0-0.5-0.1-0.6-0.3c-0.2-0.2-0.3-0.4-0.3-0.6v-4.2c0-0.3,0.1-0.5,0.3-0.6
	C296.7,205,296.9,204.9,297.1,204.9z"/>
<path class="st32" d="M297.1,204.9h11.8c0.3,0,0.5,0.1,0.6,0.3c0.2,0.2,0.3,0.4,0.3,0.6v4.2c0,0.3-0.1,0.5-0.3,0.6
	c-0.2,0.2-0.4,0.3-0.6,0.3h-11.8c-0.3,0-0.5-0.1-0.6-0.3c-0.2-0.2-0.3-0.4-0.3-0.6v-4.2c0-0.3,0.1-0.5,0.3-0.6
	C296.7,205,296.9,204.9,297.1,204.9z"/>
<path class="st31" d="M268.5,204.9h13.3c0.3,0,0.5,0.1,0.6,0.3c0.2,0.2,0.3,0.4,0.3,0.6v4.2c0,0.3-0.1,0.5-0.3,0.6
	c-0.2,0.2-0.4,0.3-0.6,0.3h-13.3c-0.3,0-0.5-0.1-0.6-0.3c-0.2-0.2-0.3-0.4-0.3-0.6v-4.2c0-0.3,0.1-0.5,0.3-0.6
	C268,205,268.2,204.9,268.5,204.9z"/>
<path class="st32" d="M268.5,204.9h13.3c0.3,0,0.5,0.1,0.6,0.3c0.2,0.2,0.3,0.4,0.3,0.6v4.2c0,0.3-0.1,0.5-0.3,0.6
	c-0.2,0.2-0.4,0.3-0.6,0.3h-13.3c-0.3,0-0.5-0.1-0.6-0.3c-0.2-0.2-0.3-0.4-0.3-0.6v-4.2c0-0.3,0.1-0.5,0.3-0.6
	C268,205,268.2,204.9,268.5,204.9z"/>
<path class="st34" d="M280.6,218.6c0,0.3-0.1,0.5-0.3,0.7c-0.2,0.2-0.5,0.3-0.8,0.3c-0.3,0-0.6-0.1-0.8-0.3
	c-0.2-0.2-0.3-0.4-0.3-0.7c0-0.3,0.1-0.5,0.3-0.7s0.5-0.3,0.8-0.3c0.3,0,0.6,0.1,0.8,0.3S280.6,218.4,280.6,218.6z"/>
<path class="st34" d="M278.2,229c0,0.3,0.3,0.5,0.6,0.5c0.4,0,0.6-0.2,0.6-0.5v-4.5h0.3v4.5c0,0.3,0.3,0.5,0.6,0.5
	c0.4,0,0.6-0.2,0.6-0.5v-7.8h0.3v2.9c0,0.6,0.9,0.6,0.9,0v-3c0-0.6-0.4-1.3-1.3-1.3l-2.5,0c-0.8,0-1.3,0.6-1.3,1.3v3
	c0,0.6,0.9,0.6,0.9,0v-2.9h0.3V229z"/>
<path class="st34" d="M285.6,218.6c0,0.3-0.1,0.5-0.3,0.7c-0.2,0.2-0.5,0.3-0.8,0.3c-0.3,0-0.6-0.1-0.8-0.3
	c-0.2-0.2-0.3-0.4-0.3-0.7c0-0.3,0.1-0.5,0.3-0.7c0.2-0.2,0.5-0.3,0.8-0.3s0.6,0.1,0.8,0.3S285.6,218.4,285.6,218.6z"/>
<path class="st34" d="M283.2,229c0,0.3,0.3,0.5,0.6,0.5c0.4,0,0.6-0.2,0.6-0.5v-4.5h0.3v4.5c0,0.3,0.3,0.5,0.6,0.5
	c0.4,0,0.6-0.2,0.6-0.5v-7.8h0.3v2.9c0,0.6,0.9,0.6,0.9,0v-3c0-0.6-0.4-1.3-1.3-1.3l-2.5,0c-0.8,0-1.3,0.6-1.3,1.3v3
	c0,0.6,0.9,0.6,0.9,0v-2.9h0.3V229z"/>
<path class="st34" d="M275.9,218.6c0,0.3-0.1,0.5-0.3,0.7c-0.2,0.2-0.5,0.3-0.8,0.3c-0.3,0-0.6-0.1-0.8-0.3
	c-0.2-0.2-0.3-0.4-0.3-0.7c0-0.3,0.1-0.5,0.3-0.7c0.2-0.2,0.5-0.3,0.8-0.3c0.3,0,0.6,0.1,0.8,0.3
	C275.8,218.1,275.9,218.4,275.9,218.6z"/>
<path class="st34" d="M273.5,229c0,0.3,0.3,0.5,0.6,0.5c0.4,0,0.6-0.2,0.6-0.5v-4.5h0.3v4.5c0,0.3,0.3,0.5,0.6,0.5
	c0.4,0,0.6-0.2,0.6-0.5v-7.8h0.3v2.9c0,0.6,0.9,0.6,0.9,0v-3c0-0.6-0.4-1.3-1.3-1.3l-2.5,0c-0.8,0-1.3,0.6-1.3,1.3v3
	c0,0.6,0.9,0.6,0.9,0v-2.9h0.3V229z"/>
<path class="st34" d="M322.7,214.8c0,0.3-0.1,0.5-0.3,0.7c-0.2,0.2-0.5,0.3-0.8,0.3c-0.3,0-0.6-0.1-0.8-0.3
	c-0.2-0.2-0.3-0.4-0.3-0.7c0-0.3,0.1-0.5,0.3-0.7c0.2-0.2,0.5-0.3,0.8-0.3s0.6,0.1,0.8,0.3C322.6,214.3,322.7,214.5,322.7,214.8z"/>
<path class="st34" d="M320.2,225.1c0,0.3,0.3,0.5,0.6,0.5c0.4,0,0.6-0.2,0.6-0.5v-4.5h0.3v4.5c0,0.3,0.3,0.5,0.6,0.5
	c0.4,0,0.6-0.2,0.6-0.5v-7.8h0.3v2.9c0,0.6,0.9,0.6,0.9,0v-3c0-0.6-0.4-1.3-1.3-1.3l-2.5,0c-0.8,0-1.3,0.6-1.3,1.3v3
	c0,0.6,0.9,0.6,0.9,0v-2.9h0.3V225.1z"/>
<line class="st33" x1="321.6" y1="213.8" x2="303" y2="210.9"/>
<path class="st34" d="M301,218.6c0,0.3-0.1,0.5-0.3,0.7c-0.2,0.2-0.5,0.3-0.8,0.3c-0.3,0-0.6-0.1-0.8-0.3c-0.2-0.2-0.3-0.4-0.3-0.7
	c0-0.3,0.1-0.5,0.3-0.7s0.5-0.3,0.8-0.3c0.3,0,0.6,0.1,0.8,0.3S301,218.4,301,218.6z"/>
<path class="st34" d="M298.6,229c0,0.3,0.3,0.5,0.6,0.5c0.4,0,0.6-0.2,0.6-0.5v-4.5h0.3v4.5c0,0.3,0.3,0.5,0.6,0.5
	c0.4,0,0.6-0.2,0.6-0.5v-7.8h0.3v2.9c0,0.6,0.9,0.6,0.9,0v-3c0-0.6-0.4-1.3-1.3-1.3l-2.5,0c-0.8,0-1.3,0.6-1.3,1.3v3
	c0,0.6,0.9,0.6,0.9,0v-2.9h0.3V229z"/>
<path class="st34" d="M306,218.6c0,0.3-0.1,0.5-0.3,0.7c-0.2,0.2-0.5,0.3-0.8,0.3c-0.3,0-0.6-0.1-0.8-0.3c-0.2-0.2-0.3-0.4-0.3-0.7
	c0-0.3,0.1-0.5,0.3-0.7s0.5-0.3,0.8-0.3c0.3,0,0.6,0.1,0.8,0.3C305.9,218.1,306,218.4,306,218.6z"/>
<path class="st34" d="M303.5,229c0,0.3,0.3,0.5,0.6,0.5c0.4,0,0.6-0.2,0.6-0.5v-4.5h0.3v4.5c0,0.3,0.3,0.5,0.6,0.5
	c0.4,0,0.6-0.2,0.6-0.5v-7.8h0.3v2.9c0,0.6,0.9,0.6,0.9,0v-3c0-0.6-0.4-1.3-1.3-1.3l-2.5,0c-0.8,0-1.3,0.6-1.3,1.3v3
	c0,0.6,0.9,0.6,0.9,0v-2.9h0.3V229z"/>
<path class="st34" d="M296.3,218.6c0,0.3-0.1,0.5-0.3,0.7c-0.2,0.2-0.5,0.3-0.8,0.3c-0.3,0-0.6-0.1-0.8-0.3
	c-0.2-0.2-0.3-0.4-0.3-0.7c0-0.3,0.1-0.5,0.3-0.7s0.5-0.3,0.8-0.3c0.3,0,0.6,0.1,0.8,0.3C296.2,218.1,296.3,218.4,296.3,218.6z"/>
<path class="st34" d="M293.9,229c0,0.3,0.3,0.5,0.6,0.5c0.4,0,0.6-0.2,0.6-0.5v-4.5h0.3v4.5c0,0.3,0.3,0.5,0.6,0.5
	c0.4,0,0.6-0.2,0.6-0.5v-7.8h0.3v2.9c0,0.6,0.9,0.6,0.9,0v-3c0-0.6-0.4-1.3-1.3-1.3l-2.5,0c-0.8,0-1.3,0.6-1.3,1.3v3
	c0,0.6,0.9,0.6,0.9,0v-2.9h0.3V229z"/>
<line class="st33" x1="300" y1="217.7" x2="303" y2="210.9"/>
<path class="st34" d="M260.3,214.8c0,0.3-0.1,0.5-0.3,0.7c-0.2,0.2-0.5,0.3-0.8,0.3c-0.3,0-0.6-0.1-0.8-0.3
	c-0.2-0.2-0.3-0.4-0.3-0.7c0-0.3,0.1-0.5,0.3-0.7c0.2-0.2,0.5-0.3,0.8-0.3c0.3,0,0.6,0.1,0.8,0.3
	C260.2,214.3,260.3,214.5,260.3,214.8z"/>
<path class="st34" d="M257.9,225.1c0,0.3,0.3,0.5,0.6,0.5c0.4,0,0.6-0.2,0.6-0.5v-4.5h0.3v4.5c0,0.3,0.3,0.5,0.6,0.5
	c0.4,0,0.6-0.2,0.6-0.5v-7.8h0.3v2.9c0,0.6,0.9,0.6,0.9,0v-3c0-0.6-0.4-1.3-1.3-1.3l-2.5,0c-0.8,0-1.3,0.6-1.3,1.3v3
	c0,0.6,0.9,0.6,0.9,0v-2.9h0.3V225.1z"/>
<path class="st34" d="M265.3,214.8c0,0.3-0.1,0.5-0.3,0.7c-0.2,0.2-0.5,0.3-0.8,0.3c-0.3,0-0.6-0.1-0.8-0.3
	c-0.2-0.2-0.3-0.4-0.3-0.7c0-0.3,0.1-0.5,0.3-0.7c0.2-0.2,0.5-0.3,0.8-0.3c0.3,0,0.6,0.1,0.8,0.3
	C265.2,214.3,265.3,214.5,265.3,214.8z"/>
<path class="st34" d="M262.9,225.1c0,0.3,0.3,0.5,0.6,0.5c0.4,0,0.6-0.2,0.6-0.5v-4.5h0.3v4.5c0,0.3,0.3,0.5,0.6,0.5
	c0.4,0,0.6-0.2,0.6-0.5v-7.8h0.3v2.9c0,0.6,0.9,0.6,0.9,0v-3c0-0.6-0.4-1.3-1.3-1.3l-2.5,0c-0.8,0-1.3,0.6-1.3,1.3v3
	c0,0.6,0.9,0.6,0.9,0v-2.9h0.3V225.1z"/>
<path class="st34" d="M255.6,214.8c0,0.3-0.1,0.5-0.3,0.7c-0.2,0.2-0.5,0.3-0.8,0.3c-0.3,0-0.6-0.1-0.8-0.3
	c-0.2-0.2-0.3-0.4-0.3-0.7c0-0.3,0.1-0.5,0.3-0.7c0.2-0.2,0.5-0.3,0.8-0.3c0.3,0,0.6,0.1,0.8,0.3
	C255.5,214.3,255.6,214.5,255.6,214.8z"/>
<path class="st34" d="M253.2,225.1c0,0.3,0.3,0.5,0.6,0.5c0.4,0,0.6-0.2,0.6-0.5v-4.5h0.3v4.5c0,0.3,0.3,0.5,0.6,0.5
	c0.4,0,0.6-0.2,0.6-0.5v-7.8h0.3v2.9c0,0.6,0.9,0.6,0.9,0v-3c0-0.6-0.4-1.3-1.3-1.3l-2.5,0c-0.8,0-1.3,0.6-1.3,1.3v3
	c0,0.6,0.9,0.6,0.9,0v-2.9h0.3V225.1z"/>
<line class="st33" x1="259.3" y1="213.8" x2="303" y2="210.9"/>
<line class="st33" x1="259.3" y1="213.8" x2="275.1" y2="210.9"/>
</svg>
